SplineFontDB: 3.0
FontName: eiadr10
FullName: eiad
FamilyName: Eiad
Weight: Regular
Copyright: %% This file is public domain.\n%% Originally written 1998, Ivan A Derzhanski.\n%% \n% eiadr10.mf: Computer Modern Irish 10 point\n\nGenerated from MetaFont bitmap by mftrace 1.2.14, http://www.xs4all.nl/~hanwen/mftrace/ 
Version: 001.001
ItalicAngle: 0
UnderlinePosition: -102.4
UnderlineWidth: 51.2
Ascent: 819
Descent: 205
LayerCount: 2
Layer: 0 0 "Back"  1
Layer: 1 0 "Fore"  0
NeedsXUIDChange: 1
UniqueID: 4168708
OS2Version: 0
OS2_WeightWidthSlopeOnly: 0
OS2_UseTypoMetrics: 0
CreationTime: 1248265364
ModificationTime: 1260567972
OS2TypoAscent: 0
OS2TypoAOffset: 1
OS2TypoDescent: 0
OS2TypoDOffset: 1
OS2TypoLinegap: 0
OS2WinAscent: 0
OS2WinAOffset: 1
OS2WinDescent: 0
OS2WinDOffset: 1
HheadAscent: 0
HheadAOffset: 1
HheadDescent: 0
HheadDOffset: 1
OS2Vendor: 'PfEd'
Lookup: 258 0 0 "1"  {"1-1"  } []
DEI: 91125
LangName: 1033 
Encoding: Custom
UnicodeInterp: none
NameList: Adobe Glyph List
DisplaySize: -24
AntiAlias: 1
FitToEm: 1
ExtremaBound: 10
WinInfo: 0 27 11
BeginPrivate: 3
lenIV 1 4
BlueValues 2 []
ForceBold 5 false
EndPrivate
TeXData: 1 0 0 346030 173015 115343 463471 1073742 115343 783286 444596 497025 792723 393216 433062 380633 303038 157286 324010 404750 52429 2506097 1059062 262144
BeginChars: 260 125

StartChar: uni1E56
Encoding: 0 7766 1
Width: 69
Flags: HW
HStem: -199 22G<236 297> -13 24<508 593> 31 146<394 454> 494 33<104 178> 580 25<433 550> 696 110<452 520>
VStem: 209 89<-190 453 471 486> 427 27<113 177> 441 109<708 794> 710 106<170 404>
LayerCount: 2
Fore
SplineSet
496 696 m 0xfec0
 469 696 441 717 441 752 c 0
 441 782 466 806 496 806 c 1
 520 800 l 1
 548 787 549 764 549 755 c 0
 549 753 549 752 549 752 c 2
 549 711 516 696 496 696 c 0xfec0
209 440 m 0
 209 443 209 446 209 449 c 0
 209 476 205 494 119 494 c 2
 104 494 l 1
 104 526 l 1
 114 526 l 2
 164 526 202 549 209 580 c 0
 214 595 230 595 233 595 c 0
 288 595 295 534 298 521 c 1
 298 471 l 1
 307 483 l 2
 369 598 473 604 484 604 c 2
 485 604 487 604 489 604 c 0
 492 604 498 604 504 604 c 0
 667 604 817 475 817 292 c 0
 817 118 689 -13 553 -13 c 0
 478 -13 484 31 411 31 c 0
 376 31 368 20 357 20 c 0
 350 20 344 35 344 42 c 0
 344 44 344 45 345 46 c 1
 346 49 350 51 358 54 c 1
 421 89 427 148 427 162 c 0xff40
 427 174 430 177 441 177 c 0xfec0
 452 177 454 171 454 167 c 0xff40
 454 97 472 10 550 10 c 0
 630 10 710 123 710 292 c 0
 710 469 604 580 494 580 c 0
 405 580 322 505 302 395 c 0
 301 389 301 379 301 365 c 0
 301 326 298 360 298 310 c 2
 298 75 l 2
 298 -68 301 -188 301 -190 c 1
 299 -195 300 -193 294 -199 c 1
 256 -199 l 2
 215 -199 212 -199 209 -194 c 0
 209 -193 209 -185 209 -166 c 0
 209 -127 209 -41 209 133 c 0
 209 330 209 408 209 440 c 0
EndSplineSet
Validated: 1
EndChar

StartChar: Aacute
Encoding: 3 193 2
Width: -26
Flags: HW
HStem: -12 75<335 439> 608 20G<462 472>
LayerCount: 2
Fore
SplineSet
450 627 m 1
 454 628 459 629 467 629 c 0
 478 629 483 627 487 622 c 0
 491 617 742 11 742 7 c 0
 742 2 738 0 728 0 c 0
 711 0 707 2 695 24 c 0
 687 38 610 175 607 175 c 0
 593 175 488 7 388 -12 c 0
 386 -12 384 -12 381 -12 c 0
 375 -12 368 -12 361 -12 c 0
 355 -12 349 -12 344 -12 c 0
 324 -12 286 1 245 42 c 0
 188 101 156 187 151 187 c 0
 149 187 52 58 44 50 c 0
 39 46 31 44 22 44 c 0
 13 44 10 46 10 51 c 0
 10 58 433 609 441 621 c 1
 444 623 448 626 450 627 c 1
553 808 m 0
 581 808 591 783 591 769 c 0
 591 757 584 744 569 738 c 0
 569 738 397 655 388 651 c 1
 382 663 l 1
 374 674 l 1
 375 675 532 800 537 803 c 0
 547 808 547 808 553 808 c 0
576 227 m 1
 444 451 422 521 415 536 c 1
 413 536 301 386 300 385 c 2
 206 263 l 1
 216 246 l 5
 285 114 334 62 406 62 c 6
 407 62 l 2
 422 62 465 63 525 128 c 1
 587 200 l 1
 590 204 l 1
 576 227 l 1
EndSplineSet
Validated: 1
EndChar

StartChar: Eacute
Encoding: 4 201 3
Width: 55
Flags: HW
HStem: -10 26<343 485> 300 33<218 562 649 708> 589 23<338 446> 625 22G<311 315>
VStem: 111 106<181 300 300 300 333 421> 562 89<333 461> 624 28<124 153>
LayerCount: 2
Fore
SplineSet
562 349 m 2
 562 466 510 571 410 589 c 0
 408 589 406 589 404 589 c 0
 401 589 397 589 393 589 c 0
 339 589 300 560 275 528 c 0
 239 484 219 428 219 341 c 2
 218 333 l 1
 562 333 l 1
 562 349 l 2
476 808 m 0xf8
 505 808 515 785 515 770 c 0
 515 760 511 753 506 748 c 0
 502 744 316 625 313 625 c 1
 309 627 312 628 297 645 c 1
 459 803 l 1
 469 808 470 808 476 808 c 0xf8
392 -10 m 0
 214 -10 111 156 111 292 c 2
 111 300 l 2
 111 525 296 611 370 611 c 0
 374 611 384 612 393 612 c 0
 401 612 411 611 416 611 c 0
 453 611 515 586 535 573 c 0
 600 533 649 459 649 362 c 0
 649 344 650 346 650 341 c 0
 650 335 652 333 667 333 c 2
 708 333 l 1
 708 300 l 1
 218 300 l 1
 218 288 l 2
 218 166 248 84 320 40 c 0
 345 24 372 15 405 15 c 0
 527 15 607 94 624 153 c 0
 627 162 630 164 639 164 c 2
 639 164 639 164 640 164 c 0
 643 164 652 164 652 155 c 0
 652 144 601 -10 392 -10 c 0
EndSplineSet
Validated: 1
EndChar

StartChar: Iacute
Encoding: 5 205 4
Width: 69
Flags: HW
HStem: 0 22G<229 299> 494 33<103 174> 595 22G<168 206 227 258>
VStem: 209 90<6 454>
LayerCount: 2
Fore
SplineSet
341 808 m 0
 354 808 377 797 377 770 c 0
 377 750 373 751 272 676 c 2
 178 607 l 1
 168 617 l 2
 164 622 160 627 160 628 c 1
 161 630 318 799 321 802 c 1
 326 804 331 808 341 808 c 0
254 0 m 2
 250 0 247 0 244 0 c 0
 212 0 209 1 209 13 c 0
 209 16 209 20 209 25 c 0
 209 53 209 112 209 232 c 0
 209 285 210 326 210 359 c 0
 210 479 205 483 170 489 c 0
 159 491 136 494 118 494 c 2
 103 494 l 1
 103 526 l 1
 114 526 l 2
 162 526 198 551 205 582 c 0
 209 595 220 595 228 595 c 0
 229 595 230 595 231 595 c 0
 285 595 298 536 298 524 c 0
 298 518 299 441 299 261 c 2
 299 6 l 1
 292 0 l 1
 254 0 l 2
EndSplineSet
Validated: 1
EndChar

StartChar: Oacute
Encoding: 6 211 5
Width: 51
VWidth: 1000
Flags: HW
HStem: -21 26<351.97 471.479> 577 26<353.698 474.842> 613 21G<336.5 369.5>
VStem: 107 103<173.457 406.102> 613 104<180.828 406.828>
LayerCount: 2
Fore
SplineSet
107 328 m 2
 107 410 214 602 385 602 c 0
 390 602 401 603 410 603 c 0
 413 603 l 0
 612 603 715 413 715 328 c 0
 715 318 717 303 717 288 c 0
 717 132 596 -21 412 -21 c 0
 191 -21 107 182 107 260 c 0
 107 268 107 278 107 288 c 2
 107 328 l 2
497 789 m 0
 514 789 533 775 533 752 c 0
 533 731 526 729 428 669 c 2
 337 613 l 1
 336 613 321 632 321 633 c 1
 469 774 l 2
 479 784 486 789 497 789 c 0
613 302 m 0
 613 541 460 577 423 577 c 2
 411 577 l 2
 331 577 210 514 210 302 c 0
 210 72 331 5 412 5 c 0
 492 5 613 71 613 302 c 0
EndSplineSet
Validated: 1
EndChar

StartChar: Uacute
Encoding: 7 218 6
Width: 77
Flags: HW
HStem: -11 24<365 507> 505 33<82 152 536 606> 586 20G<207 233 663 693>
VStem: 188 92<103 473> 644 89<-5 145 148 462>
LayerCount: 2
Fore
SplineSet
531 808 m 0
 553 808 568 791 571 775 c 1
 571 756 559 746 519 706 c 2
 431 615 l 1
 372 554 l 1
 362 562 l 2
 356 567 351 571 351 571 c 1
 352 572 386 623 428 684 c 0
 514 807 513 808 531 808 c 0
733 -5 m 1
 726 -11 l 1
 651 -11 l 1
 644 -5 l 1
 644 70 l 1
 644 145 l 1
 639 133 l 2
 614 73 558 -11 436 -11 c 0
 300 -11 213 40 193 158 c 0
 189 183 188 181 188 328 c 0
 188 366 188 395 188 418 c 0
 188 488 184 495 151 501 c 0
 140 503 116 505 97 505 c 2
 82 505 l 1
 82 538 l 1
 92 538 l 1
 142 538 181 564 188 595 c 0
 191 603 195 605 200 605 c 0
 204 605 208 604 211 604 c 0
 255 604 274 570 279 537 c 0
 280 531 280 474 280 356 c 0
 280 310 279 268 279 230 c 0
 279 92 293 12 434 12 c 0
 436 12 439 12 442 12 c 0
 563 12 625 111 639 215 c 0
 640 222 640 285 640 346 c 0
 640 373 640 395 640 413 c 0
 640 475 639 484 628 493 c 0
 617 501 591 505 551 505 c 2
 536 505 l 1
 536 538 l 1
 546 538 l 1
 596 538 632 564 639 595 c 0
 642 604 649 605 655 605 c 0
 660 605 664 604 665 604 c 0
 722 604 732 547 732 536 c 0
 732 530 733 448 733 261 c 2
 733 -5 l 1
EndSplineSet
Validated: 1
EndChar

StartChar: arrowup
Encoding: 11 8593 7
Width: 44
Flags: HW
HStem: 367 41<73 80 520 527> 583 20G<296 304>
VStem: 280 41<-80 490>
LayerCount: 2
Fore
SplineSet
73 408 m 1
 183 428 263 503 300 604 c 1
 337 504 418 428 527 408 c 1
 527 387 l 2
 527 370 527 367 525 367 c 0
 524 367 415 382 330 480 c 2
 320 490 l 1
 320 207 l 2
 320 -66 320 -77 318 -80 c 0
 315 -87 308 -92 300 -92 c 0
 294 -92 283 -87 280 -80 c 0
 279 -79 279 -77 279 -65 c 0
 279 -41 280 25 280 207 c 2
 280 490 l 1
 270 480 l 2
 186 383 78 367 75 367 c 0
 73 367 73 370 73 387 c 2
 73 408 l 1
EndSplineSet
Validated: 1
EndChar

StartChar: arrowdown
Encoding: 12 8595 8
Width: 554
Flags: HW
LayerCount: 2
Fore
SplineSet
290 602 m 0
 293 603 295 604 298 604 c 0
 306 604 313 600 316 593 c 0
 318 589 318 578 318 305 c 2
 318 22 l 1
 328 32 l 2
 369 79 423 116 483 135 c 0
 496 139 520 145 523 145 c 0
 525 145 525 142 525 125 c 2
 525 104 l 1
 518 103 l 2
 515 102 506 100 500 98 c 0
 428 79 367 31 327 -32 c 0
 318 -46 306 -69 302 -82 c 0
 300 -87 298 -91 298 -91 c 1
 298 -91 296 -87 294 -82 c 0
 290 -69 278 -46 269 -32 c 0
 229 31 168 79 96 98 c 0
 90 100 81 102 78 103 c 2
 71 104 l 1
 71 125 l 2
 71 142 71 145 73 145 c 0
 76 145 100 139 113 135 c 0
 173 116 227 79 268 32 c 2
 278 22 l 1
 278 305 l 2
 278 558 278 588 280 592 c 0
 282 597 285 600 290 602 c 0
EndSplineSet
Validated: 1
EndChar

StartChar: uni030D
Encoding: 13 781 9
Width: 331
Flags: HW
LayerCount: 2
Fore
SplineSet
176 623 m 0
 180 624 185 624 190 624 c 0
 208 624 225 615 232 600 c 0
 235 594 237 586 237 579 c 0
 237 576 204 372 201 359 c 1
 201 356 l 1
 189 356 l 1
 177 356 l 1
 177 359 l 1
 174 372 140 576 140 579 c 0
 140 601 154 618 176 623 c 0
EndSplineSet
Validated: 1
EndChar

StartChar: exclamdown
Encoding: 14 161 10
Width: 78
Flags: HW
HStem: 296 110<177 263>
VStem: 165 110<-211 27 307 394>
LayerCount: 2
Fore
SplineSet
165 351 m 0
 165 381 190 406 221 406 c 0
 245 406 275 385 275 351 c 0
 275 318 247 296 221 296 c 0
 191 296 165 318 165 351 c 0
220 -221 m 0
 188 -221 165 -198 165 -172 c 0
 165 -164 206 201 207 206 c 0
 208 208 208 213 219 213 c 0
 230 213 232 208 233 206 c 0
 234 201 275 -164 275 -172 c 0
 275 -199 249 -221 220 -221 c 0
EndSplineSet
Validated: 1
EndChar

StartChar: questiondown
Encoding: 15 191 11
Width: 580
Flags: HW
HStem: -221 25<251 398> -131 95<427 474> 189 24<273 346> 296 110<272 359>
VStem: 146 42<-148 -57> 261 110<307 394> 357 44<119 185> 474 41<-147 -69>
LayerCount: 2
Fore
SplineSet
261 351 m 0xfd
 261 381 286 406 317 406 c 0
 341 406 370 385 370 351 c 0
 370 318 343 296 317 296 c 0
 287 296 261 318 261 351 c 0xfd
243 136 m 0
 243 123 237 123 231 123 c 0
 220 123 216 129 216 137 c 0
 216 152 228 173 235 181 c 0
 248 195 277 213 311 213 c 0
 380 213 401 161 401 130 c 0
 401 80 368 63 297 11 c 0
 222 -42 188 -59 188 -105 c 0
 188 -123 207 -199 318 -199 c 0
 434 -199 474 -133 474 -131 c 0
 474 -130 471 -131 468 -131 c 0
 440 -131 419 -111 419 -84 c 0
 419 -53 444 -36 468 -36 c 0
 494 -36 515 -54 515 -84 c 0
 515 -167 426 -221 316 -221 c 0
 235 -221 165 -178 146 -110 c 0
 145 -107 145 -104 145 -102 c 0
 145 -97 146 -93 146 -82 c 0
 146 -29 176 -5 186 8 c 1
 186 8 348 127 349 129 c 0
 355 136 357 142 357 152 c 0xfb
 357 183 330 189 314 189 c 0
 287 189 247 173 243 136 c 0
EndSplineSet
Validated: 1
EndChar

StartChar: grave
Encoding: 18 96 12
Width: 423
Flags: HW
LayerCount: 2
Fore
SplineSet
151 607 m 0
 152 607 154 608 156 608 c 0
 161 608 167 607 171 605 c 0
 176 603 176 602 248 552 c 2
 311 508 l 1
 305 496 l 2
 302 490 299 484 298 484 c 0
 297 484 144 538 140 540 c 0
 135 543 129 549 126 554 c 0
 124 558 124 560 124 569 c 0
 124 578 124 580 127 586 c 0
 132 597 141 605 151 607 c 0
EndSplineSet
Validated: 1
EndChar

StartChar: acute
Encoding: 19 180 13
Width: 385
Flags: HW
LayerCount: 2
Fore
SplineSet
257 607 m 1
 259 607 262 608 264 608 c 0
 277 608 289 600 295 586 c 0
 298 580 299 578 299 569 c 0
 299 560 298 558 296 554 c 0
 293 549 287 543 282 540 c 0
 278 538 125 484 124 484 c 0
 123 484 120 490 117 496 c 2
 111 508 l 1
 178 555 l 2
 215 581 246 603 248 604 c 0
 251 605 255 606 257 607 c 1
EndSplineSet
Validated: 1
EndChar

StartChar: uni030C
Encoding: 20 780 14
Width: 473
Flags: HW
HStem: 489 54<211 288>
VStem: 108 263
LayerCount: 2
Fore
SplineSet
112 564 m 0
 115 573 117 575 118 575 c 0
 119 574 l 1
 120 574 148 567 180 559 c 2
 239 544 l 2
 240 544 268 551 301 560 c 2
 362 575 l 1
 363 574 371 552 371 551 c 0
 371 550 242 489 240 489 c 0
 237 489 108 550 108 551 c 0
 108 552 110 557 112 564 c 0
EndSplineSet
Validated: 1
EndChar

StartChar: uni0306
Encoding: 21 774 15
Width: 533
Flags: HW
LayerCount: 2
Fore
SplineSet
127 597 m 2
 127 604 l 1
 139 604 l 1
 151 604 l 1
 151 598 l 1
 153 585 159 572 169 564 c 0
 177 558 193 550 205 547 c 0
 225 541 253 538 281 538 c 0
 309 538 338 541 358 547 c 0
 370 550 386 558 394 564 c 0
 404 572 410 585 412 598 c 1
 412 604 l 1
 424 604 l 1
 436 604 l 1
 436 597 l 2
 434 575 424 557 408 541 c 0
 380 513 332 498 282 498 c 0
 258 498 233 501 210 509 c 0
 161 525 131 557 127 597 c 2
EndSplineSet
Validated: 1
EndChar

StartChar: bar
Encoding: 22 772 16
Width: 548
Flags: HW
LayerCount: 2
Fore
SplineSet
107 545 m 1
 107 561 l 1
 292 561 l 1
 476 561 l 1
 476 545 l 1
 476 528 l 1
 292 528 l 1
 107 528 l 1
 107 545 l 1
EndSplineSet
Validated: 1
EndChar

StartChar: uni030A
Encoding: 23 778 17
Width: 608
Flags: HW
LayerCount: 2
Fore
SplineSet
202 626 m 0
 205 626 210 626 216 626 c 0
 229 626 247 626 255 625 c 0
 284 619 309 604 318 588 c 0
 321 582 322 580 322 572 c 0
 322 564 321 563 318 557 c 0
 309 541 284 526 254 520 c 0
 247 519 235 519 223 519 c 0
 211 519 200 519 193 520 c 0
 163 526 138 541 129 557 c 0
 126 563 126 564 126 572 c 0
 126 580 126 582 129 588 c 0
 139 606 167 622 202 626 c 0
265 601 m 0
 258 602 230 603 210 603 c 0
 202 603 195 602 191 602 c 0
 169 599 158 593 153 582 c 0
 152 579 152 576 152 573 c 0
 152 563 158 554 169 549 c 0
 180 543 188 543 224 543 c 0
 251 543 258 543 264 544 c 0
 274 546 282 550 287 554 c 1
 291 559 296 566 296 572 c 0
 296 578 291 586 287 591 c 1
 282 595 274 599 265 601 c 0
EndSplineSet
Validated: 1
EndChar

StartChar: uni0327
Encoding: 24 807 18
Width: 417
Flags: HW
LayerCount: 2
Fore
SplineSet
185 -47 m 1
 185 -23 l 1
 221 -23 l 1
 257 -23 l 1
 257 -39 l 1
 257 -55 l 1
 269 -57 l 2
 306 -66 331 -84 339 -108 c 0
 341 -113 342 -122 342 -130 c 0
 342 -134 342 -138 341 -141 c 0
 339 -151 333 -162 325 -169 c 0
 313 -181 297 -190 272 -196 c 0
 243 -204 210 -207 161 -208 c 2
 113 -208 l 1
 100 -209 l 1
 100 -198 l 1
 100 -185 l 1
 104 -185 l 1
 106 -184 119 -184 133 -184 c 0
 212 -184 254 -173 266 -146 c 0
 269 -140 270 -139 270 -128 c 0
 270 -118 269 -117 266 -110 c 0
 257 -92 234 -78 203 -74 c 0
 198 -73 192 -73 189 -73 c 2
 185 -73 l 1
 185 -47 l 1
EndSplineSet
Validated: 1
EndChar

StartChar: uni204A
Encoding: 25 8266 19
Width: 687
Flags: HW
HStem: 351 72<146 449>
VStem: 421 31<-203 -98>
LayerCount: 2
Fore
SplineSet
152 440 m 1
 152 441 153 441 154 441 c 1
 161 438 207 431 234 428 c 0
 274 423 291 423 344 423 c 0
 397 423 413 423 454 428 c 0
 480 431 526 438 533 441 c 1
 535 441 535 440 535 430 c 0
 535 420 528 366 494 109 c 0
 470 -61 451 -203 451 -203 c 1
 449 -208 445 -210 437 -210 c 0
 425 -210 421 -205 421 -199 c 0
 421 -191 425 -148 458 94 c 2
 498 388 l 1
 484 383 l 2
 415 363 342 351 270 351 c 0
 236 351 203 353 170 358 c 0
 146 361 126 366 126 367 c 0
 126 368 132 384 139 403 c 0
 145 422 151 439 152 440 c 1
EndSplineSet
Validated: 1
EndChar

StartChar: uni0307
Encoding: 26 775 20
Width: 343
Flags: HW
LayerCount: 2
Fore
SplineSet
174 683 m 0
 179 684 183 685 188 685 c 0
 202 685 214 680 225 669 c 0
 236 659 242 645 242 631 c 0
 242 616 236 602 225 592 c 0
 214 581 201 576 187 576 c 0
 173 576 159 581 148 592 c 0
 137 602 132 616 132 631 c 0
 132 640 133 645 138 654 c 0
 144 667 159 680 174 683 c 0
EndSplineSet
Validated: 1
EndChar

StartChar: aacute
Encoding: 27 225 21
Width: 646
Flags: HW
HStem: -12 61<257 347>
LayerCount: 2
Fore
SplineSet
445 714 m 0
 460 714 481 699 481 677 c 0
 481 671 481 662 471 652 c 0
 466 647 298 533 280 521 c 1
 272 531 l 2
 268 536 264 541 264 542 c 2
 419 702 l 2
 425 708 429 714 445 714 c 0
448 125 m 1
 406 83 362 -12 285 -12 c 0
 283 -12 282 -12 280 -12 c 0
 256 -12 208 -8 157 112 c 0
 153 119 151 126 150 126 c 0
 149 126 90 35 88 33 c 0
 85 29 79 26 74 25 c 0
 73 25 72 24 71 24 c 0
 65 24 61 28 61 32 c 0
 61 36 335 466 340 470 c 1
 348 474 l 2
 350 474 354 475 359 475 c 0
 366 474 369 473 373 468 c 0
 377 464 539 9 539 8 c 0
 539 0 530 -2 526 -2 c 0
 513 -2 513 2 496 32 c 1
 491 44 476 70 466 89 c 2
 448 125 l 1
422 171 m 1
 368 273 339 337 324 381 c 1
 319 392 l 1
 189 187 l 1
 195 171 l 1
 234 84 265 49 311 49 c 0
 373 49 403 113 429 139 c 1
 436 147 l 1
 422 171 l 1
EndSplineSet
Validated: 1
EndChar

StartChar: eacute
Encoding: 28 233 22
Width: 729
Flags: HW
HStem: -11 27<271 385> 237 23<193 434 503 559> 434 25<267 364>
VStem: 106 86<121 236 259 271 306 329> 434 69<259 361>
LayerCount: 2
Fore
SplineSet
292 458 m 0
 297 459 304 459 311 459 c 0
 326 459 345 456 360 453 c 0
 395 446 424 433 448 409 c 0
 481 375 503 329 503 269 c 1
 503 259 l 1
 532 259 l 1
 559 259 l 1
 559 248 l 1
 559 237 l 1
 376 237 l 1
 192 237 l 1
 192 220 l 2
 192 131 211 74 252 41 c 0
 274 24 296 15 322 15 c 0
 333 15 345 16 357 19 c 0
 413 31 459 71 475 120 c 0
 478 131 482 134 490 134 c 0
 495 134 496 134 499 131 c 0
 502 129 503 127 503 124 c 0
 503 121 502 117 499 110 c 0
 484 67 452 32 408 10 c 0
 379 -3 343 -11 311 -11 c 0
 307 -11 306 -11 302 -11 c 0
 293 -11 l 0
 249 -6 211 13 178 45 c 0
 165 58 157 68 147 84 c 0
 127 116 112 149 106 191 c 0
 106 193 105 197 105 201 c 0
 105 208 106 216 106 226 c 0
 106 236 105 246 105 253 c 0
 105 257 106 260 106 262 c 0
 118 342 166 408 233 440 c 0
 251 449 270 455 292 458 c 0
338 434 m 0
 336 434 331 435 327 435 c 0
 321 435 322 436 315 436 c 0
 312 436 301 434 299 434 c 0
 260 428 224 393 208 346 c 0
 203 334 200 319 198 306 c 0
 196 295 193 270 193 264 c 2
 193 259 l 1
 314 259 l 1
 434 259 l 1
 434 273 l 1
 434 336 412 385 381 411 c 0
 369 421 354 430 338 434 c 0
390 713 m 0
 392 714 396 714 399 714 c 0
 405 714 411 713 416 711 c 0
 423 707 430 699 434 691 c 0
 435 689 435 688 435 687 c 0
 435 684 434 682 434 677 c 0
 434 672 435 669 435 667 c 0
 435 665 435 664 434 663 c 2
 427 652 l 1
 330 585 l 2
 256 535 238 522 235 522 c 1
 235 523 231 527 227 532 c 2
 219 541 l 1
 222 544 l 1
 240 564 380 707 383 709 c 0
 385 710 388 712 390 713 c 0
EndSplineSet
Validated: 1
EndChar

StartChar: iacute
Encoding: 29 237 23
Width: 465
Flags: HW
HStem: 0 22G<234 274> 351 33<131 182> 432 20G<217 238>
VStem: 210 69<6 160 160 327>
LayerCount: 2
Fore
SplineSet
317 711 m 0
 323 714 325 714 333 714 c 1
 340 713 343 713 347 711 c 0
 354 707 361 699 364 691 c 0
 367 685 368 683 368 677 c 0
 368 667 365 659 358 652 c 1
 354 649 171 522 169 521 c 1
 168 521 163 526 158 531 c 2
 150 542 l 1
 218 611 l 2
 314 710 310 708 317 711 c 0
217 449 m 1
 222 453 l 1
 232 453 l 2
 244 452 251 449 258 442 c 0
 267 433 272 420 276 400 c 0
 277 390 278 379 278 198 c 2
 278 6 l 1
 274 3 l 1
 271 0 l 1
 244 0 l 2
 224 0 218 0 216 2 c 1
 210 5 210 -6 210 160 c 0
 210 242 210 312 209 316 c 0
 205 343 193 349 150 351 c 2
 131 351 l 1
 131 368 l 1
 131 384 l 1
 138 384 l 2
 173 387 201 408 208 437 c 0
 209 441 210 444 211 444 c 1
 217 449 l 1
EndSplineSet
Validated: 1
EndChar

StartChar: oacute
Encoding: 30 243 24
Width: 721
Flags: HW
HStem: -10 26<270 379> 435 24<272 378>
VStem: 98 86<121 320> 465 86<122 322>
LayerCount: 2
Fore
SplineSet
343 435 m 0
 341 435 339 435 337 435 c 0
 334 435 330 435 326 435 c 0
 300 435 275 428 253 414 c 0
 213 389 192 348 186 288 c 0
 185 279 184 252 184 228 c 0
 184 211 185 194 185 185 c 0
 185 120 203 81 235 51 c 0
 260 26 292 15 325 15 c 0
 357 15 388 26 414 51 c 0
 446 81 465 120 465 185 c 0
 465 194 465 211 465 228 c 0
 465 244 466 261 466 273 c 0
 466 279 465 285 465 288 c 0
 462 317 453 342 443 361 c 0
 424 401 387 428 343 435 c 0
299 457 m 0
 307 458 317 459 325 459 c 0
 381 459 438 435 480 393 c 0
 486 387 495 378 498 373 c 0
 533 329 551 274 551 220 c 0
 551 204 549 188 546 172 c 0
 530 86 464 18 378 -4 c 0
 359 -9 348 -10 325 -10 c 0
 301 -10 290 -9 271 -4 c 0
 169 22 98 113 98 219 c 0
 98 265 112 315 138 353 c 0
 176 411 232 449 299 457 c 0
402 712 m 0
 404 713 409 714 413 714 c 0
 419 714 421 714 427 710 c 0
 435 706 442 699 446 691 c 0
 448 686 449 684 449 677 c 0
 449 666 447 660 440 653 c 0
 435 648 249 522 247 522 c 1
 247 522 243 527 239 531 c 2
 231 541 l 1
 237 548 l 1
 394 709 l 2
 396 710 400 712 402 712 c 0
EndSplineSet
Validated: 1
EndChar

StartChar: uacute
Encoding: 31 250 25
Width: 713
Flags: HW
HStem: -10 23<271 361> 351 33<81 132 392 444> 432 20G<168 188 479 499>
VStem: 161 72<44 211 211 326> 474 70<-5 114 114 318>
LayerCount: 2
Fore
SplineSet
168 449 m 1
 173 453 l 1
 183 453 l 2
 192 452 195 452 200 450 c 0
 216 442 231 420 231 388 c 0
 231 381 232 334 232 239 c 0
 232 96 232 84 236 68 c 0
 243 38 264 20 302 14 c 0
 310 13 322 12 333 12 c 0
 345 12 355 13 361 14 c 0
 379 19 394 28 409 41 c 0
 444 76 471 135 471 215 c 0
 471 225 474 247 474 270 c 0
 474 292 472 311 471 316 c 0
 467 343 455 351 410 351 c 1
 392 351 l 1
 392 368 l 1
 392 384 l 1
 400 384 l 1
 434 384 463 408 470 437 c 0
 471 441 473 445 474 445 c 1
 474 445 476 447 479 449 c 2
 484 453 l 1
 494 453 l 2
 503 452 507 452 511 450 c 0
 528 442 543 419 543 387 c 0
 543 379 544 322 544 185 c 2
 544 -5 l 1
 540 -10 l 1
 536 -10 l 1
 509 -10 l 1
 482 -10 l 1
 479 -10 l 1
 474 -5 l 1
 474 55 l 2
 474 88 474 114 474 114 c 1
 474 110 462 82 459 75 c 0
 436 29 403 -1 361 -10 c 0
 359 -10 357 -11 354 -11 c 0
 349 -11 342 -10 328 -10 c 0
 301 -10 285 -9 269 -6 c 0
 236 1 213 12 195 30 c 0
 180 44 173 57 167 80 c 0
 161 99 161 105 161 211 c 0
 161 247 161 280 161 299 c 0
 161 309 161 315 161 316 c 0
 157 343 144 351 99 351 c 1
 81 351 l 1
 81 368 l 1
 81 384 l 1
 89 384 l 1
 123 384 154 408 161 437 c 0
 162 441 160 444 161 444 c 1
 168 449 l 1
413 712 m 0
 418 714 420 714 427 714 c 0
 434 713 436 713 441 710 c 0
 448 706 456 699 459 691 c 0
 462 685 463 683 463 677 c 0
 463 667 459 659 452 652 c 0
 449 649 265 523 262 521 c 0
 261 521 247 538 246 541 c 0
 246 543 272 571 323 623 c 2
 404 707 l 2
 406 708 410 710 413 712 c 0
EndSplineSet
Validated: 1
EndChar

StartChar: uni1E57
Encoding: 32 7767 26
Width: 779
Flags: HW
HStem: -199 22G<176 222> -10 24<381 461> 351 33<75 126> 426 26<318 423> 577 109<330 417>
VStem: 157 70<-193 262> 307 27<77 117 117 125> 523 86<110 319>
LayerCount: 2
Fore
SplineSet
360 683 m 0
 364 684 370 685 374 685 c 0
 403 685 428 661 428 631 c 0
 428 599 404 577 374 577 c 0
 371 577 368 577 365 577 c 0
 363 577 361 577 360 577 c 0
 343 581 328 594 321 612 c 0
 319 618 319 621 319 631 c 0
 319 640 319 642 321 648 c 0
 328 666 343 679 360 683 c 0
162 449 m 1
 167 453 l 1
 177 453 l 1
 189 453 196 449 203 442 c 0
 216 429 223 409 223 372 c 1
 223 351 l 1
 229 361 l 2
 251 396 274 421 307 436 c 0
 320 442 333 447 348 450 c 0
 356 452 370 453 383 453 c 0
 391 453 398 453 404 453 c 0
 407 453 411 453 413 453 c 0
 452 446 488 429 518 406 c 0
 528 399 549 378 557 368 c 0
 567 356 578 339 586 324 c 0
 601 291 609 263 609 228 c 0
 609 219 l 0
 609 162 592 106 561 62 c 0
 552 49 527 24 515 16 c 0
 497 4 475 -6 456 -10 c 0
 454 -10 451 -11 448 -11 c 0
 442 -11 436 -10 430 -10 c 0
 423 -10 417 -11 411 -11 c 0
 408 -11 405 -10 403 -10 c 0
 391 -7 380 -3 370 3 c 0
 350 12 329 17 307 17 c 0
 297 17 285 16 275 14 c 0
 271 13 267 13 265 13 c 0
 259 13 258 16 255 24 c 0
 253 29 252 32 252 35 c 0
 252 39 254 41 258 43 c 0
 265 47 274 54 280 60 c 0
 296 75 307 94 307 117 c 0
 307 124 308 126 310 128 c 0
 312 131 314 131 319 131 c 0
 326 131 331 129 333 125 c 1
 333 124 334 118 334 112 c 0
 334 61 362 25 404 15 c 0
 411 14 420 13 427 13 c 0
 434 13 442 14 446 15 c 0
 479 27 510 89 519 162 c 0
 522 180 523 199 523 217 c 0
 523 241 521 264 516 282 c 0
 501 351 458 405 406 421 c 0
 395 424 384 426 373 426 c 0
 346 426 320 416 298 401 c 0
 256 370 224 320 224 259 c 0
 224 251 224 248 224 246 c 0
 224 245 224 245 224 244 c 0
 226 240 226 220 226 24 c 2
 226 -193 l 1
 222 -196 l 1
 219 -199 l 1
 191 -199 l 2
 160 -199 159 -199 157 -193 c 1
 156 -192 156 -188 156 -175 c 0
 156 -149 157 -87 157 60 c 0
 157 197 154 312 153 316 c 0
 149 343 138 351 93 351 c 1
 75 351 l 1
 75 368 l 1
 75 384 l 1
 83 384 l 1
 117 384 145 408 152 437 c 0
 153 441 156 444 157 444 c 1
 162 449 l 1
EndSplineSet
Validated: 1
EndChar

StartChar: exclam
Encoding: 33 33 27
Width: 353
Flags: HW
VStem: 156 110<12 93 379 616>
LayerCount: 2
Fore
SplineSet
196 625 m 0
 201 626 206 627 211 627 c 0
 230 627 247 618 257 603 c 0
 262 595 266 586 266 578 c 0
 266 570 225 205 224 200 c 0
 223 195 218 193 210 193 c 0
 203 193 199 195 198 200 c 0
 197 205 156 570 156 578 c 0
 156 600 172 619 196 625 c 0
198 108 m 0
 203 109 207 109 212 109 c 0
 226 109 238 104 249 93 c 0
 260 83 266 69 266 55 c 0
 266 40 260 26 249 16 c 0
 238 5 225 0 211 0 c 0
 197 0 183 5 172 16 c 0
 161 26 156 40 156 55 c 0
 156 64 157 70 162 79 c 0
 168 92 183 105 198 108 c 0
EndSplineSet
Validated: 1
EndChar

StartChar: quotedbl
Encoding: 34 34 28
Width: 625
Flags: HW
LayerCount: 2
Fore
SplineSet
188 602 m 0
 193 603 197 604 202 604 c 0
 218 604 233 598 244 585 c 0
 251 578 259 563 263 551 c 0
 268 535 271 517 271 497 c 0
 271 476 268 454 263 432 c 0
 258 413 253 400 244 382 c 0
 230 353 216 335 196 312 c 0
 184 300 179 296 174 296 c 0
 171 296 169 297 166 300 c 1
 163 304 162 305 162 308 c 0
 162 312 163 314 173 324 c 0
 195 346 210 365 223 391 c 0
 234 414 241 437 245 463 c 0
 246 474 247 493 247 504 c 0
 247 506 247 509 247 510 c 2
 246 515 l 1
 240 510 l 2
 229 500 215 495 201 495 c 0
 192 495 182 497 174 502 c 0
 158 510 147 530 147 549 c 0
 147 575 163 597 188 602 c 0
386 602 m 0
 391 603 396 604 401 604 c 0
 417 604 432 598 443 585 c 0
 450 578 457 563 461 551 c 0
 466 535 469 517 469 497 c 0
 469 476 466 454 461 432 c 0
 456 413 452 400 443 382 c 0
 429 353 415 335 395 312 c 0
 383 300 378 296 373 296 c 0
 370 296 368 297 365 300 c 1
 362 304 361 305 361 308 c 0
 361 312 362 314 372 324 c 0
 394 346 408 365 421 391 c 0
 432 414 440 437 444 463 c 0
 445 474 446 493 446 504 c 0
 446 506 446 509 446 510 c 2
 445 515 l 1
 439 510 l 2
 428 500 413 495 399 495 c 0
 384 495 371 500 361 511 c 0
 351 521 345 535 345 549 c 0
 345 563 351 578 361 588 c 0
 367 595 377 600 386 602 c 0
EndSplineSet
Validated: 1
EndChar

StartChar: numbersign
Encoding: 35 35 29
Width: -18
Flags: HW
HStem: 136 41<56 225 284 460 520 764> 335 41<54 296 356 532 591 762> 584 20G<400 413 634 649>
LayerCount: 2
Fore
SplineSet
38 355 m 0
 38 359 40 367 52 376 c 1
 182 377 l 1
 312 377 l 1
 351 485 l 2
 392 599 392 604 408 604 c 0
 418 604 428 595 428 584 c 0
 428 580 393 480 392 478 c 2
 356 377 l 1
 356 377 360 376 368 376 c 0
 384 376 415 377 452 377 c 2
 547 377 l 1
 586 485 l 2
 626 595 626 604 644 604 c 0
 654 604 664 595 664 584 c 0
 664 577 633 493 627 478 c 2
 591 377 l 1
 591 376 628 376 676 376 c 2
 762 376 l 1
 777 368 778 359 778 355 c 0
 778 337 766 335 723 335 c 0
 709 335 691 335 669 335 c 2
 575 335 l 1
 573 326 569 318 545 249 c 2
 520 177 l 1
 641 177 l 2
 674 177 700 178 719 178 c 0
 767 178 778 175 778 157 c 0
 778 146 766 137 764 136 c 1
 634 136 l 1
 504 136 l 1
 465 28 l 2
 426 -83 426 -92 408 -92 c 0
 397 -92 388 -83 388 -71 c 1
 389 -68 400 -29 424 34 c 2
 460 136 l 1
 460 136 456 137 448 137 c 0
 432 137 401 136 364 136 c 2
 269 136 l 1
 230 28 l 2
 191 -83 190 -92 172 -92 c 0
 161 -92 152 -83 152 -71 c 1
 153 -68 165 -29 189 34 c 2
 225 136 l 1
 225 136 220 137 213 137 c 0
 199 137 172 136 140 136 c 2
 54 136 l 1
 40 143 39 151 39 155 c 0
 39 156 39 157 39 157 c 0
 39 173 50 175 56 177 c 1
 241 177 l 1
 243 186 247 194 271 263 c 2
 296 335 l 1
 175 335 l 1
 54 335 l 1
 46 338 38 344 38 355 c 0
477 177 m 1
 477 179 529 328 532 335 c 1
 339 335 l 1
 337 326 334 318 310 249 c 2
 284 177 l 1
 380 177 l 1
 477 177 l 1
EndSplineSet
Validated: 1
EndChar

StartChar: sterling
Encoding: 36 163 30
Width: 675
Flags: HW
HStem: 286 33<188 270 342 452> 406 95<530 583>
VStem: 270 72<112 286 318 531> 583 34<500 525> 620 27<78 127>
LayerCount: 2
Fore
SplineSet
425 616 m 0
 432 617 439 618 446 618 c 0
 520 618 586 573 609 505 c 0
 615 489 618 470 618 455 c 0
 618 451 618 446 617 443 c 0
 613 420 594 406 571 406 c 0
 543 406 523 427 523 452 c 0
 523 460 525 468 529 476 c 0
 536 492 553 501 571 501 c 0
 572 501 573 501 574 501 c 1
 579 500 583 500 583 500 c 1
 583 502 576 516 573 521 c 0
 553 557 518 582 477 591 c 0
 469 593 458 593 447 593 c 0
 438 593 430 593 425 592 c 0
 387 583 360 555 349 517 c 0
 343 493 342 481 342 393 c 2
 342 318 l 1
 395 318 l 2
 435 318 450 318 452 317 c 0
 456 315 457 311 457 302 c 0
 457 293 456 289 452 287 c 0
 450 286 435 286 395 286 c 2
 342 286 l 1
 342 209 l 2
 341 133 340 131 338 122 c 0
 332 97 329 94 329 91 c 0
 329 89 341 85 388 65 c 0
 436 46 464 37 498 35 c 0
 502 35 505 34 509 34 c 0
 549 34 585 50 605 75 c 0
 614 88 619 100 620 116 c 0
 620 123 621 125 623 127 c 0
 626 130 627 130 633 130 c 0
 640 130 641 130 644 127 c 0
 647 124 647 123 647 118 c 0
 647 90 633 60 613 37 c 0
 594 17 562 -2 532 -7 c 0
 520 -9 507 -11 494 -11 c 0
 475 -11 455 -8 433 -2 c 0
 407 4 385 12 330 36 c 2
 302 48 l 1
 290 38 l 2
 258 7 210 -11 163 -11 c 0
 156 -11 150 -11 143 -10 c 0
 104 -6 77 9 77 39 c 0
 77 61 89 83 108 96 c 0
 122 106 142 114 164 118 c 0
 173 120 181 120 199 120 c 0
 223 120 232 119 255 114 c 0
 261 113 267 112 267 112 c 1
 269 114 270 145 270 211 c 2
 270 286 l 1
 229 286 l 1
 188 286 l 1
 185 289 l 2
 182 292 182 292 182 302 c 0
 182 312 182 312 185 315 c 2
 188 318 l 1
 229 318 l 1
 270 318 l 1
 270 396 l 2
 271 471 271 474 273 483 c 0
 281 520 301 552 329 575 c 0
 356 598 391 612 425 616 c 0
214 73 m 0
 204 75 193 75 183 75 c 0
 163 75 147 72 135 66 c 0
 123 60 116 50 116 40 c 0
 116 33 119 27 126 22 c 0
 135 16 148 12 162 12 c 0
 180 12 201 18 217 28 c 0
 230 36 243 49 250 61 c 0
 251 63 252 63 252 64 c 0
 252 65 251 65 250 66 c 0
 245 68 224 72 214 73 c 0
EndSplineSet
Validated: 1
EndChar

StartChar: percent
Encoding: 37 37 31
Width: 85
Flags: HW
HStem: -164 24<717 782> 279 24<717 782> 302 24<262 327> 622 24<482 630> 744 24<263 327>
VStem: 142 65<412 659> 398 26<432 638> 597 65<-54 192> 853 26<-34 172>
LayerCount: 2
Fore
SplineSet
275 767 m 0
 278 767 284 768 289 768 c 0
 298 768 308 767 314 765 c 0
 322 763 336 757 344 751 c 0
 348 749 360 737 371 726 c 0
 393 704 408 692 428 680 c 0
 457 663 488 652 524 647 c 0
 531 646 544 645 557 645 c 0
 570 645 583 646 590 647 c 0
 659 657 715 695 753 753 c 0
 760 762 761 763 766 766 c 0
 770 768 772 768 776 768 c 0
 787 768 795 754 795 744 c 1
 794 739 783 723 528 292 c 0
 295 -104 263 -158 259 -160 c 1
 256 -163 252 -164 249 -164 c 0
 246 -164 242 -163 239 -161 c 0
 234 -159 232 -158 230 -153 c 0
 228 -149 227 -146 227 -143 c 0
 227 -140 228 -137 229 -134 c 1
 231 -132 338 49 467 267 c 0
 596 486 701 666 701 666 c 1
 701 666 698 664 694 662 c 0
 686 656 663 644 651 640 c 0
 629 631 601 622 575 622 c 0
 557 622 l 0
 507 622 456 636 412 663 c 0
 408 666 403 668 403 667 c 1
 408 656 l 2
 415 634 424 610 424 583 c 0
 424 573 425 554 425 536 c 0
 425 518 424 497 424 487 c 0
 424 447 409 415 394 383 c 0
 367 330 333 302 293 302 c 0
 277 302 260 307 244 315 c 0
 193 341 153 408 142 492 c 0
 142 495 142 498 142 503 c 0
 142 512 142 524 142 536 c 0
 142 553 142 570 142 580 c 0
 142 607 154 631 162 653 c 0
 187 716 228 758 275 767 c 0
305 744 m 0
 304 744 302 744 301 744 c 0
 299 744 297 744 294 744 c 0
 286 744 278 742 272 739 c 0
 242 725 218 678 211 622 c 0
 207 596 207 584 207 536 c 0
 207 487 207 474 211 449 c 0
 220 381 250 332 286 327 c 0
 289 327 291 326 294 326 c 0
 322 326 350 349 370 391 c 0
 384 420 398 449 398 489 c 0
 398 499 398 518 398 535 c 0
 398 553 398 571 398 581 c 0
 398 621 384 650 370 679 c 0
 353 715 329 739 305 744 c 0
730 302 m 0
 732 302 734 302 736 302 c 0
 739 302 744 302 747 302 c 0
 787 302 822 274 849 221 c 0
 864 189 879 157 879 117 c 0
 879 107 880 88 880 70 c 0
 880 52 879 33 879 22 c 0
 879 -18 864 -51 849 -83 c 0
 822 -136 788 -164 748 -164 c 0
 732 -164 714 -159 698 -151 c 0
 647 -125 608 -58 597 26 c 0
 597 29 597 32 597 37 c 0
 597 46 597 58 597 70 c 0
 597 81 597 93 597 102 c 0
 597 107 597 111 597 114 c 0
 606 176 630 229 665 264 c 0
 683 282 707 297 730 302 c 0
760 279 m 0
 759 279 757 279 756 279 c 0
 754 279 752 279 749 279 c 0
 741 279 733 276 727 273 c 0
 697 259 673 213 666 157 c 0
 662 131 662 118 662 70 c 0
 662 21 662 8 666 -17 c 0
 675 -85 704 -134 740 -139 c 0
 743 -139 746 -140 749 -140 c 0
 777 -140 804 -117 824 -75 c 0
 838 -46 853 -16 853 24 c 0
 853 34 853 52 853 70 c 0
 853 87 853 105 853 115 c 0
 853 155 838 184 824 213 c 0
 807 249 784 274 760 279 c 0
EndSplineSet
Validated: 1
EndChar

StartChar: ampersand
Encoding: 38 38 32
Width: 77
Flags: HW
HStem: -22 23<386 579> 248 86<549 624> 316 24<283 376> 338 68<230 256> 414 23<318 374> 475 94<387 427> 518 86<678 724> 603 24<276 390>
VStem: 134 85<124 316> 149 72<406 548> 191 66<353 393> 380 95<482 563> 391 27<353 394> 504 27<296 374> 674 84<545 561 561 578> 760 27<158 301>
LayerCount: 2
Fore
SplineSet
357 411 m 0
 351 413 340 414 331 414 c 0
 326 414 321 414 318 414 c 0
 298 409 281 398 265 381 c 0
 259 375 256 372 256 370 c 0
 256 368 258 365 263 362 c 0
 282 348 309 338 334 338 c 0
 335 338 337 338 338 338 c 0
 363 338 379 351 388 365 c 0
 390 369 391 371 391 377 c 0xa82f
 391 383 390 385 388 389 c 0
 382 399 371 407 357 411 c 0
306 626 m 0
 309 626 317 627 325 627 c 0
 333 627 341 626 347 626 c 0
 392 626 433 604 455 579 c 0
 466 565 473 546 475 528 c 1
 475 517 474 509 470 500 c 0
 462 485 445 475 428 475 c 0
 420 475 412 477 405 481 c 0
 390 488 380 505 380 522 c 0
 380 547 395 565 420 569 c 1
 427 571 l 1
 420 577 l 1
 397 593 361 603 325 603 c 0
 295 603 269 592 249 570 c 0
 237 558 229 543 225 525 c 1
 220 509 220 498 220 471 c 0
 220 451 220 443 222 434 c 0
 224 421 230 406 231 406 c 0
 232 406 235 408 238 410 c 0
 248 416 270 426 282 429 c 0
 298 434 309 436 324 436 c 0
 326 436 330 436 333 436 c 0
 349 436 352 436 362 434 c 0
 391 426 410 410 416 388 c 0
 417 384 418 381 418 377 c 0
 418 362 405 344 391 334 c 0
 383 329 372 322 362 319 c 0
 354 317 343 316 332 316 c 0
 304 316 272 323 246 335 c 0
 242 337 238 338 238 338 c 2
 237 338 235 332 233 326 c 0
 225 300 219 272 219 229 c 0
 219 224 219 220 219 215 c 0
 219 184 223 167 230 144 c 0
 239 114 257 86 279 68 c 1
 316 35 365 13 420 5 c 0
 437 3 458 0 478 0 c 0
 514 0 553 5 584 13 c 0
 662 32 716 76 742 143 c 0
 754 174 760 206 760 243 c 0
 760 255 761 261 761 266 c 0
 761 268 761 270 760 272 c 0
 757 284 751 295 744 306 c 0
 732 323 723 333 684 367 c 0
 675 375 662 388 654 395 c 1
 640 410 l 1
 633 407 l 2
 630 406 615 401 603 397 c 0
 565 387 556 383 545 375 c 0
 539 371 535 365 532 359 c 0
 531 355 531 352 531 342 c 0
 531 327 533 317 539 304 c 2
 543 296 l 1
 545 302 l 2
 548 314 555 324 565 329 c 0
 572 332 580 334 587 334 c 0
 602 334 618 325 625 310 c 0
 628 304 630 297 630 291 c 0
 630 285 628 277 625 271 c 0
 618 256 603 248 586 248 c 0
 583 248 579 248 575 248 c 0
 573 248 572 248 570 248 c 0
 545 254 526 271 514 296 c 0
 506 312 504 324 504 342 c 0
 504 345 504 348 504 350 c 0
 504 359 505 365 510 373 c 0
 519 391 538 402 576 414 c 0
 586 417 603 425 613 428 c 1
 698 479 l 1
 707 489 715 502 721 513 c 2
 724 518 l 1
 718 518 l 2
 717 518 717 518 716 518 c 0
 700 518 680 530 674 545 c 0
 674 546 674 548 674 550 c 0
 674 553 674 557 674 561 c 0
 674 565 674 569 674 573 c 0
 674 575 674 577 674 578 c 0
 680 594 700 603 717 603 c 0
 720 603 724 604 727 603 c 0
 740 599 751 590 756 578 c 0
 758 573 760 570 760 558 c 0
 760 521 742 484 710 453 c 0
 698 441 687 435 674 427 c 0
 669 424 666 422 666 422 c 1
 666 420 689 397 709 380 c 1
 747 345 763 328 773 306 c 1
 783 287 787 276 787 253 c 2
 787 244 l 2
 787 214 783 192 776 164 c 0
 767 132 750 100 732 77 c 0
 696 32 641 0 573 -13 c 0
 539 -20 518 -22 475 -22 c 0
 426 -22 396 -18 355 -8 c 0
 280 10 213 49 175 96 c 0
 156 121 140 148 134 177 c 0
 133 180 133 182 133 185 c 0
 133 190 134 197 134 210 c 0
 134 221 134 228 134 235 c 0
 134 238 134 242 134 245 c 0
 137 260 145 285 149 298 c 0
 157 320 173 346 185 362 c 0
 188 365 191 369 191 370 c 0
 192 371 190 373 186 378 c 0
 169 396 155 421 149 446 c 0
 149 448 148 451 148 454 c 0
 148 460 149 466 149 472 c 0
 149 478 148 484 148 490 c 0
 148 493 149 496 149 498 c 0
 152 511 157 522 164 536 c 0
 172 552 181 563 195 577 c 0
 211 593 228 604 251 612 c 1
 267 619 283 626 306 626 c 0
EndSplineSet
Validated: 1
EndChar

StartChar: quoteright
Encoding: 39 8217 33
Width: 344
Flags: HW
LayerCount: 2
Fore
SplineSet
188 602 m 0
 193 603 197 604 202 604 c 0
 218 604 233 598 244 585 c 0
 251 578 259 563 263 551 c 0
 268 535 271 517 271 497 c 0
 271 476 268 454 263 432 c 0
 258 413 253 400 244 382 c 0
 230 353 216 335 196 312 c 0
 184 300 179 296 174 296 c 0
 171 296 169 297 166 300 c 1
 163 304 162 305 162 308 c 0
 162 312 164 314 175 325 c 0
 182 332 190 341 194 346 c 0
 222 381 238 420 245 463 c 0
 246 474 248 493 248 504 c 0
 248 506 247 509 247 510 c 2
 246 515 l 1
 240 510 l 2
 229 500 216 495 202 495 c 0
 193 495 183 497 175 502 c 0
 159 510 147 530 147 549 c 0
 147 575 163 597 188 602 c 0
EndSplineSet
Validated: 1
EndChar

StartChar: parenleft
Encoding: 40 40 34
Width: 439
Flags: HW
VStem: 143 239
LayerCount: 2
Fore
SplineSet
356 762 m 0
 364 768 365 768 371 768 c 0
 375 768 377 768 379 765 c 0
 381 763 382 761 382 759 c 0
 382 755 381 753 366 737 c 0
 299 669 256 586 229 481 c 0
 212 413 204 335 204 256 c 0
 204 177 212 99 229 32 c 0
 256 -74 299 -157 366 -225 c 0
 381 -241 382 -243 382 -247 c 0
 382 -249 381 -251 379 -253 c 0
 377 -256 375 -256 371 -256 c 0
 365 -256 364 -256 356 -250 c 0
 323 -224 287 -185 261 -148 c 0
 184 -40 143 100 143 256 c 0
 143 412 184 552 261 660 c 0
 287 697 323 736 356 762 c 0
EndSplineSet
Validated: 1
EndChar

StartChar: parenright
Encoding: 41 41 35
Width: 533
Flags: HW
VStem: 75 239
LayerCount: 2
Fore
SplineSet
80 767 m 1
 81 767 86 768 88 768 c 0
 92 768 94 767 101 762 c 0
 134 736 170 697 196 660 c 0
 273 552 314 412 314 256 c 0
 314 100 273 -40 196 -148 c 0
 170 -185 134 -224 101 -250 c 0
 94 -255 92 -256 88 -256 c 0
 86 -256 82 -255 80 -255 c 1
 77 -253 75 -248 75 -244 c 1
 76 -243 84 -234 93 -225 c 0
 159 -157 202 -74 228 32 c 0
 245 99 253 177 253 256 c 0
 253 335 245 413 228 481 c 0
 202 586 159 669 93 737 c 0
 84 746 76 755 75 756 c 1
 75 760 77 765 80 767 c 1
EndSplineSet
Validated: 1
EndChar

StartChar: asterisk
Encoding: 42 42 36
Width: 700
Flags: HW
HStem: 523 48<304 315 340 351>
VStem: 299 56<330 523 571 767>
LayerCount: 2
Fore
SplineSet
320 767 m 1
 322 768 324 768 326 768 c 0
 334 768 343 764 348 759 c 1
 352 756 356 747 356 743 c 0
 356 741 347 702 347 656 c 0
 347 611 340 571 340 571 c 0
 341 571 355 580 408 620 c 0
 445 647 477 670 479 670 c 1
 482 671 485 672 488 672 c 0
 503 672 516 657 516 642 c 0
 516 640 516 637 515 635 c 0
 511 624 512 624 434 587 c 0
 395 569 362 552 358 551 c 1
 352 547 l 1
 428 511 l 2
 513 470 511 471 515 460 c 0
 516 458 516 455 516 453 c 0
 516 438 503 423 488 423 c 0
 485 423 482 424 479 425 c 1
 477 425 445 448 408 475 c 0
 355 515 341 523 340 523 c 0
 340 523 347 483 347 438 c 0
 347 392 356 353 356 351 c 0
 356 347 352 339 348 336 c 2
 347 334 343 332 341 330 c 1
 336 328 334 328 328 328 c 0
 321 328 319 328 315 330 c 0
 312 332 307 334 306 336 c 2
 302 339 299 347 299 351 c 0
 299 353 308 392 308 438 c 0
 308 483 315 523 315 523 c 0
 314 523 300 515 247 475 c 0
 210 448 178 425 176 425 c 1
 173 424 170 423 167 423 c 0
 152 423 139 438 139 453 c 0
 139 455 139 458 140 460 c 0
 144 471 142 470 227 511 c 2
 303 547 l 1
 299 551 l 1
 295 552 259 569 220 587 c 0
 142 624 144 624 140 635 c 0
 139 637 139 640 139 642 c 0
 139 657 152 672 167 672 c 0
 170 672 173 671 176 670 c 1
 178 670 210 647 247 620 c 0
 300 580 314 571 315 571 c 0
 315 571 308 611 308 656 c 0
 308 702 299 741 299 743 c 0
 299 747 302 756 306 759 c 2
 308 762 315 766 320 767 c 1
EndSplineSet
Validated: 1
EndChar

StartChar: plus
Encoding: 43 43 37
Width: 810
Flags: HW
HStem: 236 41<40 346 387 692>
VStem: 346 41<-70 236 276 582>
LayerCount: 2
Fore
SplineSet
357 595 m 1
 360 596 363 597 366 597 c 0
 373 597 381 593 385 586 c 2
 387 582 l 1
 387 429 l 1
 387 276 l 1
 539 276 l 1
 692 276 l 1
 696 274 l 2
 699 272 702 269 704 267 c 1
 706 263 707 262 707 256 c 0
 707 250 706 249 704 245 c 1
 702 243 699 240 696 238 c 2
 692 236 l 1
 539 236 l 1
 387 236 l 1
 387 83 l 1
 387 -70 l 1
 385 -74 l 2
 383 -77 380 -80 378 -81 c 0
 374 -84 372 -84 366 -84 c 0
 360 -84 359 -84 355 -81 c 0
 353 -80 350 -77 348 -74 c 2
 346 -70 l 1
 346 83 l 1
 346 236 l 1
 193 236 l 1
 40 236 l 1
 36 238 l 2
 33 240 29 243 28 245 c 0
 25 249 25 250 25 256 c 0
 25 262 25 263 28 267 c 0
 29 269 33 272 36 274 c 2
 40 276 l 1
 193 276 l 1
 346 276 l 1
 346 430 l 1
 347 584 l 1
 350 588 l 2
 351 590 355 593 357 595 c 1
EndSplineSet
Validated: 1
EndChar

StartChar: comma
Encoding: 44 44 38
Width: 470
Flags: HW
HStem: 2 105<166 254>
VStem: 157 119<18 89>
LayerCount: 2
Fore
SplineSet
198 108 m 0
 202 109 206 109 211 109 c 0
 216 109 221 109 225 108 c 0
 252 102 268 78 276 36 c 0
 277 29 277 16 277 2 c 0
 277 -12 277 -26 276 -34 c 0
 267 -93 242 -144 202 -186 c 0
 193 -195 189 -199 185 -199 c 0
 182 -199 179 -198 176 -195 c 1
 173 -191 172 -189 172 -186 c 0
 172 -182 174 -181 183 -171 c 0
 221 -132 244 -86 251 -33 c 0
 253 -23 255 4 255 14 c 0
 255 20 254 17 248 13 c 1
 240 5 227 0 213 0 c 0
 208 0 203 1 198 2 c 0
 173 7 157 28 157 54 c 0
 157 80 173 103 198 108 c 0
EndSplineSet
Validated: 1
EndChar

StartChar: hyphen
Encoding: 45 45 39
Width: 638
Flags: HW
HStem: 190 60<159 432>
VStem: 159 272<190 251>
LayerCount: 2
Fore
SplineSet
159 221 m 1
 159 251 l 1
 295 251 l 1
 432 251 l 1
 432 221 l 1
 432 190 l 1
 295 190 l 1
 159 190 l 1
 159 221 l 1
EndSplineSet
Validated: 1
EndChar

StartChar: period
Encoding: 46 46 40
Width: 445
Flags: HW
HStem: 2 105
VStem: 150 105<10 100>
LayerCount: 2
Fore
SplineSet
190 108 m 0
 195 109 200 109 204 109 c 0
 233 109 257 86 257 56 c 0
 257 52 257 47 256 42 c 0
 252 23 235 6 216 2 c 0
 211 1 207 0 202 0 c 0
 173 0 148 25 148 54 c 0
 148 59 149 63 150 68 c 0
 154 87 171 104 190 108 c 0
EndSplineSet
Validated: 1
EndChar

StartChar: slash
Encoding: 47 47 41
Width: 538
Flags: HW
LayerCount: 2
Fore
SplineSet
391 767 m 1
 392 768 396 768 399 768 c 0
 410 768 419 758 419 748 c 0
 419 744 366 599 239 250 c 0
 141 -20 58 -246 58 -246 c 0
 54 -252 48 -256 41 -256 c 0
 38 -256 35 -255 32 -254 c 1
 30 -252 25 -249 24 -247 c 0
 21 -243 21 -242 21 -237 c 0
 21 -231 35 -193 200 262 c 0
 298 532 381 758 381 758 c 0
 383 762 387 765 391 767 c 1
EndSplineSet
Validated: 1
EndChar

StartChar: zero
Encoding: 48 48 42
Width: 784
Flags: HW
HStem: -23 25<304 403> 658 24<306 402>
VStem: 138 87<139 517> 483 86<137 518>
LayerCount: 2
Fore
SplineSet
196 599 m 0
 232 651 291 682 353 682 c 0
 404 682 486 661 531 561 c 0
 558 502 569 433 569 328 c 0
 569 183 544 50 441 0 c 0
 412 -14 384 -23 354 -23 c 0
 312 -23 228 -8 182 85 c 0
 150 145 138 215 138 328 c 0
 138 448 152 528 196 599 c 0
432 625 m 0
 417 640 391 658 353 658 c 0
 330 658 279 648 250 591 c 0
 226 541 225 465 225 363 c 0
 225 355 225 347 225 339 c 0
 225 323 225 306 225 289 c 0
 225 159 232 0 354 0 c 0
 401 0 430 29 445 54 c 0
 480 105 483 194 483 339 c 0
 483 498 480 577 432 625 c 0
EndSplineSet
Validated: 1
EndChar

StartChar: one
Encoding: 49 49 43
Width: 670
Flags: HW
HStem: 0 33<151 246 390 484> 584 33<146 251>
VStem: 279 77<60 610>
LayerCount: 2
Fore
SplineSet
279 610 m 1
 245 596 209 584 157 584 c 2
 146 584 l 1
 146 616 l 1
 157 616 l 2
 205 616 275 630 323 673 c 2
 333 682 l 1
 341 682 l 2
 343 682 344 682 345 682 c 0
 349 682 349 682 356 676 c 1
 356 368 l 1
 356 60 l 1
 363 37 377 33 461 33 c 2
 484 33 l 1
 484 0 l 1
 473 0 l 1
 466 1 319 3 318 3 c 0
 317 3 169 1 162 0 c 1
 151 0 l 1
 151 33 l 1
 174 33 l 2
 264 33 268 37 279 60 c 1
 279 610 l 1
EndSplineSet
Validated: 1
EndChar

StartChar: two
Encoding: 50 50 44
Width: 780
Flags: HW
HStem: 0 80<230 509> 649 32<265 391>
VStem: 150 42<548 579> 532 27<113 179>
LayerCount: 2
Fore
SplineSet
323 681 m 0
 324 681 329 681 335 681 c 0
 349 681 370 681 376 680 c 0
 417 674 453 660 483 638 c 0
 494 629 515 609 523 597 c 0
 531 586 545 560 549 548 c 0
 553 535 557 517 558 504 c 0
 559 499 559 491 559 484 c 0
 559 472 558 460 557 452 c 0
 550 414 533 378 504 341 c 0
 485 316 453 288 399 240 c 0
 386 228 368 212 361 205 c 2
 244 92 l 1
 230 80 l 1
 349 80 l 2
 486 81 504 82 509 87 c 0
 515 93 522 121 528 155 c 0
 530 165 531 175 532 176 c 1
 532 179 l 1
 546 179 l 1
 559 179 l 1
 559 176 l 1
 558 175 552 136 545 90 c 0
 538 43 531 4 530 3 c 1
 530 0 l 1
 340 0 l 1
 150 0 l 1
 150 12 l 2
 150 22 150 26 152 29 c 0
 153 30 195 76 243 130 c 0
 292 183 336 234 342 240 c 0
 420 328 452 384 463 451 c 0
 464 458 464 470 464 482 c 0
 464 494 464 507 463 514 c 0
 457 556 443 587 419 612 c 0
 395 636 369 647 334 649 c 0
 332 649 330 649 328 649 c 0
 279 649 233 622 206 577 c 0
 201 569 192 551 192 548 c 1
 203 548 l 2
 219 548 234 543 244 532 c 0
 254 522 259 508 259 494 c 0
 259 480 255 467 245 456 c 0
 239 450 231 445 222 442 c 0
 217 440 211 440 205 440 c 0
 199 440 192 440 187 442 c 0
 162 450 150 469 150 497 c 0
 150 532 163 568 183 600 c 0
 193 615 216 638 231 648 c 0
 251 661 272 671 295 676 c 0
 303 679 308 679 323 681 c 0
EndSplineSet
Validated: 1
EndChar

StartChar: three
Encoding: 51 51 45
Width: 780
Flags: HW
HStem: 82 116<186 240> 344 24<270 358> 344 15<389 399> 488 104<207 261> 654 28<268 394>
VStem: 164 103<497 585> 438 96<458 608>
LayerCount: 2
Fore
SplineSet
319 681 m 0xde
 324 681 334 682 342 682 c 0
 389 682 434 670 470 646 c 0
 495 631 511 614 522 591 c 0
 530 573 534 559 534 541 c 0
 534 539 534 537 534 535 c 0
 530 459 479 394 400 364 c 0
 394 362 390 360 390 359 c 0
 391 359 l 1xbe
 415 354 431 349 450 339 c 0
 476 327 493 314 511 295 c 0
 544 260 561 219 561 175 c 0
 561 149 555 121 543 95 c 0
 512 33 451 -9 375 -20 c 0
 368 -21 355 -22 341 -22 c 0
 327 -22 313 -21 306 -20 c 0
 268 -14 234 -1 206 17 c 0
 180 34 163 54 150 80 c 0
 142 98 136 120 136 138 c 0
 136 163 148 182 167 191 c 0
 177 196 184 198 195 198 c 0
 205 198 211 196 221 191 c 0
 232 186 240 178 245 168 c 0
 250 159 252 149 252 139 c 0
 252 124 246 109 235 98 c 0
 225 88 210 82 195 82 c 0
 194 82 193 82 192 82 c 0
 189 82 186 82 186 82 c 1
 186 82 189 78 192 73 c 0
 217 40 260 17 310 9 c 0
 318 8 329 8 339 8 c 0
 349 8 359 8 364 9 c 0
 407 21 438 58 449 109 c 0
 453 128 455 151 455 175 c 0
 455 201 452 228 447 248 c 0
 435 299 399 336 357 343 c 0
 353 344 333 344 310 344 c 2
 270 344 l 1
 267 347 l 2
 264 349 263 351 263 356 c 0
 263 360 264 363 267 365 c 0
 269 367 271 368 272 368 c 0
 278 368 337 373 342 374 c 0
 399 385 438 452 438 541 c 0
 438 564 436 576 432 590 c 0
 424 616 408 635 383 647 c 0
 371 652 356 655 340 655 c 0
 335 655 330 654 324 654 c 0
 283 650 249 636 224 613 c 0
 218 606 207 595 207 594 c 1
 207 594 211 593 217 593 c 0
 228 593 238 591 247 585 c 0
 261 576 269 560 269 542 c 0
 269 537 269 532 268 527 c 0
 263 503 243 488 217 488 c 0
 185 488 164 510 164 543 c 0
 164 573 176 602 199 627 c 0
 227 656 273 676 319 681 c 0xde
EndSplineSet
Validated: 1
EndChar

StartChar: four
Encoding: 52 52 46
Width: 741
Flags: HW
HStem: 0 33<243 322 443 522> 169 33<100 343 423 524> 673 20G<402 411>
VStem: 349 74<53 114 114 169 202 581>
LayerCount: 2
Fore
SplineSet
393 691 m 0
 396 693 397 693 406 693 c 0
 415 693 416 692 419 690 c 2
 423 687 l 1
 423 444 l 1
 423 202 l 1
 474 202 l 1
 524 202 l 1
 524 185 l 1
 524 169 l 1
 473 169 l 1
 423 169 l 1
 423 114 l 2
 423 59 424 57 426 53 c 0
 430 42 436 38 451 36 c 0
 460 34 486 33 504 33 c 2
 522 33 l 1
 522 16 l 1
 522 0 l 1
 513 0 l 1
 508 1 476 1 443 2 c 0
 419 3 401 3 383 3 c 0
 365 3 346 3 322 2 c 0
 289 1 258 1 253 0 c 1
 243 0 l 1
 243 16 l 1
 243 33 l 1
 261 33 l 2
 279 33 305 34 315 36 c 0
 329 38 336 42 340 53 c 0
 342 57 343 59 343 114 c 2
 343 169 l 1
 206 169 l 1
 70 169 l 1
 70 185 l 1
 70 202 l 1
 230 445 l 2
 341 613 391 689 393 691 c 0
349 202 m 1
 349 391 l 1
 349 581 l 1
 224 391 l 1
 100 203 l 1
 224 202 l 1
 349 202 l 1
EndSplineSet
Validated: 1
EndChar

StartChar: five
Encoding: 53 53 47
Width: 760
Flags: HW
HStem: -22 30<249 374> 407 24<286 387> 563 86<221 405>
VStem: 134 102<127 193> 185 33<378 573> 450 91<105 312>
LayerCount: 2
Fore
SplineSet
190 680 m 2xec
 192 681 193 682 194 682 c 0
 197 682 200 680 206 678 c 0
 229 668 258 658 282 654 c 0
 302 651 324 649 344 649 c 0
 380 649 415 655 450 667 c 0
 460 670 474 675 479 677 c 0
 486 680 490 682 493 682 c 0
 496 682 497 681 499 679 c 0
 502 677 502 675 502 671 c 0
 502 666 502 664 497 658 c 0
 489 647 475 633 463 623 c 0
 435 598 401 580 365 571 c 0
 346 566 325 563 305 563 c 0
 278 563 250 569 220 577 c 1
 218 577 l 1
 218 477 l 1
 218 378 l 1xec
 228 386 l 2
 256 411 288 425 327 429 c 0
 334 430 341 430 348 430 c 0
 395 430 440 411 476 376 c 0
 510 341 532 295 540 242 c 0
 541 234 541 220 541 207 c 0
 541 193 541 180 540 172 c 0
 535 145 529 124 518 102 c 0
 506 77 494 62 476 43 c 0
 451 19 426 3 395 -8 c 0
 368 -18 349 -22 319 -22 c 0
 305 -22 299 -22 293 -22 c 0
 290 -22 287 -23 283 -22 c 0
 254 -16 229 -1 207 16 c 0
 196 24 179 41 171 52 c 0
 147 84 134 127 134 167 c 0xf4
 134 177 136 186 140 194 c 0
 148 210 167 219 185 219 c 0xec
 194 219 202 217 210 213 c 0
 217 209 227 200 231 193 c 1
 233 186 236 174 236 169 c 0xf4
 236 163 233 151 231 144 c 1
 225 133 210 122 196 119 c 0
 194 119 189 118 185 118 c 0
 179 118 172 119 169 120 c 1
 167 120 l 1
 170 113 l 2
 183 75 212 41 249 23 c 0
 259 19 278 11 290 9 c 0
 296 8 307 8 316 8 c 0
 326 8 334 8 339 9 c 0
 389 20 427 58 441 113 c 0
 447 138 450 167 450 212 c 0
 450 289 441 328 421 360 c 0
 401 391 377 407 348 407 c 0
 315 407 283 397 257 381 c 0
 246 373 225 352 216 339 c 0
 212 333 208 328 207 327 c 1
 205 326 202 326 199 326 c 0
 196 326 193 326 191 327 c 1
 185 331 185 319 185 504 c 0
 185 585 184 633 184 657 c 0
 184 669 185 675 185 676 c 0
 186 678 188 680 190 680 c 2xec
EndSplineSet
Validated: 1
EndChar

StartChar: six
Encoding: 54 54 48
Width: 737
Flags: HW
HStem: -23 31<292 401> 414 24<302 395> 654 28<340 391 391 397 397 463>
VStem: 130 95<147 339 242 470> 434 95<528 607> 461 93<102 314>
LayerCount: 2
Fore
SplineSet
376 681 m 0xf4
 380 682 386 682 392 682 c 0
 406 682 426 680 434 679 c 0
 488 669 520 636 528 588 c 0
 529 583 529 576 529 572 c 0
 529 548 520 533 502 525 c 0
 495 522 494 522 482 522 c 0
 469 522 468 522 461 525 c 0
 452 529 443 537 440 545 c 0
 436 553 434 561 434 568 c 0xf8
 434 585 443 602 458 610 c 0
 466 614 472 615 481 615 c 0
 486 615 489 616 489 616 c 1
 489 618 469 637 464 640 c 0
 455 645 441 652 430 654 c 0
 427 655 423 655 420 655 c 0
 413 655 406 654 398 654 c 0
 392 654 386 655 381 655 c 0
 379 655 376 654 374 654 c 0
 308 640 256 579 236 494 c 0
 228 459 223 423 223 369 c 0
 223 354 223 345 223 342 c 0
 223 340 223 339 223 339 c 0
 224 339 l 1
 225 340 227 346 230 351 c 0
 246 387 272 414 302 427 c 0
 317 434 333 437 352 437 c 0
 354 437 357 437 360 437 c 0
 410 437 447 419 484 382 c 0
 523 342 545 301 553 251 c 0
 554 242 555 224 555 208 c 0
 555 199 554 189 554 183 c 0
 554 123 528 81 484 36 c 0
 466 19 452 9 434 0 c 0
 406 -14 376 -23 344 -23 c 0
 342 -23 338 -23 336 -23 c 0
 278 -23 225 11 190 62 c 0
 178 81 160 118 152 145 c 0
 144 170 138 204 135 234 c 0
 132 261 130 292 130 321 c 0
 130 348 132 372 134 390 c 0
 148 500 200 593 277 643 c 0
 307 663 342 677 376 681 c 0xf4
366 414 m 0
 364 414 362 414 360 414 c 0
 357 414 353 414 349 414 c 0
 315 414 287 399 265 370 c 0
 238 334 225 282 225 222 c 0
 225 217 225 211 225 205 c 0
 225 154 233 116 240 92 c 0
 254 51 285 19 320 10 c 0
 326 8 336 8 346 8 c 0
 354 8 362 8 368 9 c 0
 388 14 402 22 417 37 c 0
 441 61 453 86 458 127 c 0
 460 145 461 178 461 225 c 0xf4
 461 274 459 290 455 312 c 0
 450 341 436 367 418 385 c 0
 403 400 386 411 366 414 c 0
EndSplineSet
Validated: 1
EndChar

StartChar: seven
Encoding: 55 55 49
Width: 653
Flags: HW
HStem: 579 81<165 465> 672 20G<136 163>
VStem: 102 27<480 544> 136 27<688 692> 226 93<-16 14 14 195>
LayerCount: 2
Fore
SplineSet
136 689 m 1
 136 692 l 1
 150 692 l 1
 163 692 l 1
 163 688 l 2
 164 679 172 672 185 668 c 0
 192 666 210 663 232 662 c 0
 241 661 301 660 395 659 c 2
 543 659 l 1
 543 646 l 1
 543 634 l 1
 468 529 l 2
 426 471 390 420 386 414 c 0
 354 362 335 295 327 209 c 0
 323 168 321 116 321 55 c 0
 321 33 320 16 319 13 c 0
 316 1 307 -10 297 -16 c 0
 289 -20 281 -22 273 -22 c 0
 251 -22 230 -8 226 14 c 0
 225 17 225 24 225 33 c 0
 225 48 226 68 227 83 c 0
 233 145 248 207 272 267 c 0
 294 321 324 380 358 429 c 0
 362 435 388 471 416 509 c 2
 465 579 l 1
 465 579 459 579 449 579 c 0
 429 579 393 579 354 579 c 0
 315 579 274 579 246 579 c 0
 232 579 220 579 214 579 c 0
 178 578 159 576 156 574 c 0
 154 573 147 561 144 552 c 0
 140 542 136 522 133 502 c 0
 131 493 130 484 129 483 c 1
 129 480 l 1
 116 480 l 1
 102 480 l 1
 102 483 l 1
 103 484 111 531 120 586 c 0
 128 641 135 687 136 689 c 1
EndSplineSet
Validated: 1
EndChar

StartChar: eight
Encoding: 56 56 50
Width: 735
Flags: HW
LayerCount: 2
Fore
SplineSet
381 281 m 0
 342 307 311 327 310 327 c 0
 309 327 294 318 284 312 c 0
 234 278 201 232 192 183 c 0
 191 176 190 167 190 157 c 0
 190 145 191 134 193 126 c 0
 198 99 212 75 232 56 c 0
 263 24 305 7 351 7 c 0
 357 7 364 7 370 8 c 0
 453 17 511 71 511 135 c 0
 511 144 509 153 507 162 c 0
 500 187 483 213 460 229 c 0
 456 232 420 256 381 281 c 0
377 653 m 0
 370 654 354 655 342 655 c 0
 337 655 333 654 330 654 c 0
 259 645 211 603 211 550 c 0
 211 539 214 526 220 514 c 0
 229 497 241 482 260 469 c 2
 330 424 l 1
 387 387 l 1
 391 388 l 2
 393 389 399 394 406 398 c 0
 460 433 489 480 489 529 c 0
 489 531 489 535 489 537 c 0
 487 567 476 590 453 613 c 0
 433 633 407 647 377 653 c 0
328 681 m 0
 335 682 343 682 350 682 c 0
 392 682 435 670 469 647 c 0
 489 633 511 610 521 590 c 0
 531 571 535 550 535 530 c 0
 535 500 524 470 505 444 c 0
 488 420 456 395 423 378 c 1
 418 374 413 372 413 371 c 2
 448 348 l 2
 466 336 486 323 491 319 c 0
 534 283 560 233 563 180 c 0
 563 178 563 176 563 174 c 0
 563 145 556 118 543 91 c 0
 523 50 492 20 449 0 c 0
 427 -10 407 -16 381 -20 c 0
 374 -21 361 -22 348 -22 c 0
 335 -22 322 -21 315 -20 c 0
 289 -16 264 -8 241 2 c 1
 187 29 152 71 141 124 c 0
 139 132 138 143 138 154 c 0
 138 165 139 177 141 185 c 0
 149 228 173 266 213 299 c 0
 226 309 252 326 269 335 c 0
 277 339 284 343 284 343 c 1
 284 343 272 351 259 359 c 0
 225 381 212 394 197 414 c 0
 190 424 178 445 174 458 c 0
 168 475 165 493 165 511 c 0
 165 565 193 617 242 649 c 0
 266 665 299 678 328 681 c 0
EndSplineSet
Validated: 1
EndChar

StartChar: nine
Encoding: 57 57 51
Width: 758
Flags: HW
HStem: -23 30<235 363> 223 24<297 392> 655 26<303 401>
VStem: 140 95<345 451 451 557> 165 43<26 42> 165 95<51 132> 471 91<179 289 289 326 326 342 397 438 459 521>
LayerCount: 2
Fore
SplineSet
332 681 m 0xea
 336 681 341 681 346 681 c 0
 361 681 380 680 389 679 c 0
 421 672 451 657 475 633 c 0
 494 615 505 600 519 573 c 0
 543 525 562 475 562 404 c 0
 562 391 563 367 563 342 c 0
 563 317 562 295 562 285 c 0
 562 243 549 204 537 169 c 0
 530 151 512 115 502 99 c 0
 454 22 383 -23 308 -23 c 0
 252 -23 206 -3 184 29 c 0
 173 45 165 63 165 85 c 0
 165 91 165 95 165 98 c 0
 165 100 165 101 165 103 c 0
 169 117 179 128 192 134 c 0
 199 137 200 138 213 138 c 0
 225 138 227 137 234 134 c 0
 251 126 260 110 260 91 c 0xe6
 260 72 251 56 235 48 c 0xf2
 228 45 219 44 213 44 c 0
 212 44 211 44 210 44 c 0
 207 44 207 44 208 42 c 1xea
 208 41 211 38 214 36 c 0
 233 19 260 7 300 7 c 0
 302 7 304 7 307 7 c 0
 325 7 343 11 359 18 c 0
 383 29 407 52 424 80 c 0
 446 113 460 155 466 206 c 0
 469 232 471 249 471 289 c 1
 471 326 l 1
 467 314 l 2
 450 275 424 246 392 233 c 0
 377 226 361 223 342 223 c 0
 340 223 337 223 334 223 c 0
 302 223 277 232 252 246 c 0
 239 254 227 262 213 275 c 0
 161 326 140 380 140 453 c 0
 140 456 140 458 140 461 c 0xf2
 140 485 143 498 147 516 c 0
 156 554 175 586 208 618 c 0
 228 640 244 652 264 662 c 0
 284 672 307 681 332 681 c 0xea
372 655 m 0
 371 655 369 655 368 655 c 0
 365 655 361 655 358 655 c 0
 347 655 335 654 326 651 c 0
 300 645 278 630 261 604 c 0
 246 581 235 561 235 525 c 0
 235 514 234 482 234 450 c 0
 234 418 235 385 235 374 c 0xf2
 235 346 243 325 251 310 c 0
 261 291 278 271 292 261 c 0
 306 252 326 247 345 247 c 0
 351 247 358 247 363 248 c 0
 386 252 403 262 420 280 c 0
 452 315 471 370 471 438 c 0
 471 444 471 452 471 459 c 0
 471 541 456 574 437 604 c 0
 419 631 398 650 372 655 c 0
EndSplineSet
Validated: 1
EndChar

StartChar: colon
Encoding: 58 58 52
Width: 348
Flags: HW
VStem: 153 105<10 100 341 432>
LayerCount: 2
Fore
SplineSet
193 439 m 0
 198 440 203 441 207 441 c 0
 236 441 260 417 260 387 c 0
 260 383 260 379 259 374 c 0
 255 355 238 338 219 334 c 0
 214 333 210 332 205 332 c 0
 176 332 151 357 151 386 c 0
 151 391 152 394 153 399 c 0
 157 418 174 435 193 439 c 0
193 108 m 0
 198 109 203 109 207 109 c 0
 236 109 260 86 260 56 c 0
 260 52 260 47 259 42 c 0
 255 23 238 6 219 2 c 0
 214 1 210 0 205 0 c 0
 176 0 151 25 151 54 c 0
 151 59 152 63 153 68 c 0
 157 87 174 104 193 108 c 0
EndSplineSet
Validated: 1
EndChar

StartChar: semicolon
Encoding: 59 59 53
Width: 72
Flags: HW
HStem: -199 22G<185 188> 0 109<175 247> 332 108<201 258>
VStem: 160 109<34 96 343 386 386 430> 248 23<-73 10>
LayerCount: 2
Fore
SplineSet
201 439 m 0xf0
 205 440 210 441 214 441 c 0
 244 441 269 417 269 387 c 0
 269 383 268 378 267 374 c 0
 262 349 239 332 214 332 c 0
 182 332 160 356 160 386 c 0
 160 389 160 392 160 395 c 0
 160 396 160 398 160 399 c 0
 164 418 182 435 201 439 c 0xf0
200 108 m 0
 203 109 208 109 213 109 c 0
 217 109 222 109 226 108 c 0
 251 102 265 79 270 39 c 0
 271 32 271 14 271 0 c 0
 271 -14 271 -28 270 -35 c 0
 265 -71 255 -99 239 -130 c 0
 228 -153 216 -171 200 -188 c 0
 194 -195 190 -199 187 -199 c 0
 184 -199 181 -198 178 -195 c 0
 175 -192 174 -189 174 -187 c 0
 174 -184 178 -180 185 -171 c 0
 218 -132 245 -86 245 -37 c 0
 245 -26 248 -6 248 4 c 0xe8
 248 8 249 10 248 10 c 2
 248 10 244 8 240 6 c 0
 232 2 222 0 214 0 c 0
 199 0 184 5 174 16 c 0
 165 26 160 41 160 54 c 0
 160 80 175 103 200 108 c 0
EndSplineSet
Validated: 1
EndChar

StartChar: less
Encoding: 60 60 54
Width: 657
Flags: HW
LayerCount: 2
Fore
SplineSet
252 414 m 0
 508 535 547 553 556 553 c 0
 558 553 558 552 560 551 c 0
 567 547 572 539 572 532 c 0
 572 526 569 521 564 517 c 0
 562 515 439 457 288 385 c 2
 16 256 l 1
 288 127 l 2
 439 55 562 -3 564 -5 c 0
 569 -9 572 -14 572 -20 c 0
 572 -27 567 -35 560 -39 c 0
 558 -40 558 -41 556 -41 c 0
 547 -41 508 -23 252 98 c 0
 89 175 -45 239 -47 241 c 0
 -51 244 -54 250 -54 256 c 0
 -54 262 -51 269 -46 272 c 0
 -44 273 90 337 252 414 c 0
EndSplineSet
Validated: 1
EndChar

StartChar: equal
Encoding: 61 61 55
Width: 896
Flags: HW
HStem: 136 41<174 824> 335 41<174 824>
LayerCount: 2
Fore
SplineSet
168 374 m 2
 172 376 l 1
 497 376 l 1
 824 376 l 1
 828 374 l 2
 831 372 834 369 836 367 c 1
 838 363 839 361 839 355 c 0
 839 349 838 348 836 344 c 1
 834 342 831 339 829 338 c 2
 825 336 l 1
 499 335 l 1
 174 335 l 1
 168 337 l 1
 161 341 157 346 157 355 c 0
 157 361 157 363 160 367 c 0
 161 369 165 372 168 374 c 2
168 175 m 1
 174 177 l 1
 499 177 l 1
 825 177 l 1
 829 174 l 2
 831 173 834 170 836 168 c 1
 838 164 839 163 839 157 c 0
 839 151 838 149 836 145 c 1
 834 143 831 140 828 138 c 2
 824 136 l 1
 497 136 l 1
 172 136 l 1
 168 138 l 2
 165 140 161 143 160 145 c 0
 157 149 157 151 157 157 c 0
 157 166 161 171 168 175 c 1
EndSplineSet
Validated: 1
EndChar

StartChar: greater
Encoding: 62 62 56
Width: 853
Flags: HW
LayerCount: 2
Fore
SplineSet
153 551 m 0
 155 552 156 553 158 553 c 0
 167 553 205 535 461 414 c 0
 624 337 758 273 760 271 c 0
 764 268 768 262 768 256 c 0
 768 250 764 244 760 241 c 0
 758 239 624 175 461 98 c 2
 167 -41 l 1
 160 -41 l 2
 149 -40 142 -31 142 -21 c 0
 142 -17 143 -13 145 -9 c 0
 149 -4 120 -18 444 135 c 2
 698 256 l 1
 444 377 l 2
 119 531 149 516 145 521 c 1
 143 525 143 526 143 532 c 0
 143 538 143 540 146 544 c 0
 147 546 150 549 153 551 c 0
EndSplineSet
Validated: 1
EndChar

StartChar: question
Encoding: 63 63 57
Width: 557
Flags: HW
HStem: 193 24<270 345>
VStem: 215 44<240 287> 246 110<12 93> 373 27<240 279> 428 42<461 555>
LayerCount: 2
Fore
SplineSet
273 626 m 0xd8
 282 627 291 627 299 627 c 0
 332 627 362 620 389 607 c 0
 406 598 418 590 432 577 c 0
 450 558 461 540 468 515 c 0
 470 507 470 503 470 488 c 0
 470 472 470 469 468 461 c 0
 464 447 453 426 445 415 c 0
 441 410 434 402 430 397 c 1
 424 393 391 369 346 335 c 0
 305 305 269 279 267 276 c 0
 261 269 259 264 259 254 c 0
 259 247 259 245 261 240 c 0
 269 225 283 216 303 216 c 0
 304 216 305 216 306 216 c 0
 330 218 350 228 362 244 c 0
 368 252 372 259 373 269 c 0
 373 275 374 278 376 280 c 0
 379 283 380 283 386 283 c 0
 393 283 393 283 396 280 c 0
 399 277 399 276 399 268 c 0
 398 253 391 236 381 224 c 0
 364 206 332 193 301 193 c 0
 252 193 215 232 215 276 c 0
 215 298 224 320 241 335 c 0
 244 338 279 364 319 394 c 0
 364 426 397 450 401 455 c 2
 410 463 419 475 423 484 c 0
 426 490 428 503 428 511 c 0
 428 525 422 542 412 555 c 0
 395 578 365 595 331 601 c 0
 324 602 311 603 298 603 c 0
 285 603 272 602 264 601 c 0
 220 595 189 582 162 560 c 0
 156 555 142 540 142 538 c 0
 142 537 145 537 148 537 c 0
 176 537 196 515 196 490 c 0
 196 482 194 474 190 466 c 0
 182 450 166 441 149 441 c 0
 132 441 114 450 106 466 c 0
 102 475 101 484 101 496 c 0
 103 523 115 548 133 567 c 0
 162 599 214 621 273 626 c 0xd8
288 108 m 0
 293 109 297 109 302 109 c 0
 316 109 328 104 339 93 c 0
 350 83 355 69 355 55 c 0
 355 40 350 26 339 16 c 0
 328 5 314 0 300 0 c 0
 286 0 273 5 262 16 c 0
 251 26 246 40 246 55 c 0xb8
 246 64 247 70 252 79 c 0
 258 92 273 105 288 108 c 0
EndSplineSet
Validated: 1
EndChar

StartChar: at
Encoding: 64 64 58
Width: 843
Flags: HW
HStem: -9 24<352 584> 470 25<394 503> 591 24<355 534>
VStem: 577 72<214 390>
LayerCount: 2
Fore
SplineSet
422 614 m 0
 424 614 429 615 436 615 c 0
 453 615 478 614 485 613 c 0
 531 608 570 595 611 575 c 0
 676 542 725 493 756 432 c 0
 766 409 771 398 776 379 c 0
 783 352 787 329 787 300 c 0
 787 296 786 292 786 288 c 0
 783 186 754 126 703 113 c 0
 697 111 687 110 677 110 c 0
 672 110 666 110 662 111 c 0
 634 114 612 123 597 138 c 0
 589 146 581 157 579 166 c 2
 578 171 l 1
 570 163 l 2
 560 153 547 142 537 136 c 0
 521 126 497 117 480 114 c 0
 468 112 456 110 443 110 c 0
 403 110 362 121 329 143 c 0
 281 175 250 225 242 280 c 0
 241 287 240 294 240 301 c 0
 240 351 261 400 299 437 c 0
 314 451 329 462 348 471 c 0
 376 485 405 494 437 495 c 0
 460 495 479 492 499 485 c 0
 532 475 561 455 583 427 c 2
 589 420 l 1
 616 420 l 1
 643 420 l 1
 646 418 l 1
 649 415 l 1
 649 292 l 1
 650 169 l 1
 652 162 l 2
 653 158 655 153 656 151 c 0
 660 145 667 138 671 136 c 0
 675 134 679 133 684 133 c 0
 692 133 702 135 710 139 c 0
 717 142 730 156 735 164 c 0
 748 187 756 218 759 265 c 0
 760 275 760 286 760 295 c 0
 760 344 751 382 731 423 c 0
 697 491 633 546 557 572 c 0
 519 585 487 591 445 591 c 0
 402 591 371 585 333 572 c 0
 230 536 152 450 134 350 c 0
 131 333 130 318 130 302 c 0
 130 286 131 271 134 254 c 0
 144 199 172 147 213 105 c 0
 265 54 330 23 408 14 c 0
 417 13 430 13 446 13 c 0
 472 13 504 14 528 17 c 0
 595 24 665 41 720 63 c 2
 733 69 l 1
 757 70 l 1
 780 70 l 1
 783 67 l 2
 785 65 786 62 786 60 c 0
 786 58 785 55 784 54 c 0
 781 51 768 46 735 35 c 0
 668 13 598 -1 528 -7 c 0
 502 -9 472 -11 446 -11 c 0
 429 -11 415 -10 405 -9 c 0
 358 -4 319 9 278 29 c 0
 213 62 165 111 134 173 c 0
 124 195 119 206 114 225 c 0
 107 251 104 276 104 302 c 0
 104 328 107 353 114 379 c 0
 119 398 124 409 134 432 c 0
 165 493 213 542 278 575 c 0
 320 597 362 609 406 613 c 0
 412 614 419 614 422 614 c 0
465 470 m 0
 459 471 453 471 447 471 c 0
 424 471 404 465 385 453 c 0
 348 428 323 386 314 335 c 0
 313 327 313 314 313 302 c 0
 313 290 313 278 314 270 c 0
 320 232 334 201 356 176 c 0
 382 148 412 133 446 133 c 0
 457 133 470 135 482 138 c 0
 517 147 548 171 571 204 c 2
 577 214 l 1
 577 302 l 1
 577 390 l 1
 571 400 l 2
 544 439 508 463 465 470 c 0
EndSplineSet
Validated: 1
EndChar

StartChar: A
Encoding: 65 65 59
Width: 869
Flags: HW
HStem: -12 75<360 439> 608 20G<462 471>
LayerCount: 2
Fore
SplineSet
421 519 m 0
 418 528 415 536 415 536 c 1
 414 536 408 529 403 521 c 2
 397 514 351 453 299 385 c 2
 206 263 l 1
 215 246 l 2
 274 131 320 80 375 66 c 0
 382 64 394 62 405 62 c 0
 411 62 417 62 422 63 c 0
 457 69 488 89 524 128 c 2
 587 200 l 1
 590 204 l 1
 575 227 l 2
 500 354 456 439 421 519 c 0
449 627 m 0
 453 628 458 629 466 629 c 0
 477 629 482 627 486 622 c 0
 490 617 741 11 741 7 c 0
 741 2 737 0 727 0 c 0
 710 0 706 2 694 24 c 0
 686 38 609 175 606 175 c 0
 604 175 586 155 557 122 c 0
 504 60 481 36 451 17 c 0
 432 4 409 -8 387 -12 c 0
 385 -12 383 -13 380 -13 c 0
 374 -13 367 -12 360 -12 c 0
 354 -12 348 -13 342 -13 c 0
 339 -13 337 -12 335 -12 c 0
 302 -5 275 12 245 42 c 0
 217 71 194 107 162 168 c 0
 156 178 151 187 150 187 c 0
 149 187 126 157 98 121 c 0
 70 84 45 52 43 50 c 0
 38 46 30 44 21 44 c 0
 12 44 9 46 9 51 c 0
 9 54 63 126 223 336 c 0
 340 490 438 618 440 621 c 1
 443 623 447 626 449 627 c 0
EndSplineSet
Validated: 1
EndChar

StartChar: B
Encoding: 66 66 60
Width: 930
Flags: HW
HStem: -11 24<394 514> 582 25<415 538> 703 33<65 135>
VStem: 171 92<210 413 469 675> 644 106<180 422>
LayerCount: 2
Fore
SplineSet
177 802 m 0
 182 805 183 805 194 805 c 0
 212 805 226 798 239 785 c 0
 249 773 259 753 262 735 c 0
 263 729 263 685 263 598 c 2
 263 469 l 1
 271 480 l 2
 290 510 314 535 340 554 c 0
 367 576 400 592 432 599 c 0
 449 604 468 604 486 604 c 0
 539 604 592 587 637 551 c 0
 685 512 722 454 739 389 c 0
 746 359 750 329 750 300 c 0
 750 238 734 178 701 126 c 0
 681 93 648 61 617 39 c 0
 574 10 530 -11 480 -11 c 0
 474 -11 465 -11 457 -11 c 0
 442 -11 425 -10 413 -8 c 0
 317 5 237 60 197 139 c 0
 185 163 179 183 174 210 c 2
 171 223 l 1
 171 445 l 1
 171 689 171 671 164 683 c 0
 160 692 150 696 134 699 c 0
 123 701 100 703 81 703 c 2
 65 703 l 1
 65 720 l 1
 65 736 l 1
 77 736 l 1
 126 736 164 761 171 792 c 0
 173 798 171 798 177 802 c 0
509 582 m 1
 507 582 503 582 500 582 c 0
 493 582 485 582 477 582 c 0
 472 582 468 582 465 582 c 0
 416 576 371 553 331 514 c 0
 306 488 285 460 269 426 c 2
 263 413 l 1
 263 313 l 1
 263 205 264 205 270 174 c 0
 281 116 309 72 356 42 c 0
 386 24 421 12 455 12 c 0
 471 12 488 15 502 19 c 0
 550 33 594 76 617 130 c 0
 636 173 644 224 644 302 c 0
 644 317 l 0
 644 365 641 391 635 420 c 0
 623 485 594 533 552 561 c 0
 538 571 524 578 509 582 c 1
EndSplineSet
Validated: 1
EndChar

StartChar: C
Encoding: 67 67 61
Width: 854
Flags: HW
HStem: 585 27<345 487>
LayerCount: 2
Fore
SplineSet
378 611 m 0
 384 611 396 612 410 612 c 0
 430 612 453 611 464 610 c 0
 517 605 554 593 591 568 c 0
 611 555 624 544 649 519 c 0
 669 500 672 497 672 494 c 0
 672 493 672 489 671 489 c 1
 670 486 595 424 592 423 c 0
 591 423 590 423 590 423 c 0
 587 423 584 424 582 426 c 1
 582 427 578 435 575 445 c 0
 551 521 524 559 478 575 c 0
 458 582 440 585 411 585 c 0
 387 585 378 584 361 579 c 0
 311 563 267 517 242 461 c 0
 224 416 215 362 215 297 c 0
 215 293 215 290 215 286 c 0
 217 232 223 191 238 153 c 0
 265 81 321 28 381 17 c 0
 388 16 399 16 412 16 c 0
 432 16 455 17 474 19 c 0
 545 27 590 55 646 125 c 0
 651 130 655 135 656 136 c 1
 657 137 659 137 661 137 c 0
 664 137 667 136 670 134 c 1
 675 130 677 126 677 123 c 0
 677 121 676 119 674 116 c 0
 668 107 645 82 633 69 c 0
 591 28 552 6 498 -4 c 0
 476 -8 443 -11 413 -11 c 0
 395 -11 377 -10 365 -8 c 0
 241 10 145 103 116 228 c 0
 111 250 108 272 108 295 c 0
 108 326 113 358 122 389 c 0
 129 416 147 453 162 477 c 0
 212 553 290 601 378 611 c 0
EndSplineSet
Validated: 1
EndChar

StartChar: D
Encoding: 68 68 62
Width: 990
Flags: HW
HStem: -33 25<453 571> 603 24<455 569>
VStem: 214 105<172 424> 704 106<173 423>
LayerCount: 2
Fore
SplineSet
134 626 m 0
 137 628 142 629 143 629 c 0
 145 629 150 627 155 625 c 0
 186 611 221 603 262 603 c 0
 284 603 l 0
 314 603 332 607 401 616 c 0
 453 624 477 627 509 627 c 0
 541 627 562 623 589 615 c 0
 664 592 727 541 766 469 c 0
 789 429 802 386 808 336 c 0
 809 329 810 313 810 297 c 0
 810 282 809 266 808 259 c 0
 802 209 789 166 766 126 c 0
 744 86 715 52 679 25 c 0
 647 0 605 -19 568 -27 c 0
 550 -31 530 -33 512 -33 c 0
 485 -33 459 -28 434 -20 c 0
 359 3 296 54 257 126 c 0
 234 166 220 209 214 259 c 0
 214 261 214 265 214 269 c 0
 214 277 214 287 214 297 c 0
 214 308 214 318 214 326 c 0
 214 330 214 334 214 336 c 0
 221 395 240 445 270 492 c 0
 295 528 329 563 363 583 c 0
 367 586 371 589 370 589 c 0
 368 589 343 585 334 582 c 0
 304 574 282 561 224 523 c 0
 180 494 156 481 129 470 c 0
 123 468 119 466 116 466 c 0
 111 466 108 470 104 478 c 0
 102 482 100 484 100 487 c 0
 100 491 102 496 106 505 c 0
 118 535 127 568 127 603 c 0
 127 610 128 619 128 620 c 1
 129 622 131 624 134 626 c 0
536 603 m 0
 531 603 523 603 515 603 c 0
 508 603 501 604 495 604 c 0
 492 604 490 603 488 603 c 0
 449 597 412 573 383 539 c 0
 338 485 320 414 320 298 c 0
 320 181 338 110 383 56 c 0
 412 22 450 0 488 -7 c 0
 494 -8 503 -8 511 -8 c 0
 520 -8 530 -8 536 -7 c 0
 574 0 611 22 640 56 c 0
 685 110 704 181 704 298 c 0
 704 414 685 485 640 539 c 0
 611 573 574 596 536 603 c 0
EndSplineSet
Validated: 1
EndChar

StartChar: E
Encoding: 69 69 63
Width: 871
Flags: HW
HStem: -10 26<343 451 451 487> 300 33<219 563 652 709> 589 23<338 446>
VStem: 112 106<180 292 292 300 333 421> 563 89<333 452> 625 26<125 153>
LayerCount: 2
Fore
SplineSet
372 611 m 0xf4
 376 611 385 612 394 612 c 0
 402 612 413 611 418 611 c 0
 443 611 468 603 488 595 c 0
 501 591 525 580 536 573 c 0
 601 533 650 459 650 362 c 0
 650 344 652 344 652 339 c 0xf8
 652 333 653 333 668 333 c 0
 672 333 677 333 682 333 c 2
 709 333 l 1
 709 316 l 1
 709 300 l 1
 465 300 l 1
 219 300 l 1
 219 288 l 2
 219 259 222 222 226 197 c 0
 238 125 270 72 321 40 c 0
 346 24 373 15 406 15 c 0
 420 15 435 16 451 19 c 0
 518 30 572 64 605 113 c 0
 613 124 622 143 625 153 c 0
 628 162 631 164 640 164 c 0
 647 164 647 164 650 161 c 0
 652 159 653 157 653 155 c 0
 653 153 652 150 651 146 c 0
 648 136 637 113 631 104 c 0
 596 48 530 7 451 -6 c 0
 429 -10 419 -10 393 -10 c 0
 365 -10 356 -9 333 -4 c 0
 307 2 277 16 255 29 c 0
 221 51 190 82 168 115 c 0
 133 168 112 226 112 292 c 0
 112 294 112 298 112 300 c 0
 112 355 123 406 149 456 c 0
 164 487 183 511 208 536 c 0
 236 563 266 581 302 595 c 0
 321 602 350 611 372 611 c 0xf4
411 589 m 0
 409 589 407 589 405 589 c 0
 402 589 398 589 394 589 c 0
 371 589 350 583 331 574 c 0
 314 565 289 545 276 528 c 0
 240 484 220 428 220 341 c 1
 219 333 l 1
 391 333 l 1
 563 333 l 1
 563 349 l 1
 563 442 531 515 487 552 c 0
 462 572 440 584 411 589 c 0
EndSplineSet
Validated: 1
EndChar

StartChar: F
Encoding: 70 70 64
Width: 969
Flags: HW
HStem: -199 22G<238 300> 111 73<304 710> 505 33<106 176> 582 25<493 616>
VStem: 212 92<-193 111 183 437 459 474> 691 109<461 522>
LayerCount: 2
Fore
SplineSet
218 603 m 0
 223 606 224 606 232 606 c 0
 248 606 261 601 271 592 c 0
 282 582 290 568 295 549 c 0
 297 540 297 539 298 499 c 2
 298 459 l 1
 303 464 l 2
 400 550 463 590 520 603 c 0
 530 605 535 605 558 606 c 0
 563 606 568 606 573 606 c 0
 618 606 660 602 690 594 c 0
 714 589 740 577 754 568 c 0
 780 551 798 522 800 492 c 0
 800 486 800 482 799 480 c 0
 798 477 708 402 704 400 c 0
 703 400 702 399 701 399 c 0
 697 399 693 402 691 406 c 1
 691 408 690 418 690 428 c 0
 689 451 687 467 683 484 c 0
 668 544 632 576 566 582 c 0
 559 583 553 583 547 583 c 0
 529 583 512 579 493 572 c 0
 449 556 403 523 327 457 c 2
 304 437 l 1
 304 310 l 1
 304 183 l 1
 507 183 l 1
 710 183 l 1
 710 147 l 1
 710 111 l 1
 507 111 l 1
 304 111 l 1
 304 -41 l 1
 304 -193 l 1
 300 -196 l 1
 297 -199 l 1
 259 -199 l 2
 218 -199 217 -199 214 -194 c 0
 213 -192 212 -126 212 139 c 0
 212 438 211 469 210 474 c 0
 206 486 199 494 188 498 c 0
 177 502 152 505 122 505 c 2
 106 505 l 1
 106 521 l 1
 106 538 l 1
 117 538 l 2
 167 541 203 562 210 593 c 0
 212 599 212 599 218 603 c 0
EndSplineSet
Validated: 1
EndChar

StartChar: G
Encoding: 71 71 65
Width: 931
Flags: HW
HStem: -221 33<401 584> 522 73<132 414 515 775>
VStem: 224 67<286 400> 236 27<-46 28> 673 67<-101 21>
LayerCount: 2
Fore
SplineSet
132 559 m 1xe8
 132 595 l 1
 454 595 l 1
 775 595 l 1
 775 559 l 1
 775 522 l 1
 644 522 l 1
 515 522 l 1
 500 518 l 2
 469 510 435 497 406 485 c 0
 351 459 313 430 298 398 c 0
 293 386 290 372 290 358 c 0xe8
 290 330 301 300 320 275 c 0
 342 249 372 229 405 220 c 0
 409 219 448 211 491 202 c 0
 534 193 574 184 580 182 c 0
 608 174 637 158 661 141 c 0
 669 135 689 116 696 108 c 0
 713 86 728 59 734 33 c 0
 738 17 740 1 740 -14 c 0
 740 -42 733 -69 720 -96 c 0
 709 -120 697 -136 678 -155 c 0
 642 -189 596 -213 543 -221 c 0
 540 -221 537 -222 533 -222 c 0
 525 -222 514 -221 504 -221 c 0
 488 -221 472 -221 462 -221 c 0
 432 -221 407 -208 382 -199 c 0
 341 -183 316 -176 281 -171 c 0
 250 -166 237 -165 198 -165 c 0
 169 -165 161 -164 160 -163 c 1
 158 -162 152 -146 152 -143 c 0
 152 -139 154 -136 163 -130 c 0
 204 -96 236 -49 236 4 c 0
 236 10 236 16 236 19 c 0
 236 22 236 26 236 28 c 1
 238 31 244 33 249 33 c 0
 251 33 253 33 255 32 c 1
 261 29 263 26 263 17 c 0xd8
 263 -10 269 -42 279 -66 c 0
 304 -123 356 -164 426 -179 c 0
 452 -185 481 -188 506 -188 c 0
 518 -188 530 -187 539 -186 c 0
 559 -182 581 -175 597 -166 c 0
 644 -139 673 -95 673 -48 c 0
 673 -45 673 -42 673 -39 c 0
 673 -37 673 -36 673 -34 c 0
 668 10 636 49 591 72 c 0
 573 80 562 84 526 91 c 0
 508 95 471 104 442 109 c 0
 384 122 372 125 348 136 c 0
 300 160 264 195 244 239 c 0
 231 267 224 295 224 323 c 0
 224 337 226 352 230 365 c 0
 243 411 281 451 342 487 c 0
 357 496 386 510 402 517 c 2
 414 522 l 1
 274 522 l 1
 132 522 l 1
 132 559 l 1xe8
EndSplineSet
Validated: 1
EndChar

StartChar: H
Encoding: 72 72 66
Width: 934
Flags: HW
HStem: 0 22G<213 274 644 728> 582 24<448 588> 715 33<80 150>
VStem: 640 92<6 507>
LayerCount: 2
Fore
SplineSet
192 813 m 0
 197 816 198 816 206 816 c 0
 222 816 235 811 245 802 c 0
 256 792 264 778 269 759 c 2
 271 750 l 1
 272 604 l 1
 272 460 l 1
 294 481 l 2
 331 516 358 539 384 557 c 0
 419 582 451 598 481 604 c 0
 488 605 494 605 525 605 c 0
 572 605 599 603 628 596 c 0
 651 590 676 580 689 571 c 0
 708 558 723 538 729 515 c 2
 732 507 l 1
 732 256 l 1
 732 6 l 1
 728 3 l 1
 725 0 l 1
 686 0 l 1
 647 0 l 1
 644 3 l 1
 641 6 l 1
 640 257 l 1
 639 509 l 1
 636 517 l 2
 630 540 618 555 598 566 c 0
 581 574 561 580 533 582 c 0
 523 583 515 583 507 583 c 0
 480 583 463 578 438 565 c 0
 400 547 359 515 298 456 c 2
 278 437 l 1
 278 221 l 1
 278 6 l 1
 274 3 l 1
 271 0 l 1
 233 0 l 2
 192 0 191 0 188 5 c 0
 187 7 186 74 186 343 c 0
 186 648 185 679 184 684 c 0
 180 696 173 704 162 708 c 0
 151 712 126 715 96 715 c 2
 80 715 l 1
 80 731 l 1
 80 748 l 1
 91 748 l 2
 141 751 177 772 184 803 c 0
 186 809 186 809 192 813 c 0
EndSplineSet
Validated: 1
EndChar

StartChar: I
Encoding: 73 73 67
Width: 494
Flags: HW
HStem: 0 22G<227 289> 494 33<96 166> 574 20G<219 234>
VStem: 203 90<6 445>
LayerCount: 2
Fore
SplineSet
207 592 m 0
 212 595 213 595 224 595 c 0
 242 594 256 588 269 575 c 0
 280 563 290 542 292 524 c 0
 293 518 293 441 293 261 c 2
 293 6 l 1
 289 3 l 1
 286 0 l 1
 248 0 l 2
 207 0 206 0 203 5 c 0
 202 7 201 52 201 232 c 0
 200 480 201 461 194 473 c 0
 190 482 180 486 164 489 c 0
 153 491 130 494 112 494 c 2
 96 494 l 1
 96 510 l 1
 96 526 l 1
 108 526 l 2
 156 529 192 551 199 582 c 0
 201 588 201 588 207 592 c 0
EndSplineSet
Validated: 1
EndChar

StartChar: uni1E0A
Encoding: 74 7690 68
Width: 71
Flags: HW
HStem: -33 25<453 571> 603 24<455 569> 696 110<468 556>
VStem: 214 105<172 424> 457 110<708 795> 704 106<173 423>
LayerCount: 2
Fore
SplineSet
499 804 m 0
 504 805 508 806 513 806 c 0
 526 806 540 800 550 790 c 0
 561 780 567 766 567 752 c 0
 567 742 565 736 560 727 c 0
 554 713 540 699 525 696 c 0
 523 696 522 696 520 696 c 0
 510 696 l 0
 497 696 483 703 473 713 c 0
 462 723 457 737 457 752 c 0
 457 761 458 766 463 775 c 0
 469 788 484 801 499 804 c 0
134 626 m 0
 137 628 142 629 143 629 c 0
 145 629 150 627 155 625 c 0
 186 611 221 603 262 603 c 0
 284 603 l 0
 314 603 332 607 401 616 c 0
 453 624 477 627 509 627 c 0
 541 627 562 623 589 615 c 0
 664 592 727 541 766 469 c 0
 789 429 802 386 808 336 c 0
 809 329 810 313 810 297 c 0
 810 282 809 266 808 259 c 0
 802 209 789 166 766 126 c 0
 744 86 715 52 679 25 c 0
 647 0 605 -19 568 -27 c 0
 550 -31 530 -33 512 -33 c 0
 485 -33 460 -28 435 -20 c 0
 360 3 296 54 257 126 c 0
 234 166 220 209 214 259 c 0
 214 261 214 265 214 269 c 0
 214 277 214 287 214 297 c 0
 214 308 214 318 214 326 c 0
 214 330 214 334 214 336 c 0
 221 395 240 445 270 492 c 0
 295 528 329 563 363 583 c 0
 367 586 371 589 370 589 c 0
 368 589 343 585 334 582 c 0
 304 574 282 561 224 523 c 0
 180 494 156 481 129 470 c 0
 123 468 119 466 116 466 c 0
 111 466 108 470 104 478 c 0
 102 482 100 484 100 487 c 0
 100 491 102 496 106 505 c 0
 118 535 127 568 127 603 c 0
 127 610 128 619 128 620 c 1
 129 622 131 624 134 626 c 0
536 603 m 0
 531 603 523 603 515 603 c 0
 508 603 501 604 495 604 c 0
 492 604 490 603 488 603 c 0
 449 597 412 573 383 539 c 0
 338 485 320 414 320 298 c 0
 320 181 338 110 383 56 c 0
 412 22 450 0 488 -7 c 0
 494 -8 503 -8 511 -8 c 0
 520 -8 530 -8 536 -7 c 0
 574 0 611 22 640 56 c 0
 685 110 704 181 704 298 c 0
 704 414 685 485 640 539 c 0
 611 573 574 596 536 603 c 0
EndSplineSet
Validated: 1
EndChar

StartChar: Cdotaccent
Encoding: 75 266 69
Width: 52
Flags: HW
HStem: -11 27<348 518> 585 28<345 487> 696 110<363 450>
VStem: 108 106<183 414>
LayerCount: 2
Fore
SplineSet
394 805 m 0
 397 806 401 806 405 806 c 0
 414 806 424 804 433 799 c 0
 445 793 458 777 461 764 c 0
 461 763 461 762 461 760 c 0
 461 758 461 754 461 751 c 0
 461 748 461 744 461 742 c 0
 461 740 461 739 461 738 c 0
 457 720 439 700 420 696 c 0
 418 696 417 696 415 696 c 0
 405 696 l 0
 383 696 364 710 355 733 c 0
 353 739 353 742 353 752 c 0
 353 761 353 763 355 769 c 0
 362 787 377 800 394 805 c 0
378 611 m 0
 383 611 396 612 409 612 c 0
 429 612 453 610 464 610 c 0
 517 610 554 593 591 568 c 0
 611 555 624 544 649 519 c 0
 669 500 672 497 672 494 c 0
 672 493 671 489 670 489 c 1
 669 486 595 424 592 423 c 0
 591 423 590 423 589 423 c 0
 587 423 583 424 581 426 c 1
 581 427 578 435 575 445 c 0
 551 521 524 559 478 575 c 0
 458 582 439 585 410 585 c 0
 386 585 378 584 361 579 c 0
 311 563 266 517 241 461 c 0
 223 417 215 362 215 297 c 0
 215 293 215 290 215 286 c 0
 215 232 223 191 238 153 c 0
 265 81 321 28 381 17 c 0
 388 16 399 15 411 15 c 0
 430 15 455 17 474 19 c 0
 545 27 590 55 646 125 c 0
 651 130 655 135 656 136 c 1
 657 137 659 137 660 137 c 0
 663 137 666 136 669 134 c 1
 674 130 677 127 677 123 c 0
 677 121 676 119 674 116 c 0
 668 107 645 82 633 69 c 0
 591 28 551 6 497 -4 c 0
 474 -8 442 -11 412 -11 c 0
 394 -11 377 -10 365 -8 c 0
 241 10 144 103 115 228 c 0
 110 250 108 272 108 296 c 0
 108 327 113 358 122 389 c 0
 129 416 147 453 162 477 c 0
 212 553 290 601 378 611 c 0
EndSplineSet
Validated: 1
EndChar

StartChar: L
Encoding: 76 76 70
Width: 703
Flags: HW
HStem: 703 33<91 142>
VStem: 173 91<98 648> 531 27<73 133>
LayerCount: 2
Fore
SplineSet
178 801 m 1
 183 805 l 1
 194 805 l 2
 203 804 208 804 214 802 c 0
 237 794 252 775 260 744 c 2
 262 737 l 1
 263 421 l 1
 264 104 l 1
 266 94 l 2
 271 69 281 51 296 38 c 0
 312 22 332 12 361 7 c 0
 370 5 383 5 395 5 c 0
 407 5 419 5 427 7 c 0
 446 11 464 19 479 29 c 0
 489 36 506 53 513 63 c 0
 524 80 531 103 531 122 c 0
 531 126 531 128 534 130 c 0
 537 133 538 133 545 133 c 0
 552 133 552 133 555 130 c 0
 558 127 558 126 558 121 c 0
 558 113 556 97 553 87 c 0
 550 76 538 54 531 44 c 0
 517 25 500 10 475 -2 c 0
 446 -16 426 -22 393 -23 c 0
 389 -23 386 -23 382 -23 c 0
 307 -23 245 -3 209 32 c 0
 191 50 180 69 173 98 c 0
 172 104 172 130 171 388 c 0
 170 701 171 676 164 687 c 0
 157 698 138 703 103 703 c 2
 91 703 l 1
 91 720 l 1
 91 736 l 1
 95 736 l 2
 101 736 112 738 119 740 c 0
 145 748 163 767 169 790 c 0
 170 794 171 797 172 797 c 1
 178 801 l 1
EndSplineSet
Validated: 1
EndChar

StartChar: M
Encoding: 77 77 71
Width: 1176
Flags: HW
HStem: 0 22G<229 289 570 630 911 971> 505 33<98 168> 583 23<424 467 467 476 471 511 765 807 807 817 812 852>
VStem: 206 87<6 438 471 496> 547 87<6 438 471 525> 888 87<6 511>
CounterMasks: 1 1c
LayerCount: 2
Fore
SplineSet
210 603 m 0
 215 606 216 606 227 606 c 0
 244 605 254 601 265 591 c 0
 274 583 283 569 288 555 c 0
 292 542 293 532 293 501 c 2
 293 471 l 1
 306 487 l 2
 363 558 404 592 443 603 c 0
 450 605 452 605 477 605 c 0
 512 605 536 602 559 594 c 0
 589 584 610 569 621 546 c 0
 630 529 634 511 634 486 c 2
 634 471 l 1
 647 487 l 2
 704 558 745 592 784 603 c 0
 791 605 793 605 818 605 c 0
 845 605 858 604 878 600 c 0
 901 596 923 586 938 575 c 0
 951 564 964 546 969 528 c 0
 975 509 975 524 975 254 c 2
 975 6 l 1
 971 3 l 1
 968 0 l 1
 931 0 l 2
 892 0 891 0 888 5 c 0
 887 7 886 58 886 262 c 2
 885 516 l 1
 883 525 l 2
 880 537 878 545 872 553 c 0
 860 572 840 581 808 583 c 0
 797 583 794 583 787 581 c 0
 753 573 712 537 652 462 c 2
 634 438 l 1
 634 222 l 1
 634 6 l 1
 630 3 l 1
 627 0 l 1
 590 0 l 2
 551 0 550 0 547 5 c 0
 546 7 545 58 545 262 c 2
 544 516 l 1
 542 525 l 2
 539 537 537 545 531 553 c 0
 519 572 499 581 467 583 c 0
 456 583 453 583 446 581 c 0
 412 573 371 537 311 462 c 2
 293 438 l 1
 293 222 l 1
 293 6 l 1
 289 3 l 1
 286 0 l 1
 249 0 l 2
 210 0 209 0 206 5 c 0
 205 7 204 54 204 239 c 0
 203 492 204 472 197 484 c 0
 193 493 183 498 167 501 c 0
 156 503 133 505 114 505 c 2
 98 505 l 1
 98 521 l 1
 98 538 l 1
 109 538 l 2
 159 541 195 562 202 593 c 0
 204 599 204 599 210 603 c 0
EndSplineSet
Validated: 1
EndChar

StartChar: N
Encoding: 78 78 72
Width: 952
Flags: HW
HStem: 0 22G<230 292 662 746> 505 33<98 168> 582 24<466 606>
VStem: 204 92<6 437 460 497> 657 92<6 507>
LayerCount: 2
Fore
SplineSet
210 603 m 0
 215 606 216 606 224 606 c 0
 240 606 253 601 263 592 c 0
 274 582 282 568 287 549 c 0
 289 540 289 539 290 500 c 2
 290 460 l 1
 312 481 l 2
 349 516 375 539 401 557 c 0
 436 582 469 598 499 604 c 0
 506 605 512 605 543 605 c 0
 590 605 617 603 646 596 c 0
 669 590 694 580 707 571 c 0
 726 558 741 538 747 515 c 2
 750 507 l 1
 750 256 l 1
 750 6 l 1
 746 3 l 1
 742 0 l 1
 704 0 l 1
 665 0 l 1
 662 3 l 1
 659 6 l 1
 657 257 l 1
 656 509 l 1
 654 517 l 2
 648 540 636 555 616 566 c 0
 599 574 579 580 551 582 c 0
 541 583 533 583 525 583 c 0
 498 583 481 578 456 565 c 0
 418 547 376 515 315 456 c 2
 296 437 l 1
 296 221 l 1
 296 6 l 1
 292 3 l 1
 289 0 l 1
 251 0 l 2
 210 0 209 0 206 5 c 0
 205 7 204 54 204 239 c 0
 203 492 204 472 197 484 c 0
 193 493 183 498 167 501 c 0
 156 503 133 505 114 505 c 2
 98 505 l 1
 98 521 l 1
 98 538 l 1
 109 538 l 2
 159 541 195 562 202 593 c 0
 204 599 204 599 210 603 c 0
EndSplineSet
Validated: 1
EndChar

StartChar: O
Encoding: 79 79 73
Width: 912
Flags: HW
HStem: -22 27<359 484>
VStem: 110 104<173 419> 628 104<176 419>
LayerCount: 2
Fore
SplineSet
394 616 m 0
 399 616 411 617 420 617 c 0
 421 617 421 617 422 617 c 0
 538 617 645 550 699 442 c 0
 716 407 726 376 732 336 c 0
 733 326 734 310 734 295 c 0
 734 280 733 264 732 255 c 0
 728 226 722 202 712 178 c 0
 674 80 588 8 488 -15 c 0
 463 -20 451 -22 422 -22 c 0
 392 -22 379 -20 355 -15 c 0
 296 -2 242 28 199 72 c 0
 151 122 120 183 110 255 c 0
 109 264 109 280 109 295 c 0
 109 310 109 326 110 336 c 0
 116 376 126 407 143 442 c 0
 192 540 288 606 394 616 c 0
439 590 m 0
 433 591 427 591 421 591 c 0
 374 591 327 571 290 535 c 0
 241 485 215 408 215 309 c 0
 215 221 231 152 264 100 c 0
 301 41 361 5 422 5 c 0
 475 5 530 34 566 82 c 0
 608 138 628 211 628 309 c 0
 628 408 602 485 553 535 c 0
 521 566 482 585 439 590 c 0
EndSplineSet
Validated: 1
EndChar

StartChar: P
Encoding: 80 80 74
Width: 994
Flags: HW
HStem: -199 22G<236 297> -13 24<507 596> 494 33<103 173> 580 27<430 556>
VStem: 209 89<-190 388> 427 27<112 177> 710 106<172 409>
LayerCount: 2
Fore
SplineSet
483 604 m 0
 484 604 486 605 488 605 c 0
 492 605 498 604 504 604 c 0
 512 604 521 604 527 604 c 0
 553 604 580 597 604 589 c 0
 637 578 671 560 698 538 c 0
 713 526 742 497 753 482 c 0
 782 444 800 402 809 358 c 0
 813 336 816 315 816 292 c 0
 816 249 807 204 791 163 c 0
 782 138 761 106 744 84 c 0
 735 72 712 50 701 41 c 0
 657 6 603 -13 553 -13 c 0
 551 -13 548 -13 546 -13 c 0
 521 -13 502 -6 482 8 c 0
 457 24 439 31 411 31 c 0
 396 31 385 30 370 24 c 0
 364 22 359 20 356 20 c 0
 351 20 349 25 345 36 c 0
 343 43 343 43 345 46 c 1
 346 49 349 51 357 54 c 1
 387 70 411 96 421 128 c 0
 424 138 427 154 427 162 c 0
 427 174 430 177 441 177 c 0
 446 177 448 177 451 174 c 0
 453 172 454 170 454 167 c 0
 454 164 455 154 455 145 c 0
 455 90 470 56 492 34 c 0
 505 21 519 14 537 11 c 0
 541 10 546 10 550 10 c 0
 579 10 604 22 628 46 c 0
 658 76 683 125 696 179 c 0
 704 214 710 253 710 292 c 0
 710 312 708 332 706 351 c 0
 691 457 626 545 545 571 c 0
 529 576 511 580 494 580 c 0
 461 580 428 569 400 551 c 0
 350 518 314 461 302 395 c 0
 301 389 301 379 301 365 c 0
 301 348 301 342 299 340 c 1
 299 339 298 333 298 310 c 0
 298 277 300 212 300 75 c 0
 300 -68 301 -188 301 -190 c 1
 300 -192 299 -195 297 -196 c 1
 294 -199 l 1
 256 -199 l 2
 215 -199 212 -199 209 -194 c 0
 209 -193 208 -185 208 -166 c 0
 208 -127 209 -41 209 133 c 0
 209 330 209 409 209 441 c 0
 209 457 209 461 209 463 c 0
 205 475 196 482 185 486 c 0
 174 490 149 494 119 494 c 2
 103 494 l 1
 103 510 l 1
 103 526 l 1
 114 526 l 1
 164 526 200 549 207 580 c 0
 209 586 209 588 216 592 c 0
 221 595 221 595 232 595 c 0
 249 595 259 590 270 580 c 0
 283 569 293 548 296 529 c 2
 298 521 l 1
 298 534 l 2
 298 536 298 536 298 536 c 0
 298 536 299 526 299 509 c 2
 299 471 l 1
 306 483 l 2
 335 535 377 573 427 592 c 0
 440 597 459 602 472 604 c 0
 473 604 475 604 476 604 c 0
 479 604 482 604 483 604 c 0
EndSplineSet
Validated: 1
EndChar

StartChar: uni1E1E
Encoding: 81 7710 75
Width: 854
Flags: HW
HStem: -199 22G<238 300> 111 73<304 709> 505 33<106 176> 582 25<492 615>
VStem: 212 92<-193 111 183 437 459 474> 691 109<461 522>
LayerCount: 2
Fore
SplineSet
538 804 m 0
 541 805 546 806 551 806 c 0
 558 806 565 805 570 803 c 0
 589 796 603 778 606 759 c 0
 606 756 606 754 606 751 c 0
 606 728 591 706 569 699 c 0
 564 697 558 697 551 697 c 0
 544 697 538 697 534 699 c 0
 517 705 505 717 499 734 c 0
 497 738 497 745 497 751 c 0
 497 757 497 763 499 767 c 0
 505 786 519 799 538 804 c 0
218 603 m 0
 223 606 224 606 232 606 c 0
 248 606 261 601 271 592 c 0
 282 582 290 568 295 549 c 0
 297 540 297 539 298 499 c 2
 298 459 l 1
 303 464 l 2
 400 550 463 590 520 603 c 0
 530 605 535 605 558 606 c 0
 563 606 568 606 573 606 c 0
 618 606 660 602 690 594 c 0
 714 589 739 577 753 568 c 0
 779 551 797 522 799 492 c 0
 799 486 799 482 798 480 c 0
 797 477 708 402 704 400 c 0
 703 400 702 399 701 399 c 0
 697 399 693 402 691 406 c 1
 691 408 690 418 690 428 c 0
 689 451 687 467 683 484 c 0
 668 544 632 576 566 582 c 0
 559 583 553 583 547 583 c 0
 529 583 512 579 493 572 c 0
 449 556 402 523 326 457 c 2
 304 437 l 1
 304 310 l 1
 304 183 l 1
 507 183 l 1
 709 183 l 1
 709 147 l 1
 709 111 l 1
 507 111 l 1
 304 111 l 1
 304 -41 l 1
 304 -193 l 1
 300 -196 l 1
 297 -199 l 1
 259 -199 l 2
 218 -199 217 -199 214 -194 c 0
 213 -192 212 -126 212 139 c 0
 212 438 211 469 210 474 c 0
 206 486 199 494 188 498 c 0
 177 502 151 505 121 505 c 2
 106 505 l 1
 106 521 l 1
 106 538 l 1
 116 538 l 2
 166 541 203 562 210 593 c 0
 212 599 212 599 218 603 c 0
EndSplineSet
Validated: 1
EndChar

StartChar: R
Encoding: 82 82 76
Width: 954
Flags: HW
HStem: -23 24<735 784> 273 25<389 477> 494 33<95 165> 579 28<356 501>
VStem: 203 87<6 485> 588 106<50 197 395 522> 798 27<13 50>
LayerCount: 2
Fore
SplineSet
402 604 m 0
 404 604 406 605 408 605 c 0
 413 605 419 604 425 604 c 0
 439 604 454 606 469 606 c 0
 477 606 485 605 492 604 c 0
 586 593 665 550 687 502 c 0
 692 491 694 481 694 467 c 0
 694 445 690 429 678 406 c 0
 670 390 660 376 646 361 c 0
 617 333 581 312 535 296 c 0
 527 293 523 292 523 291 c 0
 523 290 528 290 536 288 c 0
 571 282 600 270 624 255 c 0
 631 251 638 245 646 237 c 0
 659 224 667 213 673 198 c 0
 677 188 678 186 696 117 c 0
 709 69 717 48 723 34 c 0
 730 16 741 2 749 0 c 0
 750 0 751 0 751 0 c 0
 761 0 777 6 785 12 c 0
 792 18 798 30 798 38 c 0
 798 45 803 50 811 50 c 0
 819 50 824 46 824 37 c 0
 824 29 820 9 805 -3 c 0
 792 -15 771 -23 749 -23 c 0
 719 -23 690 -16 666 -5 c 0
 633 9 610 35 600 69 c 0
 595 82 591 91 591 134 c 0
 591 180 587 187 583 197 c 0
 576 219 558 237 531 250 c 0
 502 263 461 273 415 273 c 0
 402 273 395 273 392 273 c 0
 390 273 390 273 389 273 c 0
 386 275 384 280 384 285 c 0
 384 287 384 289 385 291 c 0
 387 297 391 298 409 298 c 0
 462 298 506 316 540 345 c 0
 571 372 588 415 588 465 c 0
 588 480 586 491 581 501 c 0
 565 534 525 561 477 572 c 0
 457 577 443 579 419 579 c 0
 407 579 402 579 396 579 c 0
 393 579 390 580 387 579 c 0
 369 575 353 566 337 555 c 0
 325 547 305 527 297 515 c 2
 291 506 l 1
 291 256 l 1
 291 6 l 1
 286 3 l 1
 283 0 l 1
 246 0 l 2
 207 0 206 0 203 5 c 0
 203 6 202 11 202 25 c 0
 202 52 203 112 203 232 c 0
 203 480 201 461 194 473 c 0
 190 482 180 486 164 489 c 0
 153 491 130 494 111 494 c 2
 95 494 l 1
 95 510 l 1
 95 526 l 1
 106 526 l 1
 156 526 192 551 199 582 c 0
 201 588 201 588 208 592 c 0
 213 595 213 595 224 595 c 0
 241 595 251 589 262 579 c 0
 275 568 285 549 288 529 c 2
 290 521 l 1
 290 535 l 1
 290 548 l 1
 299 557 l 2
 312 569 326 579 342 587 c 0
 361 596 382 601 402 604 c 0
EndSplineSet
Validated: 1
EndChar

StartChar: S
Encoding: 83 83 77
Width: 824
Flags: HW
HStem: -23 33<314 467> 588 29<301 445>
VStem: 129 108<427 528> 186 27<105 177> 534 105<73 221> 557 27<421 479>
LayerCount: 2
Fore
SplineSet
326 616 m 0xe8
 330 616 338 616 346 616 c 0
 364 616 388 615 398 615 c 0
 430 615 453 603 483 588 c 0
 517 571 532 565 563 565 c 0
 579 565 583 565 594 567 c 0
 601 568 611 570 616 572 c 1
 621 573 624 574 627 574 c 0
 629 574 631 573 632 572 c 1
 634 571 641 556 641 553 c 0
 641 550 637 546 633 542 c 0
 623 533 608 512 600 497 c 0
 590 478 583 452 583 430 c 0
 583 425 583 424 580 421 c 0
 577 418 577 418 570 418 c 0
 564 418 563 418 560 421 c 0
 558 423 557 425 557 430 c 1xe4
 553 458 542 488 528 510 c 0
 494 559 442 588 367 588 c 0
 350 588 338 587 326 584 c 0
 286 574 252 540 241 500 c 0
 236 485 236 478 236 462 c 0
 236 443 237 432 242 418 c 0
 255 381 284 352 320 341 c 0
 324 339 362 331 404 322 c 0
 486 306 498 302 515 296 c 0
 549 284 574 267 596 247 c 0
 618 227 630 204 637 176 c 0
 639 167 640 162 640 148 c 0
 640 144 640 141 640 138 c 0
 640 127 638 119 633 106 c 0
 614 44 547 -4 463 -18 c 0
 448 -21 430 -23 412 -23 c 0
 389 -23 367 -20 347 -16 c 0
 321 -11 304 -5 278 7 c 0
 268 12 255 17 250 19 c 0
 234 25 215 29 197 29 c 0
 193 29 190 28 186 28 c 0
 175 28 167 26 148 22 c 0
 146 22 144 21 142 21 c 0
 136 21 133 24 129 34 c 0
 128 38 129 40 129 42 c 0xe8
 129 46 131 49 137 53 c 0
 149 65 165 87 172 102 c 0
 180 120 186 146 186 164 c 0
 186 174 190 177 200 177 c 0
 205 177 207 177 209 174 c 1
 212 172 213 171 213 159 c 0xd0
 213 136 219 117 226 100 c 0
 253 45 314 10 400 10 c 0
 417 10 429 11 441 14 c 0
 470 21 497 43 515 73 c 0
 528 95 534 120 534 147 c 0
 534 165 531 185 525 202 c 0
 511 238 482 268 448 279 c 0
 445 280 405 288 361 298 c 0
 261 318 252 321 221 336 c 0
 189 351 165 370 150 393 c 0
 145 401 136 419 134 427 c 0
 131 438 129 450 129 461 c 0
 129 490 139 517 161 542 c 0
 195 582 258 616 326 616 c 0xe8
EndSplineSet
Validated: 1
EndChar

StartChar: T
Encoding: 84 84 78
Width: 933
Flags: HW
HStem: 522 73<112 342 387 782>
VStem: 170 104<161 377>
LayerCount: 2
Fore
SplineSet
112 559 m 1
 112 595 l 1
 448 595 l 1
 782 595 l 1
 782 559 l 1
 782 522 l 1
 623 522 l 2
 518 522 461 522 454 521 c 0
 398 515 349 484 316 435 c 0
 290 396 277 347 275 282 c 0
 275 277 274 272 274 268 c 0
 274 205 287 152 313 111 c 0
 343 62 391 27 444 17 c 0
 452 16 463 16 475 16 c 0
 504 16 539 19 562 25 c 0
 596 33 619 47 645 73 c 0
 660 88 671 101 687 125 c 0
 693 133 699 141 700 142 c 1
 701 143 703 143 704 143 c 0
 707 143 710 142 713 140 c 0
 718 136 720 135 720 131 c 0
 720 127 717 121 709 110 c 0
 663 41 621 10 560 -3 c 0
 537 -8 507 -11 478 -11 c 0
 457 -11 437 -10 420 -7 c 0
 358 3 302 30 257 71 c 0
 231 95 211 121 196 154 c 0
 183 180 175 204 170 233 c 0
 169 241 169 255 169 269 c 0
 169 283 169 296 170 305 c 0
 175 333 183 358 196 385 c 0
 215 425 243 457 280 485 c 0
 295 497 306 504 326 514 c 2
 342 522 l 1
 226 522 l 1
 112 522 l 1
 112 559 l 1
EndSplineSet
Validated: 1
EndChar

StartChar: U
Encoding: 85 85 79
Width: 935
Flags: HW
HStem: -10 23<368 507> 505 33<82 152 536 606> 586 20G<206 221 659 675>
VStem: 193 91<92 158 158 356> 639 94<-5 145 145 215 215 472>
LayerCount: 2
Fore
SplineSet
194 603 m 0
 199 606 200 606 211 606 c 0
 229 605 243 600 256 587 c 0
 266 575 276 555 279 537 c 0
 280 531 280 474 280 356 c 0
 280 184 280 162 284 137 c 0
 289 96 301 69 321 50 c 0
 347 26 384 14 435 12 c 0
 437 12 439 12 441 12 c 0
 480 12 511 21 542 41 c 0
 595 77 629 138 639 215 c 0
 640 222 641 285 641 346 c 0
 641 407 640 468 639 472 c 0
 637 480 632 490 628 493 c 0
 617 501 591 505 551 505 c 2
 536 505 l 1
 536 521 l 1
 536 538 l 1
 546 538 l 2
 596 541 632 562 639 593 c 0
 641 599 642 599 649 603 c 0
 654 606 654 606 665 606 c 0
 684 605 697 600 710 587 c 0
 721 575 731 554 733 536 c 0
 734 530 734 448 734 261 c 2
 734 -5 l 1
 729 -8 l 1
 726 -11 l 1
 688 -11 l 1
 652 -11 l 1
 649 -8 l 1
 645 -5 l 1
 644 70 l 1
 644 145 l 1
 639 133 l 2
 625 98 606 70 581 45 c 0
 564 29 551 19 529 8 c 0
 500 -6 474 -11 436 -11 c 0
 427 -11 417 -11 406 -10 c 0
 339 -6 290 11 253 43 c 0
 222 69 201 110 193 158 c 0
 189 183 189 181 188 328 c 0
 187 483 188 472 181 484 c 0
 177 493 167 498 151 501 c 0
 140 503 117 505 98 505 c 2
 82 505 l 1
 82 521 l 1
 82 538 l 1
 93 538 l 2
 143 541 179 562 186 593 c 0
 188 599 188 599 194 603 c 0
EndSplineSet
Validated: 1
EndChar

StartChar: uni1E02
Encoding: 86 7682 80
Width: 59
Flags: HW
HStem: -11 24<393 512> 582 25<418 534> 696 110<441 528> 703 33<64 134>
VStem: 170 92<210 413 469 670> 430 110<708 795> 643 106<181 423>
LayerCount: 2
Fore
SplineSet
430 752 m 0xee
 430 783 455 806 485 806 c 0
 518 806 539 778 539 752 c 0
 539 726 518 696 484 696 c 0
 457 696 430 717 430 752 c 0xee
749 300 m 0
 749 116 607 -11 456 -11 c 0
 321 -11 200 72 173 210 c 2
 170 223 l 1
 170 445 l 1
 170 511 170 559 170 594 c 0
 170 691 166 693 133 699 c 0
 122 701 98 703 79 703 c 2
 64 703 l 1
 64 736 l 1
 75 736 l 1xde
 124 736 163 761 170 792 c 0
 174 805 182 805 190 805 c 0
 191 805 192 805 193 805 c 0
 237 805 256 768 261 735 c 0
 262 729 262 685 262 598 c 2
 262 469 l 1
 270 480 l 2
 319 555 399 604 485 604 c 0
 621 604 749 477 749 300 c 0
643 302 m 0
 643 407 626 550 508 582 c 1
 506 582 502 582 499 582 c 0
 492 582 484 582 476 582 c 0
 440 582 334 560 268 426 c 2
 262 413 l 1
 262 313 l 1
 262 299 262 286 262 271 c 0
 262 190 268 97 355 42 c 0
 385 24 420 12 454 12 c 0
 551 12 602 95 616 130 c 0
 635 173 643 224 643 302 c 0
EndSplineSet
Validated: 1
EndChar

StartChar: uni1E40
Encoding: 87 7744 81
Width: 92
Flags: HW
HStem: 0 22G<228 292 569 633 910 974> 505 33<97 167> 583 23<422 508 763 850> 696 110<545 631>
VStem: 205 87<6 438 471 496> 533 110<707 794> 546 87<6 438 471 559> 887 87<6 511>
LayerCount: 2
Fore
SplineSet
533 752 m 0xfd
 533 782 559 806 590 806 c 0
 614 806 643 786 643 752 c 0
 643 719 616 696 590 696 c 0
 560 696 533 719 533 752 c 0xfd
292 6 m 1
 285 0 l 1
 248 0 l 2
 209 0 208 0 205 5 c 0
 205 6 204 11 204 25 c 0
 204 53 205 115 205 239 c 0
 205 300 205 345 205 380 c 0
 205 493 201 495 166 501 c 0
 155 503 131 505 112 505 c 2
 97 505 l 1
 97 538 l 1
 107 538 l 1
 157 538 194 564 201 595 c 0
 204 603 209 605 215 605 c 0
 219 605 223 604 226 604 c 0
 252 604 274 592 287 555 c 0
 291 542 292 532 292 501 c 2
 292 471 l 1
 305 487 l 2
 399 603 437 604 474 604 c 0
 476 604 l 0
 560 604 633 581 633 486 c 2
 633 471 l 1
 646 487 l 2
 740 603 778 604 815 604 c 0
 817 604 l 0
 873 604 950 595 968 528 c 0
 974 509 974 524 974 254 c 2
 974 6 l 1
 966 0 l 1
 930 0 l 2
 891 0 890 0 887 5 c 0
 886 7 884 58 884 262 c 2
 884 516 l 1
 877 548 868 583 807 583 c 0
 804 583 l 0
 781 583 747 581 651 462 c 2
 633 438 l 1
 633 6 l 1
 626 0 l 1
 589 0 l 2
 550 0 549 0 546 5 c 0xfb
 545 7 543 58 543 262 c 2
 543 516 l 1
 536 548 527 583 466 583 c 0
 463 583 l 0
 440 583 406 581 310 462 c 2
 292 438 l 1
 292 6 l 1
EndSplineSet
Validated: 1
EndChar

StartChar: uni1E6A
Encoding: 88 7786 82
Width: 829
Flags: HW
HStem: 522 73<112 343 387 783>
VStem: 171 104<161 377>
LayerCount: 2
Fore
SplineSet
460 804 m 0
 464 805 470 806 474 806 c 0
 497 800 l 0
 509 794 519 783 525 769 c 0
 527 763 527 761 527 752 c 0
 527 742 527 739 525 733 c 0
 521 724 514 715 508 710 c 0
 498 701 486 696 473 696 c 0
 459 696 446 702 436 712 c 0
 424 723 418 736 418 752 c 0
 418 759 419 763 420 767 c 0
 426 785 442 800 460 804 c 0
112 559 m 1
 112 595 l 1
 448 595 l 1
 783 595 l 1
 783 559 l 1
 783 522 l 1
 623 522 l 2
 518 522 461 522 454 521 c 0
 398 515 349 484 316 435 c 0
 290 396 277 347 275 282 c 0
 275 277 275 272 275 268 c 0
 275 205 288 152 314 111 c 0
 344 62 391 27 444 17 c 0
 452 16 463 16 475 16 c 0
 504 16 540 19 563 25 c 0
 597 33 620 47 646 73 c 0
 661 88 672 101 688 125 c 0
 694 133 699 141 700 142 c 1
 701 143 703 143 704 143 c 0
 707 143 710 142 713 140 c 0
 718 136 721 135 721 131 c 0
 721 127 717 121 709 110 c 0
 663 41 622 10 561 -3 c 0
 538 -8 507 -11 478 -11 c 0
 457 -11 437 -10 420 -7 c 0
 358 3 303 30 258 71 c 0
 232 95 211 121 196 154 c 0
 183 180 176 204 171 233 c 0
 170 241 169 255 169 269 c 0
 169 283 170 296 171 305 c 0
 176 333 183 358 196 385 c 0
 215 425 243 457 280 485 c 0
 295 497 306 504 326 514 c 2
 343 522 l 1
 227 522 l 1
 112 522 l 1
 112 559 l 1
EndSplineSet
Validated: 1
EndChar

StartChar: Gdotaccent
Encoding: 89 288 83
Width: 81
Flags: HW
HStem: -221 33<401 584> 522 73<132 414 515 774> 696 110<410 497>
VStem: 223 67<286 400> 236 27<-46 28> 398 110<708 795> 673 67<-101 21>
LayerCount: 2
Fore
SplineSet
440 804 m 0xe6
 445 805 450 806 455 806 c 0
 468 806 482 800 492 790 c 0
 503 780 508 766 508 752 c 0
 508 737 503 723 492 713 c 0
 482 703 468 696 455 696 c 0
 452 696 448 696 445 696 c 0
 440 696 l 0
 425 699 411 713 405 727 c 0
 400 736 398 742 398 752 c 0
 398 761 400 766 405 775 c 0
 411 788 425 801 440 804 c 0xe6
132 559 m 1
 132 595 l 1
 454 595 l 1
 774 595 l 1
 774 559 l 1
 774 522 l 1
 644 522 l 1
 515 522 l 1
 500 518 l 2
 469 510 435 497 406 485 c 0
 351 459 313 430 298 398 c 0
 293 386 290 372 290 358 c 0xf6
 290 330 301 300 320 275 c 0
 342 249 372 229 405 220 c 0
 409 219 448 211 491 202 c 0
 534 193 574 184 580 182 c 0
 608 174 637 158 661 141 c 0
 669 135 688 116 695 108 c 0
 712 86 727 59 733 33 c 0
 737 17 739 1 739 -14 c 0
 739 -42 733 -69 720 -96 c 0
 709 -120 697 -136 678 -155 c 0
 642 -189 596 -213 543 -221 c 0
 540 -221 537 -222 533 -222 c 0
 525 -222 514 -221 504 -221 c 0
 488 -221 472 -221 462 -221 c 0
 432 -221 407 -208 382 -199 c 0
 341 -183 316 -176 281 -171 c 0
 250 -166 237 -165 198 -165 c 0
 169 -165 161 -164 160 -163 c 1
 158 -162 152 -146 152 -143 c 0
 152 -139 154 -136 163 -130 c 0
 204 -96 236 -49 236 4 c 0
 236 10 236 16 236 19 c 0
 236 22 236 26 236 28 c 1
 238 31 243 33 248 33 c 0
 250 33 253 33 255 32 c 1
 261 29 262 26 262 17 c 0xee
 262 -10 269 -42 279 -66 c 0
 304 -123 356 -164 426 -179 c 0
 452 -185 481 -188 506 -188 c 0
 518 -188 530 -187 539 -186 c 0
 559 -182 581 -175 597 -166 c 0
 644 -139 673 -95 673 -48 c 0
 673 -45 673 -42 673 -39 c 0
 673 -37 673 -36 673 -34 c 0
 668 10 636 49 591 72 c 0
 573 80 561 84 525 91 c 0
 507 95 470 104 441 109 c 0
 383 122 371 125 347 136 c 0
 299 160 264 195 244 239 c 0
 231 267 223 295 223 323 c 0xf6
 223 337 225 352 229 365 c 0
 242 411 281 451 342 487 c 0
 357 496 386 510 402 517 c 2
 414 522 l 1
 274 522 l 1
 132 522 l 1
 132 559 l 1
EndSplineSet
Validated: 1
EndChar

StartChar: uni1E60
Encoding: 90 7776 84
Width: 72
Flags: HW
HStem: -23 33<314 467> 588 29<301 444>
VStem: 128 108<427 528> 186 27<105 177> 534 105<73 221> 556 27<421 479>
LayerCount: 2
Fore
SplineSet
343 804 m 0xc0
 347 805 353 806 357 806 c 0
 380 800 l 0
 392 794 402 783 408 769 c 0
 410 763 410 761 410 752 c 0
 410 742 410 739 408 733 c 0
 399 709 379 696 357 696 c 0
 348 696 338 698 330 703 c 0
 318 709 305 725 302 738 c 0
 302 739 302 740 302 742 c 0
 302 744 302 748 302 751 c 0
 302 754 302 758 302 760 c 0
 302 762 302 763 302 764 c 0
 306 782 324 800 343 804 c 0xc0
326 616 m 0
 330 616 337 616 345 616 c 0
 363 616 388 615 398 615 c 0
 430 615 453 603 483 588 c 0
 517 571 531 565 562 565 c 0
 578 565 583 565 594 567 c 0
 601 568 611 570 616 572 c 1
 621 573 624 574 627 574 c 0
 629 574 631 573 632 572 c 1
 634 571 640 556 640 553 c 0
 640 550 637 546 633 542 c 0
 623 533 607 512 599 497 c 0
 589 478 583 452 583 430 c 0
 583 425 583 424 580 421 c 0
 577 418 577 418 570 418 c 0
 564 418 562 418 559 421 c 0
 557 423 556 425 556 430 c 1xe4
 552 458 542 488 528 510 c 0
 494 559 442 588 367 588 c 0
 350 588 338 587 326 584 c 0
 286 574 252 540 241 500 c 0
 236 485 236 478 236 462 c 0
 236 443 237 432 242 418 c 0
 255 381 284 352 320 341 c 0
 324 339 362 331 404 322 c 0
 486 306 497 302 514 296 c 0
 548 284 573 267 595 247 c 0
 617 227 630 204 637 176 c 0
 639 167 639 162 639 148 c 0
 639 144 639 141 639 138 c 0
 639 127 638 119 633 106 c 0
 614 44 547 -4 463 -18 c 0
 448 -21 430 -23 412 -23 c 0
 389 -23 366 -20 346 -16 c 0
 320 -11 304 -5 278 7 c 0
 268 12 255 17 250 19 c 0
 234 25 215 29 197 29 c 0
 193 29 190 28 186 28 c 0
 175 28 167 26 148 22 c 0
 146 22 143 21 141 21 c 0
 135 21 132 24 128 34 c 0
 127 38 128 40 128 42 c 0xe8
 128 46 131 49 137 53 c 0
 149 65 164 87 171 102 c 0
 179 120 186 146 186 164 c 0
 186 174 190 177 200 177 c 0
 205 177 207 177 209 174 c 1
 212 172 212 171 212 159 c 0xd0
 212 136 219 117 226 100 c 0
 253 45 314 10 400 10 c 0
 417 10 429 11 441 14 c 0
 470 21 496 43 514 73 c 0
 527 95 534 120 534 147 c 0
 534 165 531 185 525 202 c 0
 511 238 482 268 448 279 c 0
 445 280 405 288 361 298 c 0
 261 318 251 321 220 336 c 0
 188 351 165 370 150 393 c 0
 145 401 135 419 133 427 c 0
 130 438 128 450 128 461 c 0xe8
 128 490 139 517 161 542 c 0
 195 582 258 616 326 616 c 0
EndSplineSet
Validated: 1
EndChar

StartChar: bracketleft
Encoding: 91 91 85
Width: 340
Flags: HW
HStem: -256 41<218 317> 727 41<218 317>
VStem: 177 140<-256 -215 727 768> 177 41<-215 727>
LayerCount: 2
Fore
SplineSet
177 256 m 1xd0
 177 768 l 1
 247 768 l 1
 317 768 l 1
 317 748 l 1
 317 727 l 1xe0
 268 727 l 1
 218 727 l 1
 218 256 l 1
 218 -215 l 1xd0
 268 -215 l 1
 317 -215 l 1
 317 -236 l 1
 317 -256 l 1
 247 -256 l 1
 177 -256 l 1xe0
 177 256 l 1xd0
EndSplineSet
Validated: 1
EndChar

StartChar: backslash
Encoding: 92 92 86
Width: 17
Flags: HW
LayerCount: 2
Fore
SplineSet
444 -255 m 1
 440 -253 436 -250 434 -246 c 0
 434 -246 351 -20 253 250 c 0
 88 705 74 743 74 749 c 0
 74 754 74 755 77 759 c 0
 78 761 83 764 85 766 c 1
 88 767 91 768 94 768 c 0
 101 768 107 764 111 758 c 0
 111 758 194 532 292 262 c 0
 419 -87 472 -232 472 -236 c 0
 472 -246 463 -256 452 -256 c 0
 449 -256 445 -256 444 -255 c 1
EndSplineSet
Validated: 1
EndChar

StartChar: bracketright
Encoding: 93 93 87
Width: 359
Flags: HW
HStem: -256 41<98 197> 727 41<98 197>
VStem: 98 140<-256 -215 727 768> 197 41<-215 727>
LayerCount: 2
Fore
SplineSet
98 748 m 1xe0
 98 768 l 1
 168 768 l 1
 238 768 l 1xe0
 238 256 l 1xd0
 238 -256 l 1
 168 -256 l 1
 98 -256 l 1
 98 -236 l 1
 98 -215 l 1xe0
 148 -215 l 1
 197 -215 l 1
 197 256 l 1
 197 727 l 1xd0
 148 727 l 1
 98 727 l 1
 98 748 l 1xe0
EndSplineSet
Validated: 1
EndChar

StartChar: asciicircum
Encoding: 94 94 88
Width: -38
Flags: HW
HStem: 499 104
VStem: 84 266
LayerCount: 2
Fore
SplineSet
151 563 m 0
 186 585 217 604 218 604 c 0
 221 603 350 522 350 521 c 0
 350 518 341 501 339 499 c 1
 337 499 309 509 278 523 c 1
 244 537 218 549 217 549 c 0
 215 548 189 536 156 523 c 1
 126 509 98 499 96 499 c 0
 94 500 84 520 84 521 c 1
 85 521 114 539 151 563 c 0
EndSplineSet
Validated: 1
EndChar

StartChar: underscore
Encoding: 95 95 89
Width: 852
Flags: HW
HStem: -239 41<156 751>
LayerCount: 2
Fore
SplineSet
152 -200 m 2
 156 -198 l 1
 453 -198 l 1
 751 -198 l 1
 755 -200 l 2
 758 -202 762 -205 764 -207 c 1
 766 -211 767 -212 767 -218 c 0
 767 -224 766 -225 764 -229 c 1
 762 -231 758 -235 755 -237 c 2
 751 -239 l 1
 453 -239 l 1
 156 -239 l 1
 152 -237 l 2
 149 -235 146 -231 145 -229 c 0
 142 -225 142 -224 142 -218 c 0
 142 -212 142 -211 145 -207 c 0
 146 -205 149 -202 152 -200 c 2
EndSplineSet
Validated: 1
EndChar

StartChar: quoteleft
Encoding: 96 8216 90
Width: 346
Flags: HW
LayerCount: 2
Fore
SplineSet
226 602 m 0
 228 603 229 604 231 604 c 0
 233 604 236 603 239 600 c 1
 242 596 243 595 243 592 c 0
 243 588 242 586 231 575 c 0
 224 568 216 559 212 554 c 0
 184 519 167 480 160 437 c 0
 159 426 158 407 158 396 c 0
 158 394 158 391 158 390 c 2
 159 385 l 1
 165 390 l 2
 176 400 191 405 205 405 c 0
 220 405 233 400 243 389 c 0
 253 378 258 364 258 350 c 0
 258 331 249 312 231 303 c 0
 222 298 212 296 203 296 c 0
 188 296 173 302 161 315 c 0
 154 322 147 337 143 350 c 0
 138 365 135 383 135 403 c 0
 135 424 138 446 143 468 c 0
 148 487 152 500 161 519 c 0
 170 536 178 549 189 563 c 0
 197 574 221 599 226 602 c 0
EndSplineSet
Validated: 1
EndChar

StartChar: a
Encoding: 97 97 91
Width: 648
Flags: HW
HStem: -12 61<235 325>
LayerCount: 2
Fore
SplineSet
311 356 m 0
 308 363 304 375 302 381 c 2
 297 392 l 1
 295 389 l 2
 289 380 167 187 167 187 c 1
 173 171 l 2
 201 108 223 76 251 59 c 0
 262 52 276 49 289 49 c 0
 304 49 320 53 333 61 c 0
 350 71 363 85 387 114 c 0
 394 124 404 135 408 139 c 1
 414 147 l 1
 400 171 l 2
 359 248 330 307 311 356 c 0
326 474 m 0
 328 474 332 475 337 475 c 0
 344 474 347 473 351 468 c 0
 353 466 425 267 516 11 c 0
 517 10 517 9 517 8 c 0
 517 5 515 1 512 0 c 0
 510 -1 507 -2 504 -2 c 0
 501 -2 498 -1 495 0 c 0
 493 1 489 5 488 7 c 0
 486 9 480 21 474 32 c 1
 469 44 454 70 444 89 c 2
 426 125 l 1
 422 121 l 2
 420 118 406 102 393 85 c 0
 380 68 364 48 358 41 c 0
 326 5 296 -12 263 -12 c 0
 260 -12 257 -12 254 -12 c 0
 253 -12 251 -12 250 -12 c 0
 203 -6 169 32 135 112 c 0
 131 119 129 126 128 126 c 0
 127 126 114 106 98 81 c 0
 82 56 68 34 67 33 c 0
 64 29 57 26 52 25 c 0
 51 25 50 24 49 24 c 0
 43 24 39 28 39 32 c 0
 39 36 313 466 318 470 c 0
 320 471 324 473 326 474 c 0
EndSplineSet
Validated: 1
EndChar

StartChar: b
Encoding: 98 98 92
Width: 763
Flags: HW
HStem: 503 33<97 148> 584 20G<184 204>
VStem: 176 72<118 329 378 479>
LayerCount: 2
Fore
SplineSet
184 600 m 1
 189 604 l 1
 199 604 l 2
 208 603 210 603 215 601 c 0
 231 593 244 572 247 540 c 0
 248 534 248 502 248 454 c 2
 248 378 l 1
 255 387 l 2
 291 429 338 453 389 453 c 0
 395 453 401 453 407 452 c 0
 457 447 503 424 539 386 c 0
 573 351 594 307 602 256 c 0
 603 248 604 235 604 221 c 0
 604 207 603 193 602 185 c 0
 592 125 563 72 519 37 c 0
 487 10 448 -6 408 -10 c 0
 402 -11 395 -11 389 -11 c 0
 344 -11 297 5 261 35 c 0
 251 43 233 63 225 74 c 0
 201 105 185 142 178 184 c 0
 177 193 177 210 176 333 c 0
 175 485 176 475 169 486 c 0
 162 497 144 503 108 503 c 2
 97 503 l 1
 97 519 l 1
 97 536 l 1
 105 536 l 2
 139 539 167 560 174 589 c 0
 175 593 176 596 177 596 c 1
 184 600 l 1
411 426 m 0
 404 428 396 429 387 429 c 0
 376 429 364 427 354 425 c 0
 315 415 279 383 254 340 c 2
 248 329 l 1
 248 266 l 2
 248 203 249 185 252 162 c 0
 257 122 271 88 290 63 c 0
 310 37 335 21 364 14 c 0
 369 13 377 13 385 13 c 0
 395 13 405 13 411 15 c 0
 439 22 463 38 481 63 c 0
 508 99 518 145 518 221 c 0
 518 296 508 342 481 378 c 0
 471 391 460 402 446 411 c 0
 435 418 424 423 411 426 c 0
EndSplineSet
Validated: 1
EndChar

StartChar: c
Encoding: 99 99 93
Width: 655
Flags: HW
HStem: -9 26<248 384> 431 26<248 378>
LayerCount: 2
Fore
SplineSet
275 457 m 0
 284 458 297 458 311 458 c 0
 332 458 356 457 372 455 c 0
 396 452 421 443 449 432 c 0
 472 423 479 419 480 417 c 0
 482 414 482 410 481 408 c 1
 481 405 443 374 440 373 c 2
 439 372 436 372 435 372 c 1
 433 373 425 380 416 389 c 0
 386 419 368 428 330 431 c 0
 322 432 315 432 308 432 c 0
 277 432 254 425 230 409 c 0
 190 381 165 334 158 275 c 0
 155 256 153 237 153 219 c 0
 153 184 159 152 168 124 c 0
 185 75 222 36 265 22 c 0
 276 18 283 16 296 16 c 0
 300 16 305 16 310 16 c 0
 390 16 429 42 458 115 c 0
 465 131 465 132 468 133 c 0
 469 134 471 134 472 134 c 0
 474 134 477 133 480 131 c 0
 485 127 487 124 487 120 c 0
 487 115 472 80 463 65 c 0
 436 20 400 -2 343 -9 c 0
 335 -10 320 -11 305 -11 c 0
 290 -11 276 -10 269 -9 c 0
 243 -5 221 3 199 13 c 0
 143 41 98 90 80 148 c 0
 72 173 67 198 67 223 c 0
 67 242 70 261 75 280 c 0
 88 330 117 376 158 408 c 0
 191 435 233 452 275 457 c 0
EndSplineSet
Validated: 1
EndChar

StartChar: d
Encoding: 100 100 94
Width: 819
Flags: HW
HStem: -20 25<362 475> 427 20<254 282> 444 24<365 471>
VStem: 178 85<120 327> 573 85<121 328>
LayerCount: 2
Fore
SplineSet
401 468 m 0xb8
 407 468 414 468 419 468 c 0xb8
 437 468 451 467 468 463 c 0
 519 453 568 423 602 382 c 0
 627 353 645 314 653 276 c 0
 658 257 658 248 658 224 c 0
 658 211 658 198 657 193 c 0
 653 165 645 139 633 114 c 0
 620 86 605 65 583 45 c 0
 546 10 500 -12 448 -20 c 0
 446 -20 443 -21 440 -21 c 0
 434 -21 426 -20 418 -20 c 0
 410 -20 402 -21 396 -21 c 0
 393 -21 390 -20 388 -20 c 0
 327 -11 272 20 234 66 c 0
 205 100 184 146 178 193 c 0
 178 195 178 198 178 201 c 0
 178 207 178 215 178 224 c 0
 178 232 178 241 178 248 c 0
 178 251 178 254 178 256 c 0
 184 302 205 348 234 382 c 0
 244 394 262 411 273 420 c 1
 278 423 282 427 282 427 c 1
 281 427 263 421 252 416 c 0
 239 410 227 403 193 384 c 0
 153 360 117 344 108 344 c 0
 106 344 103 344 102 346 c 1
 99 349 92 362 92 366 c 0
 92 367 94 371 97 375 c 0
 109 395 120 420 120 444 c 0
 120 457 121 457 127 461 c 0
 131 463 133 464 135 464 c 0
 137 464 140 463 143 462 c 0
 166 452 192 447 221 447 c 0
 227 447 232 447 238 447 c 0xd8
 260 447 276 451 315 457 c 0
 331 460 347 462 351 463 c 0
 367 466 386 468 401 468 c 0xb8
441 444 m 0
 439 444 437 445 435 445 c 0
 430 445 424 444 418 444 c 0
 413 444 406 445 401 445 c 0
 399 445 397 444 395 444 c 0
 351 437 312 403 289 359 c 0
 272 326 263 281 263 224 c 0
 263 176 269 137 280 106 c 0
 299 53 345 13 395 5 c 0
 401 4 410 4 418 4 c 0
 427 4 435 4 441 5 c 0
 491 13 537 53 556 106 c 0
 567 137 573 176 573 224 c 0
 573 271 567 310 556 341 c 0
 537 394 491 436 441 444 c 0
EndSplineSet
Validated: 1
EndChar

StartChar: e
Encoding: 101 101 95
Width: 672
Flags: HW
HStem: -11 27<239 353> 237 23<161 402 471 527> 434 25<235 332>
VStem: 73 86<118 237 259 332> 402 69<259 363>
LayerCount: 2
Fore
SplineSet
260 458 m 0
 265 459 272 459 279 459 c 0
 294 459 312 456 327 453 c 0
 362 446 392 433 416 409 c 0
 449 375 471 329 471 269 c 1
 471 259 l 1
 499 259 l 1
 527 259 l 1
 527 248 l 1
 527 237 l 1
 344 237 l 1
 160 237 l 1
 160 220 l 2
 160 131 179 74 220 41 c 0
 242 24 264 15 290 15 c 0
 301 15 312 16 324 19 c 0
 380 31 427 71 443 120 c 0
 446 131 449 134 457 134 c 0
 462 134 464 134 467 131 c 0
 469 129 471 127 471 124 c 0
 471 121 469 117 467 110 c 0
 452 67 420 32 376 10 c 0
 347 -3 311 -11 279 -11 c 0
 275 -11 271 -12 267 -12 c 0
 261 -11 l 0
 217 -6 179 13 146 45 c 0
 133 58 124 68 114 84 c 0
 94 116 79 149 73 191 c 0
 73 193 73 197 73 201 c 0
 73 208 73 217 73 226 c 0
 73 235 73 246 73 253 c 0
 73 257 73 260 73 262 c 0
 85 342 133 408 200 440 c 0
 218 449 238 455 260 458 c 0
306 434 m 0
 304 434 301 434 298 434 c 0
 276 434 l 0
 273 434 269 434 267 434 c 0
 228 428 192 393 176 346 c 0
 171 334 168 319 166 306 c 0
 164 295 161 270 161 264 c 2
 161 259 l 1
 281 259 l 1
 402 259 l 1
 402 273 l 1
 402 336 380 385 349 411 c 0
 337 421 322 430 306 434 c 0
EndSplineSet
Validated: 1
EndChar

StartChar: f
Encoding: 102 102 96
Width: 801
Flags: HW
HStem: -199 22G<226 273> 61 57<277 588> 351 33<125 176> 429 23<389 518>
VStem: 207 70<-193 61 119 345>
LayerCount: 2
Fore
SplineSet
212 449 m 1
 216 453 217 453 225 453 c 0
 229 453 236 452 239 451 c 0
 253 447 263 431 268 404 c 0
 269 398 269 386 270 368 c 2
 270 340 l 1
 276 349 l 2
 305 405 365 445 436 452 c 0
 438 452 441 452 445 452 c 0
 452 452 461 452 470 452 c 0
 479 452 489 452 497 452 c 0
 501 452 505 452 508 452 c 0
 584 447 628 424 638 382 c 0
 639 377 640 372 640 368 c 0
 640 365 640 363 639 361 c 0
 637 358 583 313 580 313 c 2
 579 312 576 312 575 313 c 1
 570 315 568 319 567 334 c 0
 565 370 556 391 538 407 c 0
 522 420 498 427 464 429 c 0
 461 429 459 429 456 429 c 0
 403 429 355 410 320 375 c 0
 298 352 286 330 280 302 c 0
 278 292 278 290 277 205 c 2
 277 119 l 1
 432 119 l 1
 588 119 l 1
 588 90 l 1
 588 61 l 1
 432 61 l 1
 277 61 l 1
 277 -66 l 1
 277 -193 l 1
 273 -196 l 1
 269 -199 l 1
 242 -199 l 2
 211 -199 209 -199 207 -193 c 1
 205 -190 205 -161 205 60 c 0
 205 197 205 312 204 316 c 0
 200 343 189 349 144 351 c 2
 125 351 l 1
 125 368 l 1
 125 384 l 1
 129 384 l 2
 135 384 146 386 153 388 c 0
 179 396 197 414 203 437 c 0
 204 441 205 444 206 444 c 1
 212 449 l 1
EndSplineSet
Validated: 1
EndChar

StartChar: g
Encoding: 103 103 97
Width: 847
Flags: HW
HStem: -210 24<355 506> 384 57<154 346 418 683>
VStem: 218 49<192 302> 228 29<-71 15> 598 49<-123 -12>
LayerCount: 2
Fore
SplineSet
154 413 m 1
 154 441 l 1
 418 441 l 1
 683 441 l 1
 683 413 l 1
 683 384 l 1
 557 384 l 1
 431 384 l 1
 418 381 l 2
 392 375 356 361 339 352 c 0
 307 335 282 310 273 286 c 0
 269 276 267 263 267 252 c 0
 267 240 269 227 274 216 c 0
 287 185 320 157 359 144 c 0
 365 142 385 138 404 134 c 0
 481 120 490 118 503 114 c 0
 573 94 625 51 641 0 c 0
 645 -12 647 -21 647 -34 c 2
 647 -43 l 2
 647 -58 647 -64 645 -73 c 0
 637 -110 618 -142 591 -162 c 0
 559 -187 518 -202 469 -207 c 0
 456 -209 433 -210 417 -210 c 0
 410 -210 405 -210 401 -210 c 0
 399 -210 397 -210 395 -210 c 0
 366 -207 351 -200 320 -185 c 0
 288 -170 271 -162 242 -162 c 0
 237 -162 232 -161 228 -161 c 0
 220 -161 211 -162 199 -164 c 0
 195 -165 192 -165 189 -165 c 0
 184 -165 182 -164 180 -161 c 0
 177 -156 174 -144 174 -141 c 1
 175 -140 178 -134 182 -129 c 0
 208 -95 223 -57 228 -15 c 0
 228 -8 228 1 228 5 c 0
 228 9 228 14 228 15 c 0
 230 19 236 22 242 22 c 0
 248 22 253 19 255 15 c 0
 255 14 257 4 257 -6 c 0
 257 -29 260 -42 264 -58 c 0
 280 -129 324 -173 385 -184 c 0
 393 -185 404 -186 416 -186 c 0
 434 -186 456 -184 472 -182 c 0
 530 -174 569 -152 587 -114 c 1
 594 -102 598 -86 598 -71 c 0
 598 -63 596 -54 594 -47 c 0
 586 -13 551 18 503 34 c 0
 486 40 480 41 422 52 c 0
 351 65 343 69 319 79 c 1
 266 105 229 148 218 200 c 0
 218 202 217 204 217 207 c 0
 217 213 218 219 218 225 c 0
 218 232 217 239 217 245 c 0
 217 248 218 250 218 252 c 0
 224 281 239 306 263 329 c 1
 285 352 301 365 345 384 c 1
 339 384 l 2
 329 384 304 384 251 384 c 2
 154 384 l 1
 154 413 l 1
EndSplineSet
Validated: 1
EndChar

StartChar: h
Encoding: 104 104 98
Width: 748
Flags: HW
HStem: 0 22G<214 260 508 571> 503 33<113 164> 584 20G<200 219>
VStem: 195 70<6 351 351 497> 505 71<6 399>
LayerCount: 2
Fore
SplineSet
200 600 m 1
 205 604 l 1
 215 604 l 2
 223 603 226 603 231 601 c 0
 241 596 250 584 254 569 c 0
 260 551 260 552 261 447 c 2
 261 351 l 1
 266 360 l 2
 275 376 283 386 297 401 c 0
 308 411 315 418 323 423 c 0
 343 436 364 446 388 450 c 0
 398 452 411 452 425 452 c 0
 442 452 459 450 474 447 c 0
 505 441 531 428 547 409 c 0
 554 400 565 378 568 366 c 0
 575 342 576 353 576 171 c 2
 576 6 l 1
 571 3 l 1
 568 0 l 1
 540 0 l 1
 511 0 l 1
 508 3 l 1
 505 6 l 1
 504 174 l 2
 503 327 503 343 502 353 c 0
 494 397 474 420 438 427 c 0
 433 428 424 429 415 429 c 0
 406 429 395 428 389 427 c 0
 370 423 348 413 332 402 c 0
 327 398 317 391 310 385 c 0
 291 366 277 342 270 316 c 0
 264 296 265 305 264 150 c 2
 264 6 l 1
 260 3 l 1
 257 0 l 1
 229 0 l 2
 198 0 197 0 195 6 c 1
 193 9 193 35 193 236 c 0
 193 360 193 464 192 468 c 0
 188 495 176 501 131 503 c 2
 113 503 l 1
 113 519 l 1
 113 536 l 1
 121 536 l 2
 155 539 184 560 191 589 c 0
 192 593 193 596 194 596 c 1
 200 600 l 1
EndSplineSet
Validated: 1
EndChar

StartChar: i
Encoding: 105 105 99
Width: 440
Flags: HW
HStem: 0 22G<221 260> 351 33<117 168> 432 20G<203 225>
VStem: 196 69<6 160 160 327>
LayerCount: 2
Fore
SplineSet
203 449 m 1
 208 453 l 1
 218 453 l 2
 230 452 237 449 244 442 c 0
 253 433 258 420 262 400 c 0
 263 390 265 379 265 198 c 2
 265 6 l 1
 260 3 l 1
 257 0 l 1
 231 0 l 2
 211 0 204 0 202 2 c 1
 196 5 196 -6 196 160 c 0
 196 242 196 312 195 316 c 0
 191 343 180 349 137 351 c 2
 117 351 l 1
 117 368 l 1
 117 384 l 1
 124 384 l 2
 159 387 187 408 194 437 c 0
 195 441 196 444 197 444 c 1
 203 449 l 1
EndSplineSet
Validated: 1
EndChar

StartChar: uni1E0B
Encoding: 106 7691 100
Width: 45
Flags: HW
HStem: -20 25<344 456> 427 20<236 264> 444 24<347 453> 575 110<356 443>
VStem: 160 85<120 327> 345 110<587 674> 555 85<121 328>
CounterMasks: 1 0e
LayerCount: 2
Fore
SplineSet
387 683 m 0x9e
 392 684 396 685 401 685 c 0
 414 685 428 679 438 669 c 0
 449 659 455 645 455 631 c 0
 455 621 453 613 448 604 c 0
 442 590 428 578 413 575 c 0
 411 575 410 575 408 575 c 0
 398 575 l 0
 385 575 371 582 361 592 c 0
 350 602 345 616 345 631 c 0
 345 640 346 645 351 654 c 0
 357 667 372 680 387 683 c 0x9e
383 468 m 0xbe
 389 468 395 468 400 468 c 0xbe
 418 468 432 467 449 463 c 0
 500 453 550 423 584 382 c 0
 609 353 627 314 635 276 c 0
 640 257 640 248 640 224 c 0
 640 211 640 198 639 193 c 0
 635 165 626 139 614 114 c 0
 601 86 587 65 565 45 c 0
 528 10 482 -12 430 -20 c 0
 428 -20 425 -21 422 -21 c 0
 416 -21 407 -20 399 -20 c 0
 391 -20 384 -21 378 -21 c 0
 375 -21 372 -20 370 -20 c 0
 309 -11 254 20 216 66 c 0
 187 100 166 146 160 193 c 0
 160 195 159 198 159 201 c 0
 159 207 160 215 160 224 c 0
 160 232 159 241 159 248 c 0
 159 251 160 254 160 256 c 0
 166 302 187 348 216 382 c 0
 226 394 244 411 255 420 c 1
 260 423 264 427 264 427 c 1
 263 427 244 421 233 416 c 0
 220 410 209 403 175 384 c 0
 135 360 99 344 90 344 c 0
 88 344 85 344 84 346 c 1
 81 349 74 362 74 366 c 0
 74 367 76 371 79 375 c 0
 91 395 101 420 101 444 c 0
 101 457 102 457 108 461 c 0
 112 463 115 464 117 464 c 0
 119 464 122 463 125 462 c 0
 148 452 174 447 203 447 c 0
 209 447 214 447 220 447 c 0xde
 242 447 258 451 297 457 c 0
 313 460 329 462 333 463 c 0
 349 466 368 468 383 468 c 0xbe
423 444 m 0
 421 444 419 445 417 445 c 0
 412 445 405 444 399 444 c 0
 394 444 388 445 383 445 c 0
 381 445 379 444 377 444 c 0
 333 437 293 403 270 359 c 0
 253 326 245 281 245 224 c 0
 245 176 251 137 262 106 c 0
 281 53 327 13 377 5 c 0
 383 4 391 4 399 4 c 0
 408 4 417 4 423 5 c 0
 473 13 519 53 538 106 c 0
 549 137 555 176 555 224 c 0
 555 271 549 310 538 341 c 0
 519 394 473 436 423 444 c 0
EndSplineSet
Validated: 1
EndChar

StartChar: cdotaccent
Encoding: 107 267 101
Width: 532
Flags: HW
HStem: -9 26<263 400> 431 26<263 393> 575 109<307 362>
LayerCount: 2
Fore
SplineSet
307 684 m 0
 311 685 314 685 318 685 c 0
 339 685 357 673 367 654 c 0
 371 646 374 638 374 630 c 0
 374 622 371 614 367 606 c 0
 358 588 338 575 319 575 c 0
 295 575 274 590 266 613 c 1
 265 618 264 623 264 631 c 0
 264 647 269 659 281 670 c 0
 287 676 299 682 307 684 c 0
291 457 m 0
 300 458 312 458 326 458 c 0
 347 458 371 457 387 455 c 0
 411 452 437 443 465 432 c 0
 488 423 494 419 495 417 c 0
 497 414 497 410 496 408 c 1
 496 405 459 374 456 373 c 2
 455 372 451 372 450 372 c 1
 448 373 440 380 431 389 c 0
 401 419 383 428 345 431 c 0
 337 432 330 432 323 432 c 0
 292 432 270 425 246 409 c 0
 206 381 180 334 173 275 c 0
 170 256 169 237 169 219 c 0
 169 184 174 152 183 124 c 0
 200 75 237 36 280 22 c 0
 291 18 299 16 312 16 c 0
 316 16 320 16 325 16 c 0
 405 16 444 42 473 115 c 0
 480 131 480 132 483 133 c 0
 484 134 486 134 487 134 c 0
 489 134 492 133 495 131 c 0
 500 127 503 124 503 120 c 0
 503 115 487 80 478 65 c 0
 451 20 415 -2 358 -9 c 0
 350 -10 335 -11 320 -11 c 0
 305 -11 292 -10 285 -9 c 0
 259 -5 236 3 214 13 c 0
 158 41 113 90 95 148 c 0
 87 173 83 198 83 223 c 0
 83 242 85 261 90 280 c 0
 103 330 132 376 173 408 c 0
 206 435 249 452 291 457 c 0
EndSplineSet
Validated: 1
EndChar

StartChar: l
Encoding: 108 108 102
Width: 592
Flags: HW
HStem: 503 33<104 155> 584 20G<190 211>
VStem: 184 68<92 473> 419 27<66 117 117 127>
LayerCount: 2
Fore
SplineSet
190 600 m 1
 195 604 l 1
 205 604 l 2
 217 603 224 601 231 594 c 0
 239 586 245 572 249 553 c 0
 250 545 250 526 251 322 c 0
 252 83 251 97 256 77 c 0
 263 50 280 30 303 22 c 0
 313 18 324 16 334 16 c 0
 353 16 370 22 384 35 c 0
 404 55 417 83 419 117 c 0
 419 127 420 128 422 130 c 0
 425 133 426 133 432 133 c 0
 439 133 440 133 443 130 c 2
 446 127 l 1
 446 116 l 2
 444 75 425 36 397 13 c 0
 387 4 367 -5 355 -8 c 0
 347 -10 336 -11 325 -11 c 0
 305 -11 282 -8 265 -1 c 0
 255 2 239 10 232 16 c 0
 207 33 194 57 186 92 c 2
 184 102 l 1
 183 287 l 2
 182 490 182 475 175 486 c 0
 169 497 150 503 115 503 c 2
 104 503 l 1
 104 519 l 1
 104 536 l 1
 111 536 l 2
 122 537 131 540 142 544 c 0
 162 554 175 570 180 589 c 0
 181 593 183 596 184 596 c 1
 190 600 l 1
EndSplineSet
Validated: 1
EndChar

StartChar: m
Encoding: 109 109 103
Width: 1010
Flags: HW
HStem: 0 22G<223 265 506 548 790 832> 351 33<117 169> 429 23<356 446 640 729>
VStem: 197 72<6 344> 481 72<6 306 356 394> 764 72<6 178 178 403>
CounterMasks: 1 1c
LayerCount: 2
Fore
SplineSet
204 449 m 2
 208 453 209 453 217 453 c 0
 231 453 241 448 249 436 c 0
 257 424 261 405 262 371 c 1
 262 347 l 1
 269 359 l 1
 278 377 288 393 302 407 c 0
 325 430 349 443 381 450 c 0
 389 452 395 452 414 452 c 0
 431 452 440 452 448 451 c 0
 501 442 534 414 546 367 c 0
 547 362 548 356 549 355 c 1
 549 355 551 360 554 365 c 0
 563 381 572 393 586 407 c 0
 609 430 633 443 665 450 c 0
 673 452 679 452 698 452 c 0
 723 452 733 450 751 445 c 0
 764 442 785 432 795 424 c 0
 818 405 832 375 835 335 c 0
 836 327 836 270 836 165 c 2
 836 6 l 1
 832 3 l 1
 829 0 l 1
 801 0 l 2
 778 0 772 0 770 2 c 0
 764 5 765 -7 764 178 c 0
 763 331 763 348 762 357 c 0
 754 404 733 426 695 429 c 0
 693 429 692 429 690 429 c 0
 670 429 647 423 629 413 c 0
 595 394 568 357 558 316 c 1
 552 296 553 305 552 150 c 1
 552 6 l 1
 548 3 l 1
 545 0 l 1
 517 0 l 2
 494 0 489 0 487 2 c 0
 481 5 482 -7 481 178 c 0
 480 331 480 348 479 357 c 0
 471 404 449 426 411 429 c 0
 409 429 408 429 406 429 c 0
 386 429 363 423 345 413 c 0
 311 394 285 357 275 316 c 1
 269 296 270 305 269 150 c 1
 269 6 l 1
 265 3 l 1
 261 0 l 1
 234 0 l 2
 211 0 205 0 203 2 c 0
 197 5 197 -6 197 160 c 0
 197 242 197 312 196 316 c 0
 192 343 181 349 136 351 c 1
 117 351 l 1
 117 368 l 1
 117 384 l 1
 125 384 l 1
 159 387 188 408 195 437 c 0
 196 441 197 444 198 444 c 2
 204 449 l 2
EndSplineSet
Validated: 1
EndChar

StartChar: n
Encoding: 110 110 104
Width: 752
Flags: HW
HStem: 0 21G<222.5 265 512 576> 351 33<117 168.955> 429 23<365.791 468.202>
VStem: 197 72<6 345.812> 509 71<6 398.833>
LayerCount: 2
Fore
SplineSet
204 449 m 1
 208 453 209 453 217 453 c 0
 231 453 241 448 249 436 c 0
 257 423 261 405 262 370 c 2
 262 345 l 1
 269 356 l 2
 278 374 286 385 301 401 c 0
 312 411 319 418 327 423 c 0
 347 436 369 446 393 450 c 0
 403 452 415 452 429 452 c 0
 446 452 464 450 479 447 c 0
 510 441 535 428 551 409 c 0
 558 400 570 378 573 366 c 0
 580 342 580 353 580 171 c 2
 580 6 l 1
 576 3 l 1
 573 0 l 1
 544 0 l 1
 515 0 l 1
 512 3 l 1
 509 6 l 1
 508 174 l 2
 507 327 507 343 506 353 c 0
 498 397 479 420 443 427 c 0
 438 428 428 429 419 429 c 0
 410 429 400 428 394 427 c 0
 375 423 352 413 336 402 c 0
 331 398 322 391 315 385 c 0
 296 366 282 342 275 316 c 0
 269 296 270 305 269 150 c 2
 269 6 l 1
 265 3 l 1
 261 0 l 1
 234 0 l 2
 211 0 205 0 203 2 c 1
 197 5 197 -6 197 160 c 0
 197 242 197 312 196 316 c 0
 192 343 181 349 136 351 c 2
 117 351 l 1
 117 368 l 1
 117 384 l 1
 125 384 l 2
 159 387 188 408 195 437 c 0
 196 441 197 444 198 444 c 1
 204 449 l 1
EndSplineSet
Validated: 1
EndChar

StartChar: o
Encoding: 111 111 105
Width: 683
Flags: HW
VStem: 70 87<121 320>
LayerCount: 2
Fore
SplineSet
272 457 m 0
 280 458 289 458 298 458 c 0
 354 458 410 435 452 393 c 0
 458 387 468 378 471 373 c 0
 506 329 524 274 524 220 c 0
 524 204 522 188 519 172 c 0
 503 86 437 18 351 -4 c 0
 332 -9 321 -10 298 -10 c 0
 274 -10 262 -9 243 -4 c 0
 141 22 70 113 70 219 c 0
 70 265 84 315 110 353 c 0
 148 411 205 449 272 457 c 0
316 434 m 0
 310 435 305 435 299 435 c 0
 274 435 248 428 226 414 c 0
 186 389 165 348 159 288 c 0
 158 278 157 252 157 228 c 0
 157 211 157 194 157 185 c 0
 161 120 176 81 208 51 c 0
 233 27 265 15 297 15 c 0
 329 15 362 27 387 51 c 0
 419 81 433 120 437 185 c 0
 437 194 438 211 438 228 c 0
 438 252 437 278 436 288 c 0
 433 317 426 342 416 361 c 0
 397 401 360 427 316 434 c 0
EndSplineSet
Validated: 1
EndChar

StartChar: p
Encoding: 112 112 106
Width: 820
Flags: HW
HStem: -199 22G<226 273> -10 24<431 512> 351 33<125 177> 426 26<369 474>
VStem: 207 70<-193 262> 358 27<77 117 117 125> 574 86<110 319>
LayerCount: 2
Fore
SplineSet
212 449 m 1
 217 453 l 1
 227 453 l 1
 239 453 246 449 253 442 c 0
 266 429 274 409 274 372 c 1
 274 351 l 1
 280 361 l 2
 302 396 325 421 358 436 c 0
 371 442 383 447 398 450 c 0
 406 452 420 453 433 453 c 0
 441 453 449 453 455 453 c 0
 458 453 461 453 463 453 c 0
 502 446 538 429 568 406 c 0
 578 399 599 378 607 368 c 0
 617 356 628 339 636 324 c 0
 651 291 660 263 660 228 c 0
 660 219 l 0
 660 162 642 106 611 62 c 0
 602 49 577 24 565 16 c 0
 547 4 525 -6 506 -10 c 0
 504 -10 502 -11 499 -11 c 0
 493 -11 486 -10 480 -10 c 0
 473 -10 467 -11 461 -11 c 0
 458 -11 456 -10 454 -10 c 0
 442 -7 430 -3 420 3 c 0
 400 12 380 17 358 17 c 0
 348 17 336 16 326 14 c 0
 322 13 318 13 316 13 c 0
 310 13 308 16 305 24 c 0
 303 29 303 32 303 35 c 0
 303 39 304 41 308 43 c 0
 315 47 325 54 331 60 c 0
 347 75 358 94 358 117 c 0
 358 124 359 126 361 128 c 0
 363 131 365 131 370 131 c 0
 377 131 381 129 383 125 c 1
 383 124 384 118 384 112 c 0
 384 61 413 25 455 15 c 0
 462 14 470 13 477 13 c 0
 484 13 493 14 497 15 c 0
 530 27 560 89 569 162 c 0
 572 180 574 199 574 217 c 0
 574 241 571 264 566 282 c 0
 551 351 509 405 457 421 c 0
 446 424 434 426 423 426 c 0
 396 426 370 416 348 401 c 0
 306 370 275 320 275 259 c 0
 275 251 274 248 274 246 c 0
 274 245 275 245 275 244 c 0
 277 240 277 220 277 24 c 2
 277 -193 l 1
 273 -196 l 1
 269 -199 l 1
 242 -199 l 2
 211 -199 209 -199 207 -193 c 1
 206 -192 206 -188 206 -175 c 0
 206 -149 207 -87 207 60 c 0
 207 197 205 312 204 316 c 0
 200 343 188 351 143 351 c 1
 125 351 l 1
 125 368 l 1
 125 384 l 1
 133 384 l 1
 167 384 196 408 203 437 c 0
 204 441 206 444 207 444 c 1
 212 449 l 1
EndSplineSet
Validated: 1
EndChar

StartChar: uni1E1F
Encoding: 113 7711 107
Width: 610
Flags: HW
HStem: -199 22G<170 216> 61 57<220 532> 351 33<69 120> 429 23<333 462>
VStem: 151 70<-193 61 119 345> 347 108<592 654>
LayerCount: 2
Fore
SplineSet
389 683 m 0
 394 684 398 685 403 685 c 0
 417 685 429 680 440 669 c 0
 451 658 457 644 457 631 c 0
 457 626 456 621 455 617 c 0
 451 598 433 582 415 578 c 0
 410 577 406 576 401 576 c 0
 387 576 375 581 364 592 c 0
 353 602 347 616 347 631 c 0
 347 640 348 645 353 654 c 0
 359 667 374 680 389 683 c 0
156 449 m 1
 160 453 161 453 169 453 c 0
 173 453 179 452 182 451 c 0
 196 447 207 431 212 404 c 0
 213 398 213 386 214 368 c 2
 214 340 l 1
 219 349 l 2
 248 405 309 445 380 452 c 0
 382 452 385 452 389 452 c 0
 395 452 404 452 413 452 c 0
 422 452 432 452 441 452 c 0
 445 452 449 452 452 452 c 0
 528 447 572 424 582 382 c 0
 583 377 584 372 584 368 c 0
 584 365 584 363 583 361 c 0
 581 358 526 313 523 313 c 2
 522 312 519 312 518 313 c 1
 513 315 512 319 511 334 c 0
 509 370 499 391 481 407 c 0
 465 420 442 427 408 429 c 0
 405 429 403 429 400 429 c 0
 347 429 298 410 263 375 c 0
 241 352 229 330 223 302 c 0
 221 292 221 290 220 205 c 2
 220 119 l 1
 376 119 l 1
 532 119 l 1
 532 90 l 1
 532 61 l 1
 376 61 l 1
 220 61 l 1
 220 -66 l 1
 220 -193 l 1
 216 -196 l 1
 213 -199 l 1
 186 -199 l 2
 155 -199 153 -199 151 -193 c 1
 149 -190 149 -161 149 60 c 0
 149 197 149 312 148 316 c 0
 144 343 132 349 87 351 c 2
 69 351 l 1
 69 368 l 1
 69 384 l 1
 73 384 l 2
 79 384 89 386 96 388 c 0
 122 396 141 414 147 437 c 0
 148 441 149 444 150 444 c 1
 156 449 l 1
EndSplineSet
Validated: 1
EndChar

StartChar: r
Encoding: 114 114 108
Width: 700
Flags: HW
HStem: -199 22G<226 273> 351 33<125 177> 432 20G<221 227 496 497>
VStem: 207 70<-193 244 264 344> 438 63<157 381>
LayerCount: 2
Fore
SplineSet
212 449 m 1
 216 453 217 453 225 453 c 0
 228 453 232 453 235 453 c 0
 237 453 238 453 239 453 c 0
 253 449 263 431 268 404 c 0
 269 397 270 385 270 330 c 1
 270 264 l 1
 379 356 l 2
 438 406 489 452 490 453 c 1
 492 454 495 453 497 453 c 0
 498 453 499 454 501 453 c 0
 505 451 505 447 505 440 c 0
 505 437 505 434 505 429 c 0
 505 422 503 399 503 381 c 0
 503 369 502 356 502 343 c 0
 502 238 517 126 546 22 c 0
 549 9 550 3 550 0 c 0
 550 -3 550 -5 548 -7 c 0
 546 -8 544 -9 542 -9 c 0
 539 -9 536 -8 535 -7 c 0
 530 -3 508 34 496 60 c 0
 463 129 438 199 438 276 c 0
 438 285 438 299 438 313 c 0
 438 333 438 357 438 368 c 0
 438 375 442 381 442 381 c 1
 360 312 l 1
 277 244 l 1
 277 26 l 1
 277 -193 l 1
 273 -196 l 1
 269 -199 l 1
 242 -199 l 2
 211 -199 209 -199 207 -193 c 1
 206 -192 206 -188 206 -175 c 0
 206 -149 207 -87 207 60 c 0
 207 197 205 312 204 316 c 0
 200 343 188 351 143 351 c 1
 125 351 l 1
 125 368 l 1
 125 384 l 1
 133 384 l 1
 167 384 196 408 203 437 c 0
 204 441 206 444 207 444 c 1
 212 449 l 1
EndSplineSet
Validated: 1
EndChar

StartChar: s
Encoding: 115 115 109
Width: 792
Flags: HW
HStem: -199 22G<226 273> 351 33<125 176> 429 23<389 518>
VStem: 207 70<-193 302>
LayerCount: 2
Fore
SplineSet
212 449 m 1
 216 453 217 453 225 453 c 0
 229 453 236 452 239 451 c 0
 253 447 263 431 268 404 c 0
 269 398 269 386 270 368 c 2
 270 340 l 1
 276 349 l 2
 305 405 365 445 436 452 c 0
 438 452 441 452 445 452 c 0
 452 452 461 452 470 452 c 0
 479 452 489 452 497 452 c 0
 501 452 505 452 508 452 c 0
 584 447 628 424 638 382 c 0
 639 377 640 372 640 368 c 0
 640 365 640 363 639 361 c 0
 637 358 583 313 580 313 c 2
 579 312 576 312 575 313 c 1
 570 315 568 319 567 334 c 0
 565 370 556 391 538 407 c 0
 522 420 498 427 464 429 c 0
 461 429 459 429 456 429 c 0
 403 429 355 410 320 375 c 0
 298 352 286 330 280 302 c 2
 278 292 l 1
 277 49 l 1
 277 -193 l 1
 273 -196 l 1
 269 -199 l 1
 242 -199 l 2
 211 -199 209 -199 207 -193 c 1
 205 -190 205 -161 205 60 c 0
 205 197 205 312 204 316 c 0
 200 343 189 349 144 351 c 2
 125 351 l 1
 125 368 l 1
 125 384 l 1
 129 384 l 2
 135 384 146 386 153 388 c 0
 179 396 197 414 203 437 c 0
 204 441 205 444 206 444 c 1
 212 449 l 1
EndSplineSet
Validated: 1
EndChar

StartChar: t
Encoding: 116 116 110
Width: 790
Flags: HW
HStem: -10 28<352 485> 384 57<127 301 339 627>
LayerCount: 2
Fore
SplineSet
127 413 m 1
 127 441 l 1
 377 441 l 1
 627 441 l 1
 627 413 l 1
 627 384 l 1
 507 384 l 2
 387 383 386 383 379 381 c 0
 348 373 322 353 305 322 c 0
 289 293 281 251 281 200 c 0
 281 197 281 193 281 190 c 0
 282 156 286 134 293 111 c 0
 309 60 345 24 387 17 c 0
 394 16 402 16 410 16 c 0
 436 16 467 22 485 31 c 0
 516 46 536 71 554 119 c 0
 558 131 560 134 565 134 c 0
 572 134 581 126 581 120 c 0
 581 116 573 96 564 78 c 0
 538 26 503 0 445 -9 c 0
 436 -10 419 -11 405 -11 c 0
 396 -11 388 -11 383 -10 c 0
 320 -3 264 30 230 82 c 0
 212 109 200 144 196 178 c 0
 195 185 194 193 194 200 c 0
 194 258 219 315 261 354 c 0
 270 362 286 375 295 380 c 2
 301 384 l 1
 214 384 l 1
 127 384 l 1
 127 413 l 1
EndSplineSet
Validated: 1
EndChar

StartChar: u
Encoding: 117 117 111
Width: 749
Flags: HW
HStem: 351 33<110 162 421 473> 432 20G<197 217 508 528>
VStem: 190 72<44 211 211 326> 500 73<-5 114 114 328>
LayerCount: 2
Fore
SplineSet
197 449 m 1
 202 453 l 1
 212 453 l 2
 221 452 224 452 229 450 c 0
 245 442 258 420 261 388 c 0
 262 381 262 334 262 239 c 0
 262 96 262 84 266 68 c 0
 273 38 293 20 331 14 c 0
 339 13 350 13 362 13 c 0
 374 13 385 13 391 14 c 0
 409 19 424 28 439 41 c 0
 474 76 495 135 500 215 c 0
 501 225 501 248 501 270 c 0
 501 292 501 311 500 316 c 0
 496 343 485 349 440 351 c 2
 421 351 l 1
 421 368 l 1
 421 384 l 1
 430 384 l 2
 464 387 492 408 499 437 c 0
 500 441 501 445 502 445 c 1
 502 445 505 447 508 449 c 2
 513 453 l 1
 524 453 l 2
 533 452 536 452 540 450 c 0
 557 442 569 419 572 387 c 0
 573 379 573 322 573 185 c 2
 573 -5 l 1
 569 -8 l 1
 566 -11 l 1
 538 -11 l 1
 511 -11 l 1
 508 -8 l 1
 505 -5 l 1
 504 55 l 2
 504 88 503 114 503 114 c 1
 503 110 491 83 488 75 c 0
 465 29 433 0 391 -9 c 0
 384 -10 377 -10 357 -10 c 0
 330 -10 314 -9 298 -6 c 0
 265 1 243 12 225 30 c 0
 210 44 202 57 196 80 c 0
 190 99 190 105 190 211 c 0
 190 265 190 312 189 316 c 0
 185 343 173 349 128 351 c 2
 110 351 l 1
 110 368 l 1
 110 384 l 1
 118 384 l 2
 152 387 181 408 188 437 c 0
 189 441 190 444 191 444 c 1
 197 449 l 1
EndSplineSet
Validated: 1
EndChar

StartChar: uni1E03
Encoding: 118 7683 112
Width: 651
Flags: HW
HStem: 583 33<109 160> 583 101<386 437>
VStem: 188 72<118 329 378 558> 344 110<592 668>
LayerCount: 2
Fore
SplineSet
386 683 m 0x30
 391 684 395 685 400 685 c 0
 414 685 426 680 437 669 c 0
 448 659 454 645 454 631 c 0
 454 616 448 602 437 592 c 0
 426 581 414 576 400 576 c 0
 395 576 391 577 386 578 c 0
 371 581 356 592 350 606 c 0
 345 615 344 621 344 631 c 0
 344 640 345 645 350 654 c 0
 356 667 371 680 386 683 c 0x30
196 680 m 1
 201 684 l 1
 211 684 l 2x70
 220 683 222 683 227 681 c 0
 243 673 256 652 259 620 c 0
 260 613 260 572 260 494 c 2
 260 378 l 1
 267 387 l 2
 303 429 350 453 401 453 c 0
 407 453 413 453 419 452 c 0
 469 447 515 424 551 386 c 0
 585 351 606 307 614 256 c 0
 615 248 616 235 616 221 c 0
 616 207 615 193 614 185 c 0
 604 125 576 72 532 37 c 0
 500 10 460 -6 420 -10 c 0
 414 -11 407 -11 401 -11 c 0
 356 -11 309 5 273 35 c 0
 263 43 245 63 237 74 c 0
 213 105 198 142 191 184 c 0
 190 193 189 212 188 373 c 0
 187 569 188 555 181 566 c 0
 174 577 156 583 120 583 c 2
 109 583 l 1
 109 599 l 1
 109 615 l 1
 117 615 l 2xb0
 151 618 179 640 186 669 c 0
 187 673 189 676 190 676 c 1
 196 680 l 1
423 426 m 0
 416 428 408 429 399 429 c 0
 388 429 376 427 366 425 c 0
 327 415 291 383 266 340 c 2
 260 329 l 1
 260 266 l 2
 260 203 261 185 264 162 c 0
 269 122 283 88 302 63 c 0
 322 37 347 21 376 14 c 0
 381 13 389 13 397 13 c 0
 407 13 417 13 423 15 c 0
 451 22 475 38 493 63 c 0
 520 99 531 145 531 221 c 0
 531 296 520 342 493 378 c 0
 483 391 472 402 458 411 c 0
 447 418 436 423 423 426 c 0
EndSplineSet
Validated: 1
EndChar

StartChar: uni1E41
Encoding: 119 7745 113
Width: 861
Flags: HW
HStem: 0 22G<152 194 436 478 720 762> 351 33<47 98> 429 23<286 375 569 659>
VStem: 127 72<6 344> 392 109<586 674> 410 72<6 306 356 394> 694 72<6 178 178 403>
LayerCount: 2
Fore
SplineSet
433 684 m 0xfa
 436 685 440 685 444 685 c 0
 451 685 460 684 465 682 c 0
 487 674 500 654 500 631 c 0
 500 613 492 596 478 586 c 0
 468 579 459 577 446 577 c 0
 433 577 424 579 414 586 c 0
 400 596 392 612 392 631 c 0
 392 644 395 654 403 665 c 0
 410 673 421 680 433 684 c 0xfa
134 449 m 2
 138 453 139 453 147 453 c 0
 161 453 171 448 179 436 c 0
 187 424 191 405 192 371 c 1
 192 347 l 1
 198 359 l 2
 207 377 218 393 232 407 c 0
 255 430 279 443 311 450 c 0
 319 452 325 452 344 452 c 0
 361 452 370 452 378 451 c 0
 431 442 464 414 476 367 c 0
 477 362 478 356 479 355 c 1
 479 355 481 360 484 365 c 0
 493 381 502 393 516 407 c 0
 539 430 563 443 595 450 c 0
 603 452 608 452 627 452 c 0
 652 452 663 450 681 445 c 0
 694 442 715 432 725 424 c 0
 748 405 762 375 765 335 c 0
 766 327 766 270 766 165 c 2
 766 6 l 1
 762 3 l 1
 758 0 l 1
 731 0 l 2
 708 0 702 0 700 2 c 0
 694 5 695 -7 694 178 c 0
 693 331 693 348 692 357 c 0
 684 404 662 426 624 429 c 0
 622 429 622 429 620 429 c 0
 600 429 577 423 559 413 c 0
 525 394 498 357 488 316 c 1
 482 296 483 305 482 150 c 1
 482 6 l 1
 478 3 l 1
 475 0 l 1
 447 0 l 2
 424 0 418 0 416 2 c 0
 410 5 411 -7 410 178 c 0
 409 331 409 348 408 357 c 0
 400 404 379 426 341 429 c 0
 339 429 338 429 336 429 c 0
 316 429 293 423 275 413 c 0
 241 394 214 357 204 316 c 1
 198 296 199 305 198 150 c 1
 198 6 l 1
 194 3 l 1
 191 0 l 1
 164 0 l 2
 141 0 135 0 133 2 c 0
 127 5 127 -6 127 160 c 0
 127 242 127 312 126 316 c 0
 122 343 110 349 65 351 c 1
 47 351 l 1
 47 368 l 1
 47 384 l 1
 55 384 l 1
 89 387 118 408 125 437 c 0
 126 441 127 444 128 444 c 2
 134 449 l 2
EndSplineSet
Validated: 1
EndChar

StartChar: uni1E6B
Encoding: 120 7787 114
Width: 591
Flags: HW
HStem: -10 28<271 404> 384 57<46 220 259 546>
LayerCount: 2
Fore
SplineSet
308 683 m 0
 313 684 317 685 322 685 c 0
 351 685 376 661 376 631 c 0
 376 600 351 576 321 576 c 0
 317 576 312 577 308 578 c 0
 291 582 276 594 269 612 c 0
 267 618 267 621 267 631 c 0
 267 640 267 642 269 648 c 0
 276 666 291 679 308 683 c 0
46 413 m 1
 46 441 l 1
 296 441 l 1
 546 441 l 1
 546 413 l 1
 546 384 l 1
 426 384 l 2
 306 383 305 383 298 381 c 0
 267 373 241 353 224 322 c 0
 208 293 200 251 200 200 c 0
 200 197 200 193 200 190 c 0
 201 156 205 134 212 111 c 0
 228 60 264 24 306 17 c 0
 313 16 321 16 329 16 c 0
 355 16 387 22 405 31 c 0
 436 46 455 71 473 119 c 0
 477 131 479 134 484 134 c 0
 491 134 500 126 500 120 c 0
 500 116 492 96 483 78 c 0
 457 26 423 0 365 -9 c 0
 356 -10 338 -11 324 -11 c 0
 315 -11 307 -11 302 -10 c 0
 239 -3 184 30 150 82 c 0
 132 109 119 144 115 178 c 0
 114 185 114 193 114 200 c 0
 114 258 138 315 180 354 c 0
 189 362 205 375 214 380 c 2
 220 384 l 1
 133 384 l 1
 46 384 l 1
 46 413 l 1
EndSplineSet
Validated: 1
EndChar

StartChar: gdotaccent
Encoding: 121 289 115
Width: 26
Flags: HW
HStem: -210 24<278 429> 384 57<77 269 341 606>
VStem: 141 49<192 302> 151 29<-71 15> 287 109<586 674> 521 49<-123 -12>
LayerCount: 2
Fore
SplineSet
328 684 m 0xcc
 331 685 335 685 339 685 c 0
 346 685 355 684 360 682 c 0
 382 674 396 654 396 631 c 0
 396 607 382 586 359 579 c 0
 354 578 347 577 341 577 c 0
 335 577 329 578 324 579 c 0
 301 586 287 607 287 631 c 0
 287 648 296 665 310 675 c 0
 316 679 320 681 328 684 c 0xcc
77 413 m 1
 77 441 l 1
 341 441 l 1
 606 441 l 1
 606 413 l 1
 606 384 l 1
 480 384 l 1
 354 384 l 1
 341 381 l 2
 315 375 280 361 263 352 c 0
 231 335 205 310 196 286 c 0
 192 276 190 263 190 252 c 0
 190 240 192 227 197 216 c 0
 210 185 243 157 282 144 c 0
 288 142 308 138 327 134 c 0
 404 120 413 118 426 114 c 0
 496 94 548 51 564 0 c 0
 568 -12 570 -21 570 -34 c 2
 570 -43 l 2
 570 -58 570 -64 568 -73 c 0
 560 -110 541 -142 514 -162 c 0
 482 -187 441 -202 392 -207 c 0
 379 -209 356 -210 340 -210 c 0
 333 -210 328 -210 324 -210 c 0
 322 -210 320 -210 318 -210 c 0
 289 -207 274 -200 243 -185 c 0
 211 -170 194 -162 165 -162 c 0
 160 -162 155 -161 151 -161 c 0
 143 -161 134 -162 122 -164 c 0
 118 -165 115 -165 112 -165 c 0
 107 -165 105 -164 103 -161 c 0
 100 -156 97 -144 97 -141 c 1
 98 -140 101 -134 105 -129 c 0
 131 -95 146 -57 151 -15 c 0
 151 -8 151 1 151 5 c 0
 151 9 151 14 151 15 c 0
 153 19 159 22 165 22 c 0
 171 22 176 19 178 15 c 0
 178 14 180 4 180 -6 c 0
 180 -29 183 -42 187 -58 c 0
 203 -129 247 -173 308 -184 c 0
 316 -185 327 -186 339 -186 c 0
 357 -186 379 -184 395 -182 c 0
 453 -174 492 -152 510 -114 c 1
 517 -102 521 -86 521 -71 c 0
 521 -63 520 -54 518 -47 c 0
 510 -13 474 18 426 34 c 0
 409 40 403 41 345 52 c 0
 274 65 266 69 242 79 c 1
 189 105 152 148 141 200 c 0
 141 202 140 204 140 207 c 0
 140 213 141 219 141 225 c 0
 141 232 140 239 140 245 c 0
 140 248 141 250 141 252 c 0
 147 281 162 306 186 329 c 1
 208 352 224 365 268 384 c 1
 262 384 l 2
 252 384 227 384 174 384 c 2
 77 384 l 1
 77 413 l 1
EndSplineSet
Validated: 1
EndChar

StartChar: uni1E61
Encoding: 122 7777 116
Width: 610
Flags: HW
HStem: -199 22G<170 216> 351 33<69 120> 429 23<333 462>
VStem: 151 70<-193 302> 347 108<592 654>
LayerCount: 2
Fore
SplineSet
389 683 m 0
 394 684 398 685 403 685 c 0
 417 685 429 680 440 669 c 0
 451 658 457 644 457 631 c 0
 457 626 456 621 455 617 c 0
 451 598 433 582 415 578 c 0
 410 577 406 576 401 576 c 0
 387 576 375 581 364 592 c 0
 353 602 347 616 347 631 c 0
 347 640 348 645 353 654 c 0
 359 667 374 680 389 683 c 0
156 449 m 1
 160 453 161 453 169 453 c 0
 173 453 179 452 182 451 c 0
 196 447 207 431 212 404 c 0
 213 398 213 386 214 368 c 2
 214 340 l 1
 219 349 l 2
 248 405 309 445 380 452 c 0
 382 452 385 452 389 452 c 0
 395 452 404 452 413 452 c 0
 422 452 432 452 441 452 c 0
 445 452 449 452 452 452 c 0
 528 447 572 424 582 382 c 0
 583 377 584 372 584 368 c 0
 584 365 584 363 583 361 c 0
 581 358 526 313 523 313 c 2
 522 312 519 312 518 313 c 1
 513 315 512 319 511 334 c 0
 509 370 499 391 481 407 c 0
 465 420 442 427 408 429 c 0
 405 429 403 429 400 429 c 0
 347 429 298 410 263 375 c 0
 241 352 229 330 223 302 c 2
 221 292 l 1
 220 49 l 1
 220 -193 l 1
 216 -196 l 1
 213 -199 l 1
 186 -199 l 2
 155 -199 153 -199 151 -193 c 1
 149 -190 149 -161 149 60 c 0
 149 197 149 312 148 316 c 0
 144 343 132 349 87 351 c 2
 69 351 l 1
 69 368 l 1
 69 384 l 1
 73 384 l 2
 79 384 89 386 96 388 c 0
 122 396 141 414 147 437 c 0
 148 441 149 444 150 444 c 1
 156 449 l 1
EndSplineSet
Validated: 1
EndChar

StartChar: endash
Encoding: 123 8211 117
Width: 666
Flags: HW
LayerCount: 2
Fore
SplineSet
154 273 m 1
 154 285 l 1
 410 285 l 1
 665 285 l 1
 665 273 l 1
 665 261 l 1
 410 261 l 1
 154 261 l 1
 154 273 l 1
EndSplineSet
Validated: 1
EndChar

StartChar: emdash
Encoding: 124 8212 118
Width: 1178
Flags: HW
LayerCount: 2
Fore
SplineSet
154 273 m 1
 154 285 l 1
 666 285 l 1
 1177 285 l 1
 1177 273 l 1
 1177 261 l 1
 666 261 l 1
 154 261 l 1
 154 273 l 1
EndSplineSet
Validated: 1
EndChar

StartChar: asciitilde
Encoding: 126 126 119
Width: 530
Flags: HW
HStem: 559 44<144 292>
LayerCount: 2
Fore
SplineSet
197 603 m 0
 202 604 207 604 212 604 c 0
 229 604 250 600 283 590 c 0
 317 580 332 576 351 576 c 0
 353 576 356 577 359 577 c 0
 369 578 376 578 383 580 c 0
 395 584 410 591 421 598 c 2
 430 604 l 1
 437 595 l 1
 444 586 l 1
 444 585 435 578 426 570 c 0
 394 546 381 541 361 535 c 0
 352 533 343 531 334 531 c 0
 316 531 297 536 266 545 c 0
 229 556 214 559 196 559 c 0
 194 559 191 559 188 559 c 0
 178 558 171 558 164 556 c 0
 152 552 137 545 126 538 c 2
 117 531 l 1
 110 541 l 1
 103 550 l 1
 103 551 112 557 122 565 c 0
 144 581 154 589 165 594 c 0
 174 598 188 602 197 603 c 0
EndSplineSet
Validated: 1
EndChar

StartChar: uni0308
Encoding: 127 776 120
Width: 527
Flags: HW
LayerCount: 2
Fore
SplineSet
158 603 m 0
 162 604 167 605 171 605 c 0
 188 605 206 596 215 581 c 0
 221 572 223 562 223 553 c 0
 223 544 221 535 215 526 c 0
 206 511 189 502 172 502 c 0
 168 502 163 503 159 504 c 0
 135 509 119 530 119 554 c 0
 119 577 135 597 158 603 c 0
357 603 m 0
 361 604 366 605 370 605 c 0
 397 605 422 582 422 553 c 0
 422 525 397 502 371 502 c 0
 367 502 362 503 358 504 c 0
 334 509 318 530 318 554 c 0
 318 577 334 597 357 603 c 0
EndSplineSet
Validated: 1
EndChar

StartChar: quotedblright
Encoding: 257 8221 121
Width: 625
Flags: HW
LayerCount: 2
Fore
SplineSet
188 602 m 0
 193 603 197 604 202 604 c 0
 218 604 233 598 244 585 c 0
 251 578 259 563 263 551 c 0
 268 535 271 517 271 497 c 0
 271 476 268 454 263 432 c 0
 258 413 253 400 244 382 c 0
 230 353 216 335 196 312 c 0
 184 300 179 296 174 296 c 0
 171 296 169 297 166 300 c 1
 163 304 162 305 162 308 c 0
 162 312 163 314 173 324 c 0
 195 346 210 365 223 391 c 0
 234 414 241 437 245 463 c 0
 246 474 247 493 247 504 c 0
 247 506 247 509 247 510 c 2
 246 515 l 1
 240 510 l 2
 229 500 215 495 201 495 c 0
 192 495 182 497 174 502 c 0
 158 510 147 530 147 549 c 0
 147 575 163 597 188 602 c 0
386 602 m 0
 391 603 396 604 401 604 c 0
 417 604 432 598 443 585 c 0
 450 578 457 563 461 551 c 0
 466 535 469 517 469 497 c 0
 469 476 466 454 461 432 c 0
 456 413 452 400 443 382 c 0
 429 353 415 335 395 312 c 0
 383 300 378 296 373 296 c 0
 370 296 368 297 365 300 c 1
 362 304 361 305 361 308 c 0
 361 312 362 314 372 324 c 0
 394 346 408 365 421 391 c 0
 432 414 440 437 444 463 c 0
 445 474 446 493 446 504 c 0
 446 506 446 509 446 510 c 2
 445 515 l 1
 439 510 l 2
 428 500 413 495 399 495 c 0
 384 495 371 500 361 511 c 0
 351 521 345 535 345 549 c 0
 345 563 351 578 361 588 c 0
 367 595 377 600 386 602 c 0
EndSplineSet
Validated: 1
EndChar

StartChar: quotedblleft
Encoding: 256 8220 122
Width: 613
Flags: HW
LayerCount: 2
Fore
SplineSet
416 298 m 0
 411 297 407 296 402 296 c 0
 386 296 371 302 360 315 c 0
 353 322 346 337 342 349 c 0
 337 365 333 383 333 403 c 0
 333 424 337 446 342 468 c 0
 347 487 351 500 360 518 c 0
 374 547 388 564 408 587 c 0
 420 599 425 604 430 604 c 0
 433 604 435 603 438 600 c 1
 441 596 442 595 442 592 c 0
 442 588 441 586 431 576 c 0
 409 554 394 535 381 509 c 0
 370 486 363 463 359 437 c 0
 358 426 357 406 357 395 c 0
 357 393 357 391 357 390 c 2
 358 385 l 1
 364 390 l 2
 375 400 389 405 403 405 c 0
 412 405 422 403 430 398 c 0
 446 390 457 370 457 351 c 0
 457 325 441 303 416 298 c 0
218 298 m 0
 213 297 208 296 203 296 c 0
 187 296 172 302 161 315 c 0
 154 322 147 337 143 349 c 0
 138 365 135 383 135 403 c 0
 135 424 138 446 143 468 c 0
 148 487 152 500 161 518 c 0
 175 547 189 564 209 587 c 0
 221 599 226 604 231 604 c 0
 234 604 236 603 239 600 c 1
 242 596 243 595 243 592 c 0
 243 588 242 586 232 576 c 0
 210 554 196 535 183 509 c 0
 172 486 164 463 160 437 c 0
 159 426 158 406 158 395 c 0
 158 393 158 391 158 390 c 2
 159 385 l 1
 165 390 l 2
 176 400 191 405 205 405 c 0
 220 405 233 400 243 389 c 0
 253 379 259 364 259 350 c 0
 259 336 253 322 243 312 c 0
 237 305 227 300 218 298 c 0
EndSplineSet
Validated: 1
EndChar

StartChar: arrowright
Encoding: 258 8594 123
Width: 108
Flags: HW
HStem: 236 41<28 598>
VStem: 475 41<29 91 420 483>
LayerCount: 2
Fore
SplineSet
711 256 m 1
 612 218 536 138 516 29 c 1
 495 29 l 2
 478 29 475 29 475 31 c 0
 475 31 491 140 588 226 c 2
 598 236 l 1
 315 236 l 2
 133 236 67 235 43 235 c 0
 31 235 29 235 28 236 c 1
 19 240 17 252 17 256 c 0
 17 263 21 271 28 274 c 1
 31 276 42 276 315 276 c 2
 598 276 l 1
 588 286 l 2
 492 370 475 478 475 481 c 0
 475 483 478 483 495 483 c 2
 516 483 l 1
 536 373 612 293 711 256 c 1
EndSplineSet
Validated: 1
EndChar

StartChar: arrowleft
Encoding: 259 8592 124
Width: 178
Flags: HW
HStem: 236 41<200 770>
VStem: 282 41<29 91 420 483>
LayerCount: 2
Fore
SplineSet
282 29 m 1
 262 138 186 218 87 256 c 1
 186 293 262 373 282 483 c 1
 303 483 l 2
 320 483 323 483 323 481 c 0
 323 479 307 371 210 286 c 2
 200 276 l 1
 483 276 l 2
 756 276 767 276 770 274 c 1
 777 271 781 263 781 256 c 0
 781 252 779 240 770 236 c 1
 769 235 767 235 755 235 c 0
 731 235 665 236 483 236 c 2
 200 236 l 1
 210 226 l 2
 306 141 323 33 323 31 c 0
 323 29 320 29 303 29 c 2
 282 29 l 1
EndSplineSet
Validated: 1
EndChar
